<?xml version="1.0" standalone="no"?>
<!DOCTYPE svg PUBLIC "-//W3C//DTD SVG 1.1//EN" "http://www.w3.org/Graphics/SVG/1.1/DTD/svg11.dtd" >
<svg xmlns="http://www.w3.org/2000/svg">
<metadata></metadata>
<defs>
<font id="airwavesregular" horiz-adv-x="668" >
<font-face units-per-em="2048" ascent="1638" descent="-410" />
<missing-glyph horiz-adv-x="569" />
<glyph horiz-adv-x="2048" />
<glyph horiz-adv-x="2048" />
<glyph unicode="&#xd;" horiz-adv-x="569" />
<glyph unicode=" "  horiz-adv-x="569" />
<glyph unicode="&#x09;" horiz-adv-x="569" />
<glyph unicode="&#xa0;" horiz-adv-x="569" />
<glyph unicode="!" horiz-adv-x="264" d="M50 68v24q0 61 84 76q80 -17 80 -76v-24q-21 -68 -68 -68h-28q-68 21 -68 68zM50 576v696q21 68 68 68h28q68 -21 68 -68v-696q0 -61 -84 -76q-80 18 -80 76z" />
<glyph unicode="&#x22;" horiz-adv-x="452" d="M50 1247v28q21 68 68 68h28q51 0 68 -76q0 -87 -52 -148q0 -19 -32 -24h-20q-28 17 -28 40q0 15 20 48q-52 27 -52 64zM238 1263q0 59 64 80h32q68 -21 68 -68q0 -101 -44 -144q0 -16 -28 -36h-20q-36 5 -36 36v20l16 32q-52 24 -52 80z" />
<glyph unicode="#" horiz-adv-x="1188" d="M50 460v28q0 52 76 68h220l44 228h-188q-76 15 -76 68v28q21 68 68 68h228q61 335 76 360q32 32 60 32h16q61 0 76 -84l-60 -308h116q64 364 80 364q27 28 56 28h16q58 0 76 -80l-60 -312h196q68 -21 68 -68v-28q0 -52 -76 -68h-220l-44 -228h188q76 -15 76 -68v-28 q-21 -68 -68 -68h-228q-61 -335 -76 -360q-32 -32 -60 -32h-16q-61 0 -76 84l60 308h-116q-60 -341 -76 -360q-30 -32 -60 -32h-16q-58 0 -76 80l60 312h-196q-68 21 -68 68zM514 556h116l44 228h-116z" />
<glyph unicode="$" d="M50 269v32q0 52 76 68h12q73 0 80 -112q35 -88 104 -88h24q90 0 108 124v252q0 136 -184 136q-128 39 -192 148q-28 71 -28 112v136q0 165 192 252l8 8v28q9 92 76 92h16q67 0 76 -92v-28l108 -64q92 -98 92 -196v-32q0 -51 -76 -68h-12q-73 0 -80 112q-35 88 -104 88 h-24q-90 0 -108 -124v-80q0 -136 176 -136q133 -39 188 -128q40 -80 40 -132v-308q0 -165 -192 -252l-8 -8v-28q-9 -92 -76 -92h-16q-67 0 -76 92v28l-108 64q-92 98 -92 196z" />
<glyph unicode="%" d="M50 1092v24q0 64 88 76q58 0 76 -80v-12q-17 -76 -68 -76h-28q-68 21 -68 68zM94 76v4q0 29 324 1220q32 40 60 40h28q53 0 68 -76v-4q0 -29 -324 -1220q-33 -40 -60 -40h-28q-53 0 -68 76zM454 228v12q17 76 68 76h28q68 -21 68 -68v-24q0 -64 -88 -76q-58 0 -76 80z " />
<glyph unicode="&#x26;" horiz-adv-x="868" d="M50 264v308q0 90 80 184q-80 94 -80 184v136q0 140 156 236q57 28 108 28h36q155 0 244 -172q24 -45 24 -120v-92q-17 -80 -76 -80h-12q-80 0 -80 116v80q-22 104 -120 104q-100 0 -116 -124v-92q0 -85 92 -120q145 0 228 -84q98 84 204 84q80 -17 80 -76v-16 q0 -72 -112 -80q-84 -33 -84 -92l-4 -24v-264q13 -124 124 -124q76 -17 76 -68v-28q-21 -68 -68 -68h-32q-96 0 -184 84q-85 -84 -184 -84h-36q-140 0 -236 156q-28 59 -28 108zM214 288q13 -124 124 -124q87 0 112 104v300q0 81 -108 104h-8q-120 -14 -120 -120v-264z" />
<glyph unicode="'" horiz-adv-x="264" d="M50 1247v28q21 68 68 68h28q68 -21 68 -68q0 -95 -40 -140q-17 -40 -44 -40h-20q-28 16 -28 48l20 36q-52 36 -52 68z" />
<glyph unicode="(" horiz-adv-x="468" d="M50 638v84q0 339 228 712q24 24 52 24h16q72 -15 72 -72v-24l-92 -180q-112 -258 -112 -500v-4q0 -328 204 -688v-28q-15 -72 -72 -72h-16q-62 0 -120 148q-160 321 -160 600z" />
<glyph unicode=")" horiz-adv-x="468" d="M50 -14l84 168q120 270 120 524v4q0 331 -204 672v32q15 72 72 72h16q63 0 136 -176q144 -298 144 -560v-84q0 -335 -228 -728q-32 -20 -52 -20h-16q-72 16 -72 72v24z" />
<glyph unicode="*" horiz-adv-x="520" d="M50 1015v28q0 27 44 64q-44 17 -44 64v16q0 59 80 76q18 0 48 -16q10 88 68 88h28q58 0 68 -88q30 16 48 16q80 -17 80 -76v-16q0 -47 -44 -64q44 -37 44 -64v-28q0 -51 -72 -68h-16q-28 0 -120 60h-4q-93 -60 -120 -60h-16q-72 17 -72 68z" />
<glyph unicode="+" d="M50 670v16q0 66 92 76h108v108q9 92 76 92h16q67 0 76 -92v-108h108q92 -10 92 -76v-16q0 -67 -92 -76h-108v-108q-9 -92 -76 -92h-16q-67 0 -76 92v108h-108q-92 9 -92 76z" />
<glyph unicode="," horiz-adv-x="264" d="M50 64v28q21 68 68 68h28q68 -20 68 -68q0 -94 -40 -139q-17 -40 -44 -40h-20q-28 16 -28 48l20 36q-52 36 -52 67z" />
<glyph unicode="-" d="M50 669v28q21 68 68 68h432q68 -21 68 -68v-28q-21 -68 -68 -68h-432q-68 21 -68 68z" />
<glyph unicode="." horiz-adv-x="264" d="M50 68v28q21 68 68 68h28q68 -21 68 -68v-28q-21 -68 -68 -68h-28q-68 21 -68 68z" />
<glyph unicode="/" horiz-adv-x="576" d="M50 72v20q300 1149 328 1216q26 32 60 32h20q50 0 68 -72v-20q-300 -1149 -328 -1216q-25 -32 -60 -32h-20q-50 0 -68 72z" />
<glyph unicode="0" d="M50 264v812q0 157 184 248q46 16 80 16h40q139 0 236 -156q28 -59 28 -108v-812q0 -139 -156 -236q-62 -28 -108 -28h-40q-139 0 -236 156q-28 60 -28 108zM214 288q13 -124 124 -124q100 0 116 124v764q-13 124 -124 124q-100 0 -116 -124v-764z" />
<glyph unicode="1" horiz-adv-x="464" d="M50 1244v28q21 68 68 68h32q140 0 236 -156q28 -59 28 -108v-1008q-21 -68 -68 -68h-28q-68 19 -68 80v972q-13 124 -124 124q-76 17 -76 68z" />
<glyph unicode="2" d="M50 264v308q0 147 164 240q74 32 160 32q80 38 80 120v88q-13 124 -124 124q-103 0 -116 -128q0 -59 -84 -76q-80 18 -80 76v28q0 157 184 248q46 16 80 16h40q139 0 236 -156q28 -59 28 -108v-136q0 -172 -204 -256q-156 -19 -156 -40q-44 -34 -44 -96v-260 q13 -124 124 -124q103 0 116 128q0 59 84 76q80 -18 80 -76v-28q0 -139 -156 -236q-62 -28 -108 -28h-40q-139 0 -236 156q-28 60 -28 108z" />
<glyph unicode="3" d="M50 264v28q0 61 84 76q80 -17 80 -80q13 -124 124 -124q100 0 116 124v260q0 90 -88 120q-98 0 -116 76v12q0 72 92 84q96 0 112 124v88q-13 124 -124 124q-103 0 -116 -128q0 -59 -84 -76q-80 18 -80 76v28q0 157 184 248q46 16 80 16h40q139 0 236 -156q28 -59 28 -108 v-136q0 -90 -80 -184q80 -94 80 -184v-308q0 -139 -156 -236q-62 -28 -108 -28h-40q-139 0 -236 156q-28 60 -28 108z" />
<glyph unicode="4" d="M50 964v332q21 68 68 68h28q51 0 68 -76v-300q0 -89 88 -120q112 -9 112 -72l4 -16q-17 -84 -80 -84q-206 0 -284 224zM454 76v1212q17 76 68 76h28q68 -21 68 -68v-1228q-21 -68 -68 -68h-28q-51 0 -68 76z" />
<glyph unicode="5" d="M50 264v28q0 61 84 76q80 -17 80 -80q13 -124 124 -124q100 0 116 124v260q0 128 -172 128q-109 27 -180 112q-52 84 -52 152v136q0 157 184 248q46 16 80 16h236q68 -21 68 -68v-28q0 -51 -76 -68h-204q-124 -13 -124 -124v-88q0 -84 76 -116q7 -8 96 -12 q102 -22 180 -112q52 -85 52 -152v-308q0 -139 -156 -236q-62 -28 -108 -28h-40q-139 0 -236 156q-28 60 -28 108z" />
<glyph unicode="6" d="M50 264v812q0 157 184 248q46 16 80 16h40q139 0 236 -156q28 -59 28 -108v-28q0 -61 -84 -76q-80 17 -80 80q-13 124 -124 124q-100 0 -116 -124v-764q13 -124 124 -124q100 0 116 124v260q0 90 -88 120q-98 0 -116 76v12q0 71 88 84q162 0 256 -168q24 -53 24 -100 v-308q0 -139 -156 -236q-62 -28 -108 -28h-40q-139 0 -236 156q-28 60 -28 108z" />
<glyph unicode="7" d="M50 1240v32q21 68 68 68h264q161 0 232 -192l4 -36v-44q0 -134 -164 -248q-37 -36 -40 -76l4 -452v-224q-21 -68 -68 -68h-28q-42 0 -68 64l-4 404v284q0 134 172 256q32 35 32 80q-12 88 -84 88h-232q-70 0 -88 64z" />
<glyph unicode="8" d="M50 264v308q0 90 80 184q-80 94 -80 184v136q0 157 184 248q46 16 80 16h40q139 0 236 -156q28 -59 28 -108v-136q0 -90 -80 -184q80 -94 80 -184v-308q0 -139 -156 -236q-62 -28 -108 -28h-40q-139 0 -236 156q-28 60 -28 108zM214 288q13 -124 124 -124q100 0 116 124 v260q-14 124 -120 124t-120 -124v-260zM214 964q18 -124 108 -124h24q90 0 108 124v88q-13 124 -124 124q-100 0 -116 -124v-88z" />
<glyph unicode="9" d="M50 264v28q0 61 84 76q80 -17 80 -80q13 -124 124 -124q100 0 116 124v764q-13 124 -124 124q-100 0 -116 -124v-88q0 -90 92 -124q87 0 104 -52l8 -32q-15 -84 -84 -84q-193 0 -276 208l-8 60v136q0 157 184 248q46 16 80 16h40q139 0 236 -156q28 -59 28 -108v-812 q0 -139 -156 -236q-62 -28 -108 -28h-40q-139 0 -236 156q-28 60 -28 108z" />
<glyph unicode=":" horiz-adv-x="264" d="M50 450v28q0 51 76 68h12q76 -17 76 -68v-28q-21 -68 -68 -68h-28q-68 21 -68 68zM50 854v28q21 68 68 68h28q68 -21 68 -68v-28q0 -51 -76 -68h-12q-76 17 -76 68z" />
<glyph unicode=";" horiz-adv-x="264" d="M50 450v28q0 51 76 68h12q76 -17 76 -68q0 -95 -40 -140q-17 -40 -44 -40h-20q-28 17 -28 48l20 36q-52 36 -52 68zM50 854v28q21 68 68 68h28q68 -20 68 -68v-28q0 -50 -76 -68h-12q-76 18 -76 68z" />
<glyph unicode="&#x3c;" horiz-adv-x="608" d="M50 667v16q0 59 168 136q219 137 244 140h28q50 0 68 -72v-24q0 -50 -172 -132q-25 -23 -88 -52v-8q212 -115 248 -152l12 -32v-24q-18 -72 -68 -72h-28q-20 0 -388 224q-24 24 -24 52z" />
<glyph unicode="=" horiz-adv-x="740" d="M50 451v28q0 51 76 68h488q76 -17 76 -68v-28q-21 -68 -68 -68h-504q-68 21 -68 68zM50 855v28q21 68 68 68h504q68 -21 68 -68v-28q0 -51 -76 -68h-488q-76 17 -76 68z" />
<glyph unicode="&#x3e;" horiz-adv-x="608" d="M50 462v24q0 50 172 132q25 22 88 52v8q-212 115 -248 152l-12 32v24q18 72 68 72h28q20 0 388 -224q24 -24 24 -52v-16q0 -59 -168 -136q-219 -137 -244 -140h-28q-50 0 -68 72z" />
<glyph unicode="?" d="M50 1042v28q0 157 184 248q46 16 80 16h40q139 0 236 -156q28 -59 28 -108v-136q0 -160 -188 -252h-12v-180q-16 -84 -84 -84q-84 16 -84 84v248q0 74 92 84q95 0 112 124v88q-13 124 -124 124q-103 0 -116 -128q0 -59 -84 -76q-80 19 -80 76zM250 92q22 76 84 76 q84 -16 84 -84q-14 -84 -76 -84h-16q-67 0 -76 92z" />
<glyph unicode="@" horiz-adv-x="1476" d="M50 628v68q0 263 244 484q195 152 392 152h68q227 0 440 -196q196 -207 196 -464v-176q0 -151 -180 -212l-52 -4h-436q-257 0 -372 264q-12 39 -20 120q0 228 232 356q83 32 164 32q210 0 336 -208q44 -80 44 -172v-160q8 -64 52 -64h16q44 0 52 64v112q0 397 -368 524 q-72 20 -140 20q-306 0 -464 -308q-40 -100 -40 -200q0 -295 296 -452q107 -44 224 -44h616q76 -17 76 -68v-28q-21 -68 -68 -68h-672q-269 0 -500 256q-136 195 -136 372zM498 660q0 -152 172 -208l40 -4h236l-4 48v148q0 173 -156 232l-56 8h-20q-138 0 -200 -152 q-12 -24 -12 -72z" />
<glyph unicode="A" d="M50 68v528q0 199 112 568q71 176 160 176h24q188 0 272 -728v-544q-21 -68 -68 -68h-28q-51 0 -68 76v472q0 90 -88 120q-98 0 -116 76v12q0 71 88 84q58 -4 84 -16q-44 216 -84 312h-8q-116 -351 -116 -584v-476q-17 -76 -68 -76h-28q-68 21 -68 68z" />
<glyph unicode="B" d="M50 264v1008q21 68 68 68h28q51 0 68 -76v-976q13 -124 124 -124q100 0 116 124v260q0 90 -88 120q-98 0 -116 76v12q0 72 92 84q96 0 112 124v88q0 88 -88 120q-94 0 -112 64l-4 24q17 80 76 80h28q139 0 236 -156q28 -59 28 -108v-136q0 -90 -80 -184q80 -94 80 -184 v-308q0 -139 -156 -236q-62 -28 -108 -28h-40q-139 0 -236 156q-28 60 -28 108z" />
<glyph unicode="C" d="M50 264v812q0 157 184 248q46 16 80 16h40q139 0 236 -156q28 -59 28 -108v-28q0 -61 -84 -76q-80 17 -80 80q-13 124 -124 124q-100 0 -116 -124v-764q13 -124 124 -124q103 0 116 128q0 59 84 76q80 -18 80 -76v-28q0 -139 -156 -236q-62 -28 -108 -28h-40 q-139 0 -236 156q-28 60 -28 108z" />
<glyph unicode="D" d="M50 264v1008q21 68 68 68h28q51 0 68 -76v-976q13 -124 124 -124q100 0 116 124v764q0 88 -88 120q-94 0 -112 64l-4 24q17 80 76 80h28q139 0 236 -156q28 -59 28 -108v-812q0 -139 -156 -236q-62 -28 -108 -28h-40q-139 0 -236 156q-28 60 -28 108z" />
<glyph unicode="E" d="M50 264v308q0 90 80 184q-80 94 -80 184v136q0 157 184 248q46 16 80 16h40q139 0 236 -156q28 -59 28 -108v-28q0 -61 -84 -76q-80 17 -80 80q-13 124 -124 124q-100 0 -116 -124v-88q0 -90 92 -124q87 0 104 -52l8 -32q0 -74 -92 -84q-95 0 -112 -124v-260 q13 -124 124 -124q103 0 116 128q0 59 84 76q80 -18 80 -76v-28q0 -139 -156 -236q-62 -28 -108 -28h-40q-139 0 -236 156q-28 60 -28 108z" />
<glyph unicode="F" d="M50 68v504q0 90 80 184q-80 94 -80 184v136q0 157 184 248q46 16 80 16h40q139 0 236 -156q28 -59 28 -108v-28q0 -61 -84 -76q-80 17 -80 80q-13 124 -124 124q-100 0 -116 -124v-88q0 -90 92 -124q87 0 104 -52l8 -32q0 -74 -92 -84q-95 0 -112 -124v-472 q-17 -76 -68 -76h-28q-68 21 -68 68z" />
<glyph unicode="G" d="M50 264v812q0 157 184 248q46 16 80 16h40q139 0 236 -156q28 -59 28 -108v-28q0 -61 -84 -76q-80 17 -80 80q-13 124 -124 124q-100 0 -116 -124v-764q13 -124 124 -124q100 0 116 124v88q0 90 -92 124q-87 0 -104 52l-8 32q15 84 84 84q193 0 276 -208l8 -60v-136 q0 -139 -156 -236q-62 -28 -108 -28h-40q-139 0 -236 156q-28 60 -28 108z" />
<glyph unicode="H" d="M50 68v332q0 90 80 184q-80 94 -80 184v504q21 68 68 68h28q51 0 68 -76v-472q0 -90 88 -120q98 0 116 -76v-12q0 -72 -92 -84q-96 0 -112 -124v-300q-17 -76 -68 -76h-28q-68 21 -68 68zM454 76v1188q17 76 68 76h28q68 -21 68 -68v-1204q-21 -68 -68 -68h-28 q-51 0 -68 76z" />
<glyph unicode="I" horiz-adv-x="264" d="M50 68v1204q21 68 68 68h28q68 -21 68 -68v-1204q-21 -68 -68 -68h-28q-68 21 -68 68z" />
<glyph unicode="J" d="M50 264v28q0 61 84 76q80 -17 80 -80q13 -124 124 -124q100 0 116 124v764q0 88 -88 120q-94 0 -112 64l-4 24q17 80 76 80h28q139 0 236 -156q28 -59 28 -108v-812q0 -139 -156 -236q-62 -28 -108 -28h-40q-139 0 -236 156q-28 60 -28 108z" />
<glyph unicode="K" d="M50 68v1204q21 68 68 68h28q51 0 68 -76v-1188q-17 -76 -68 -76h-28q-68 21 -68 68zM250 744v12q0 72 92 84q96 0 112 124v300q17 76 68 76h28q68 -21 68 -68v-332q0 -90 -80 -184q80 -94 80 -184v-504q-21 -68 -68 -68h-28q-51 0 -68 76v472q0 90 -88 120q-98 0 -116 76 z" />
<glyph unicode="L" d="M50 264v1008q21 68 68 68h28q51 0 68 -76v-976q13 -124 124 -124q103 0 116 128q0 59 84 76q80 -18 80 -76v-28q0 -139 -156 -236q-62 -28 -108 -28h-40q-139 0 -236 156q-28 60 -28 108z" />
<glyph unicode="M" horiz-adv-x="1072" d="M50 68v1008q0 157 184 248q46 16 80 16h40q92 0 184 -84q83 84 180 84h40q139 0 236 -156q28 -59 28 -108v-1008q-21 -68 -68 -68h-28q-51 0 -68 76v976q-13 124 -124 124q-112 -20 -112 -108q-13 -96 -88 -96q-77 0 -88 124q-32 80 -116 80q-100 0 -116 -124v-976 q-17 -76 -68 -76h-28q-68 21 -68 68z" />
<glyph unicode="N" d="M50 68v1204q21 68 68 68h32q157 0 248 -180q20 -52 20 -116v-844q36 31 36 88v976q17 76 68 76h28q68 -21 68 -68v-1008q0 -139 -156 -236q-62 -28 -108 -28h-28q-67 0 -76 92v964q0 55 -36 84v-1064q-17 -76 -68 -76h-28q-68 21 -68 68z" />
<glyph unicode="O" d="M50 264v812q0 157 184 248q46 16 80 16h40q139 0 236 -156q28 -59 28 -108v-812q0 -139 -156 -236q-62 -28 -108 -28h-40q-139 0 -236 156q-28 60 -28 108zM214 288q13 -124 124 -124q100 0 116 124v764q-13 124 -124 124q-100 0 -116 -124v-764z" />
<glyph unicode="P" d="M50 68v1204q21 68 68 68h236q139 0 236 -156q28 -59 28 -108v-136q0 -175 -212 -260l-80 -8q-55 0 -76 80v4q0 72 92 84q96 0 112 124v88q-13 124 -124 124h-116v-1100q-17 -76 -68 -76h-28q-68 21 -68 68z" />
<glyph unicode="Q" d="M50 268v808q0 157 184 248q46 16 80 16h40q139 0 236 -156q28 -59 28 -108v-812q0 -139 -156 -236q-62 -28 -108 -28h-28q-67 0 -76 92v964q13 84 84 84q84 -13 84 -84v-856q36 31 36 88v764q-13 124 -124 124q-100 0 -116 -124v-772q-16 -80 -80 -80h-4q-59 0 -80 68z " />
<glyph unicode="R" d="M50 68v1204q21 68 68 68h28q51 0 68 -76v-1188q-17 -76 -68 -76h-28q-68 21 -68 68zM250 744v12q0 72 92 84q96 0 112 124v88q0 88 -88 120q-94 0 -112 64l-4 24q17 80 76 80h28q139 0 236 -156q28 -59 28 -108v-136q0 -90 -80 -184q80 -94 80 -184v-504q-21 -68 -68 -68 h-28q-51 0 -68 76v472q0 90 -88 120q-98 0 -116 76z" />
<glyph unicode="S" d="M50 264v28q0 61 84 76q80 -17 80 -80q13 -124 124 -124q100 0 116 124v260q0 128 -172 128q-109 27 -180 112q-52 84 -52 152v136q0 157 184 248q46 16 80 16h40q139 0 236 -156q28 -59 28 -108v-28q0 -61 -84 -76q-80 17 -80 80q-13 124 -124 124q-100 0 -116 -124v-88 q0 -84 76 -116q7 -8 96 -12q102 -22 180 -112q52 -85 52 -152v-308q0 -139 -156 -236q-62 -28 -108 -28h-40q-139 0 -236 156q-28 60 -28 108z" />
<glyph unicode="T" d="M50 1244v28q21 68 68 68h432q68 -21 68 -68v-28q0 -51 -76 -68h-152q28 -54 28 -132v-952q-9 -92 -76 -92h-16q-67 0 -76 92v964q0 109 -128 120q-72 21 -72 68z" />
<glyph unicode="U" d="M50 264v1008q21 68 68 68h28q51 0 68 -76v-976q13 -124 124 -124q100 0 116 124v976q17 76 68 76h28q68 -21 68 -68v-1008q0 -139 -156 -236q-62 -28 -108 -28h-40q-139 0 -236 156q-28 60 -28 108z" />
<glyph unicode="V" d="M50 728v544q21 68 68 68h28q51 0 68 -76v-476q0 -232 116 -584h8q116 352 116 584v476q17 76 68 76h28q68 -21 68 -68v-528q0 -199 -112 -568q-71 -176 -160 -176h-24q-188 0 -272 728z" />
<glyph unicode="W" horiz-adv-x="1072" d="M50 264v1008q21 68 68 68h28q51 0 68 -76v-976q13 -124 124 -124q100 0 116 128v972q15 76 68 76h28q53 0 68 -76v-964q0 -112 104 -136h20q100 0 116 124v976q17 76 68 76h28q68 -21 68 -68v-1008q0 -157 -184 -248q-46 -16 -80 -16h-40q-92 0 -184 84q-83 -84 -180 -84 h-40q-139 0 -236 156q-28 59 -28 108z" />
<glyph unicode="X" horiz-adv-x="652" d="M50 68q1 171 112 528l40 72q-74 135 -120 368q-32 171 -32 236q0 50 72 68h16q84 0 84 -148q40 -238 100 -400h8q44 100 100 400q0 148 84 148h16q72 -18 72 -68q0 -171 -112 -528l-40 -72q74 -135 120 -368q32 -171 32 -236q0 -50 -72 -68h-16q-84 0 -84 148 q-40 238 -100 400h-8q-44 -100 -100 -400q0 -148 -84 -148h-16q-72 18 -72 68z" />
<glyph unicode="Y" d="M50 936v336q21 68 68 68h28q51 0 68 -76v-296q0 -64 36 -96v172q0 213 212 288l56 8h32q68 -21 68 -68v-1204q-21 -68 -68 -68h-28q-51 0 -68 76v1064q-36 -29 -36 -84v-292q-12 -92 -72 -92h-28q-161 0 -252 184q-16 46 -16 80z" />
<glyph unicode="Z" d="M50 228v36q0 134 304 592q100 181 100 236q-15 84 -84 84h-232q-70 0 -88 64v32q21 68 68 68h264q161 0 232 -192l4 -36v-44q-22 -167 -268 -528q-136 -225 -136 -292q15 -84 84 -84h232q70 0 88 -64v-32q-21 -68 -68 -68h-264q-161 0 -232 192z" />
<glyph unicode="[" horiz-adv-x="612" d="M50 -42v1432q0 50 72 68h372q68 -21 68 -68v-28q0 -51 -76 -68h-272v-1240h260q70 0 88 -64v-32q-21 -68 -68 -68h-376q-68 21 -68 68z" />
<glyph unicode="\" horiz-adv-x="576" d="M50 1248v20q18 72 68 72h20q76 0 100 -168l288 -1080v-20q-18 -72 -68 -72h-20q-76 0 -100 168z" />
<glyph unicode="]" horiz-adv-x="612" d="M50 -14q0 51 76 68h272v1240h-260q-70 0 -88 64v32q21 68 68 68h376q68 -21 68 -68v-1432q-21 -68 -68 -68h-376q-68 21 -68 68v28z" />
<glyph unicode="^" horiz-adv-x="460" d="M50 1162v28q0 36 112 120q24 32 60 32h16q35 0 136 -96q36 -27 36 -56v-28q-21 -68 -68 -68h-28q-22 0 -84 56q-61 -56 -84 -56h-28q-68 21 -68 68z" />
<glyph unicode="_" d="M50 -80q21 68 68 68h432q68 -20 68 -68v-28q-21 -68 -68 -68h-432q-68 21 -68 68v28z" />
<glyph unicode="`" horiz-adv-x="420" d="M50 1245v28q0 50 72 68h24q48 0 124 -156q100 -162 100 -180v-28q0 -51 -72 -68h-24q-48 0 -124 156q-100 162 -100 180z" />
<glyph unicode="a" d="M50 264v28q0 31 84 128q127 167 156 184l32 8h12q65 0 76 -84v-4q0 -33 -144 -204l-48 -64q30 -88 96 -88l24 -4q100 0 116 124v260q-13 124 -124 124q-49 0 -120 -68l-20 -4h-16q-65 0 -80 84q0 63 124 128q50 24 96 24h40q140 0 236 -156q28 -57 28 -108v-308 q0 -157 -184 -248q-46 -16 -80 -16h-40q-139 0 -236 156q-28 59 -28 108z" />
<glyph unicode="b" d="M50 264v1008q21 68 68 68h28q51 0 68 -76v-976q13 -124 124 -124q100 0 116 124v260q0 90 -88 120q-98 0 -116 76v12q0 71 88 84q162 0 256 -168q24 -53 24 -100v-308q0 -139 -156 -236q-62 -28 -108 -28h-40q-139 0 -236 156q-28 60 -28 108z" />
<glyph unicode="c" d="M50 264v308q0 157 184 248q46 16 80 16h40q140 0 236 -156q28 -57 28 -108v-28q0 -57 -80 -76q-76 0 -84 92q0 92 -120 112h-4q-100 0 -116 -124v-260q13 -124 124 -124q83 0 116 100q4 96 56 96l24 8q84 -16 84 -76v-28q0 -157 -184 -248q-46 -16 -80 -16h-40 q-139 0 -236 156q-28 59 -28 108z" />
<glyph unicode="d" d="M50 264v308q0 156 180 248q62 20 104 20q84 -16 84 -84q0 -74 -92 -84q-95 0 -112 -124v-260q13 -124 124 -124q100 0 116 124v976q17 76 68 76h28q68 -21 68 -68v-1008q0 -139 -156 -236q-62 -28 -108 -28h-40q-139 0 -236 156q-28 60 -28 108z" />
<glyph unicode="e" d="M50 264v308q0 157 184 248q46 16 80 16h40q140 0 236 -156q28 -57 28 -108v-28q0 -31 -84 -128q-127 -167 -156 -184l-32 -8h-12q-65 0 -76 84v4q0 33 144 204l48 64q-30 88 -96 88l-24 4q-100 0 -116 -124v-260q13 -124 124 -124q50 0 120 68l20 4h16q65 0 80 -84 q0 -63 -124 -128q-50 -24 -96 -24h-40q-139 0 -236 156q-28 59 -28 108z" />
<glyph unicode="f" d="M50 68v1008q0 157 184 248q46 16 80 16h40q139 0 236 -156q28 -59 28 -108v-28q0 -61 -84 -76q-80 17 -80 80q-13 124 -124 124q-100 0 -116 -124v-404q38 40 72 40q84 -15 84 -80v-8q0 -74 -156 -140v-384q-17 -76 -68 -76h-28q-68 21 -68 68z" />
<glyph unicode="g" d="M50 264v308q0 138 156 236q62 28 108 28h40q139 0 236 -156q28 -60 28 -108v-748q0 -138 -156 -236q-62 -28 -108 -28h-40q-115 0 -200 108l-8 36q0 64 84 80h4q30 0 92 -52l52 -8q81 0 112 92l4 40v684q0 88 -68 120q-26 12 -56 12q-78 0 -112 -88l-4 -44v-252 q0 -92 96 -124q81 0 100 -52l8 -32q-15 -84 -84 -84q-193 0 -276 208z" />
<glyph unicode="h" d="M50 68v1204q21 68 68 68h28q51 0 68 -76v-452q63 28 120 28q191 0 276 -208l8 -60v-504q-21 -68 -68 -68h-28q-51 0 -68 76v472q-14 124 -120 124t-120 -124v-472q-17 -76 -68 -76h-28q-68 21 -68 68z" />
<glyph unicode="i" horiz-adv-x="264" d="M50 68v696q0 61 84 76q80 -18 80 -76v-696q-21 -68 -68 -68h-28q-68 21 -68 68zM50 1248v24q21 68 68 68h28q68 -21 68 -68v-24q0 -61 -84 -76q-80 17 -80 76z" />
<glyph unicode="j" horiz-adv-x="608" d="M50 -289q0 61 80 76q35 0 96 -52l52 -8q100 0 116 124v908q0 72 92 80q72 -22 72 -76v-936q0 -157 -184 -248q-46 -16 -80 -16h-40q-114 0 -200 108l-4 24v16zM394 1251v12q17 76 68 76h28q68 -21 68 -68v-24q0 -59 -80 -76q-84 14 -84 80z" />
<glyph unicode="k" d="M50 72v1200q21 68 68 68h28q51 0 68 -76v-880l264 432q27 22 60 24q80 -17 80 -76v-16q0 -30 -164 -288q0 -10 -24 -40q188 -307 188 -324v-24q-18 -72 -68 -72h-28q-49 0 -124 156l-64 96q-145 -235 -152 -236q-21 -16 -36 -16h-28q-50 0 -68 72z" />
<glyph unicode="l" horiz-adv-x="464" d="M50 264v1008q21 68 68 68h28q68 -19 68 -80v-972q13 -124 124 -124q76 -17 76 -68v-28q-21 -68 -68 -68h-32q-140 0 -236 156q-28 59 -28 108z" />
<glyph unicode="m" horiz-adv-x="1072" d="M50 68v504q0 157 184 248q46 16 80 16h40q92 0 184 -84q83 84 180 84h40q140 0 236 -156q28 -57 28 -108v-504q-21 -68 -68 -68h-28q-51 0 -68 76v472q-13 124 -124 124q-101 0 -116 -128v-468q-15 -76 -68 -76h-28q-53 0 -68 76v464q0 107 -104 132h-20 q-100 0 -116 -124v-472q-17 -76 -68 -76h-28q-68 21 -68 68z" />
<glyph unicode="n" d="M50 68v504q0 157 184 248q46 16 80 16h40q140 0 236 -156q28 -57 28 -108v-504q-21 -68 -68 -68h-28q-51 0 -68 76v472q-13 124 -124 124q-100 0 -116 -124v-472q-17 -76 -68 -76h-28q-68 21 -68 68z" />
<glyph unicode="o" d="M50 264v308q0 157 184 248q46 16 80 16h40q140 0 236 -156q28 -57 28 -108v-308q0 -157 -184 -248q-46 -16 -80 -16h-40q-139 0 -236 156q-28 59 -28 108zM214 288q13 -124 124 -124q100 0 116 124v260q-13 124 -124 124q-100 0 -116 -124v-260z" />
<glyph unicode="p" d="M50 -432v1008q0 156 184 248q46 16 80 16h40q139 0 236 -156q28 -59 28 -108v-308q0 -157 -180 -248q-62 -20 -104 -20q-84 15 -84 84q0 73 92 84q95 0 112 124v260q-13 124 -124 124q-100 0 -116 -124v-976q-17 -76 -68 -76h-28q-68 21 -68 68z" />
<glyph unicode="q" d="M50 268v308q0 156 184 248q46 16 80 16h40q139 0 236 -156q28 -59 28 -108v-1008q-21 -68 -68 -68h-28q-51 0 -68 76v976q-13 124 -124 124q-100 0 -116 -124v-260q0 -90 88 -120q98 0 116 -76v-12q0 -71 -88 -84q-162 0 -256 168q-24 53 -24 100z" />
<glyph unicode="r" horiz-adv-x="544" d="M50 68v504q0 157 184 248q46 16 80 16h40q118 0 140 -84v-28q0 -52 -80 -68h-4l-80 16q-100 0 -116 -124v-472q-17 -76 -68 -76h-28q-68 21 -68 68z" />
<glyph unicode="s" d="M50 228v36q0 51 76 68h8q76 0 88 -120q30 -48 76 -48h72q74 0 84 92q0 36 -236 112q-168 79 -168 196v40q0 120 140 204q47 24 96 24h96q161 0 232 -192l4 -36v-36q0 -51 -76 -68h-8q-76 0 -88 120q-30 48 -76 48h-72q-74 0 -84 -92q0 -39 240 -116q164 -77 164 -196v-36 q0 -120 -140 -204q-47 -24 -96 -24h-96q-161 0 -232 192z" />
<glyph unicode="t" d="M50 264v1008q21 68 68 68h28q51 0 68 -76v-380l64 8h12q67 0 80 -84q0 -88 -124 -88l-32 -16v-416q13 -124 124 -124q103 0 116 128q0 59 84 76q80 -18 80 -76v-28q0 -139 -156 -236q-62 -28 -108 -28h-40q-139 0 -236 156q-28 60 -28 108z" />
<glyph unicode="u" d="M50 264v504q21 68 68 68h28q51 0 68 -76v-472q13 -124 124 -124q100 0 116 124v472q17 76 68 76h28q68 -21 68 -68v-504q0 -157 -184 -248q-46 -16 -80 -16h-40q-139 0 -236 156q-28 59 -28 108z" />
<glyph unicode="v" d="M50 716v52q21 68 68 68h28q51 0 68 -76q0 -299 108 -572q8 0 8 -12h8q88 202 88 308q20 87 32 304q33 48 64 48h28q68 -21 68 -68v-40q0 -301 -116 -600q-72 -128 -160 -128h-16q-225 0 -276 716z" />
<glyph unicode="w" horiz-adv-x="1072" d="M50 264v504q21 68 68 68h28q51 0 68 -76v-472q13 -124 124 -124q101 0 116 128v468q15 76 68 76h28q53 0 68 -76v-464q0 -107 104 -132h20q100 0 116 124v472q17 76 68 76h28q68 -21 68 -68v-504q0 -157 -184 -248q-46 -16 -80 -16h-40q-92 0 -184 84q-83 -84 -180 -84 h-40q-140 0 -236 156q-28 57 -28 108z" />
<glyph unicode="x" d="M50 68v32q0 152 112 316v4q-112 165 -112 316v32q21 68 68 68h28q68 0 76 -136q15 -106 80 -192h60q57 55 84 188q11 128 48 128q1 8 28 12h28q68 -21 68 -68v-32q0 -151 -112 -316v-4q112 -164 112 -316v-32q-21 -68 -68 -68h-28q-68 0 -76 136q-15 106 -80 192h-60 q-57 -55 -84 -188q-11 -128 -48 -128q-9 -12 -28 -12h-28q-68 21 -68 68z" />
<glyph unicode="y" d="M50 268v504q21 68 68 68h28q51 0 68 -76v-472q0 -93 96 -124h36q73 0 108 100v496q17 76 68 76h28q68 -21 68 -68v-944q0 -139 -156 -236q-62 -28 -108 -28h-40q-115 0 -200 108l-8 36q0 64 84 80h4q30 0 92 -52l52 -8q81 0 112 92l4 40v168q-57 -28 -124 -28 q-187 0 -272 208z" />
<glyph unicode="z" d="M50 228v36q0 166 336 256q68 33 68 64q-15 84 -84 84h-240q-61 0 -80 68v28q21 68 68 68h264q161 0 232 -192l4 -36v-40q0 -157 -296 -240q-108 -39 -108 -76q15 -84 84 -84h240q61 0 80 -68v-28q-21 -68 -68 -68h-264q-161 0 -232 192z" />
<glyph unicode="{" horiz-adv-x="496" d="M50 666v16q0 27 72 120q68 117 68 264l-12 212q16 180 168 180h32q68 -21 68 -68v-28q-19 -68 -80 -68h-20v-4l12 -224q0 -210 -120 -392q120 -183 120 -388l-12 -228v-4h20q61 0 80 -68v-28q-21 -68 -68 -68h-32q-116 0 -156 112q-8 15 -12 72l12 216q0 194 -136 348z " />
<glyph unicode="|" horiz-adv-x="264" d="M50 -42v1432q21 68 68 68h28q68 -21 68 -68v-1432q-21 -68 -68 -68h-28q-68 21 -68 68z" />
<glyph unicode="}" horiz-adv-x="496" d="M50 -14q19 68 80 68h20v4l-12 224q0 210 120 392q-120 183 -120 388l12 228v4h-20q-61 0 -80 68v28q21 68 68 68h32q116 0 156 -112q8 -14 12 -72l-12 -216q0 -194 136 -348l4 -28v-16q0 -27 -72 -120q-68 -117 -68 -264l12 -212q-15 -180 -168 -180h-32q-68 21 -68 68 v28z" />
<glyph unicode="~" d="M50 656v28q31 92 152 92h36q54 0 176 -40l36 -4l76 24h16q76 -18 76 -68v-28q-31 -92 -152 -92h-36q-54 0 -176 40l-36 4l-76 -24h-16q-76 17 -76 68z" />
<glyph unicode="&#xa1;" horiz-adv-x="682" />
<glyph unicode="&#xa2;" horiz-adv-x="1139" />
<glyph unicode="&#xa3;" horiz-adv-x="1139" />
<glyph unicode="&#xa4;" horiz-adv-x="1139" />
<glyph unicode="&#xa5;" horiz-adv-x="1139" />
<glyph unicode="&#xa6;" horiz-adv-x="532" />
<glyph unicode="&#xa7;" horiz-adv-x="1139" />
<glyph unicode="&#xa8;" horiz-adv-x="682" />
<glyph unicode="&#xa9;" horiz-adv-x="1509" />
<glyph unicode="&#xaa;" horiz-adv-x="758" />
<glyph unicode="&#xab;" horiz-adv-x="1139" />
<glyph unicode="&#xac;" horiz-adv-x="1196" />
<glyph unicode="&#xad;" d="M50 669v28q21 68 68 68h432q68 -21 68 -68v-28q-21 -68 -68 -68h-432q-68 21 -68 68z" />
<glyph unicode="&#xae;" horiz-adv-x="1509" />
<glyph unicode="&#xaf;" horiz-adv-x="1131" />
<glyph unicode="&#xb0;" horiz-adv-x="819" />
<glyph unicode="&#xb1;" horiz-adv-x="1124" />
<glyph unicode="&#xb2;" horiz-adv-x="682" />
<glyph unicode="&#xb3;" horiz-adv-x="682" />
<glyph unicode="&#xb4;" horiz-adv-x="682" />
<glyph unicode="&#xb5;" horiz-adv-x="1180" />
<glyph unicode="&#xb6;" horiz-adv-x="1100" />
<glyph unicode="&#xb7;" horiz-adv-x="569" />
<glyph unicode="&#xb8;" horiz-adv-x="682" />
<glyph unicode="&#xb9;" horiz-adv-x="682" />
<glyph unicode="&#xba;" horiz-adv-x="748" />
<glyph unicode="&#xbb;" horiz-adv-x="1139" />
<glyph unicode="&#xbc;" horiz-adv-x="1708" />
<glyph unicode="&#xbd;" horiz-adv-x="1708" />
<glyph unicode="&#xbe;" horiz-adv-x="1708" />
<glyph unicode="&#xbf;" horiz-adv-x="1251" />
<glyph unicode="&#xc0;" horiz-adv-x="1366" />
<glyph unicode="&#xc1;" horiz-adv-x="1366" />
<glyph unicode="&#xc2;" horiz-adv-x="1366" />
<glyph unicode="&#xc3;" horiz-adv-x="1366" />
<glyph unicode="&#xc4;" horiz-adv-x="1366" />
<glyph unicode="&#xc5;" horiz-adv-x="1366" />
<glyph unicode="&#xc6;" horiz-adv-x="2048" />
<glyph unicode="&#xc7;" horiz-adv-x="1479" />
<glyph unicode="&#xc8;" horiz-adv-x="1366" />
<glyph unicode="&#xc9;" horiz-adv-x="1366" />
<glyph unicode="&#xca;" horiz-adv-x="1366" />
<glyph unicode="&#xcb;" horiz-adv-x="1366" />
<glyph unicode="&#xcc;" horiz-adv-x="569" />
<glyph unicode="&#xcd;" horiz-adv-x="569" />
<glyph unicode="&#xce;" horiz-adv-x="569" />
<glyph unicode="&#xcf;" horiz-adv-x="569" />
<glyph unicode="&#xd0;" horiz-adv-x="1479" />
<glyph unicode="&#xd1;" horiz-adv-x="1479" />
<glyph unicode="&#xd2;" horiz-adv-x="1593" />
<glyph unicode="&#xd3;" horiz-adv-x="1593" />
<glyph unicode="&#xd4;" horiz-adv-x="1593" />
<glyph unicode="&#xd5;" horiz-adv-x="1593" />
<glyph unicode="&#xd6;" horiz-adv-x="1593" />
<glyph unicode="&#xd7;" horiz-adv-x="1196" />
<glyph unicode="&#xd8;" horiz-adv-x="1593" />
<glyph unicode="&#xd9;" horiz-adv-x="1479" />
<glyph unicode="&#xda;" horiz-adv-x="1479" />
<glyph unicode="&#xdb;" horiz-adv-x="1479" />
<glyph unicode="&#xdc;" horiz-adv-x="1479" />
<glyph unicode="&#xdd;" horiz-adv-x="1366" />
<glyph unicode="&#xde;" horiz-adv-x="1366" />
<glyph unicode="&#xdf;" horiz-adv-x="1251" />
<glyph unicode="&#xe0;" horiz-adv-x="1139" />
<glyph unicode="&#xe1;" horiz-adv-x="1139" />
<glyph unicode="&#xe2;" horiz-adv-x="1139" />
<glyph unicode="&#xe3;" horiz-adv-x="1139" />
<glyph unicode="&#xe4;" horiz-adv-x="1139" />
<glyph unicode="&#xe5;" horiz-adv-x="1139" />
<glyph unicode="&#xe6;" horiz-adv-x="1821" />
<glyph unicode="&#xe7;" horiz-adv-x="1024" />
<glyph unicode="&#xe8;" horiz-adv-x="1139" />
<glyph unicode="&#xe9;" horiz-adv-x="1139" />
<glyph unicode="&#xea;" horiz-adv-x="1139" />
<glyph unicode="&#xeb;" horiz-adv-x="1139" />
<glyph unicode="&#xec;" horiz-adv-x="569" />
<glyph unicode="&#xed;" horiz-adv-x="569" />
<glyph unicode="&#xee;" horiz-adv-x="569" />
<glyph unicode="&#xef;" horiz-adv-x="569" />
<glyph unicode="&#xf0;" horiz-adv-x="1139" />
<glyph unicode="&#xf1;" horiz-adv-x="1139" />
<glyph unicode="&#xf2;" horiz-adv-x="1139" />
<glyph unicode="&#xf3;" horiz-adv-x="1139" />
<glyph unicode="&#xf4;" horiz-adv-x="1139" />
<glyph unicode="&#xf5;" horiz-adv-x="1139" />
<glyph unicode="&#xf6;" horiz-adv-x="1139" />
<glyph unicode="&#xf7;" horiz-adv-x="1124" />
<glyph unicode="&#xf8;" horiz-adv-x="1251" />
<glyph unicode="&#xf9;" horiz-adv-x="1139" />
<glyph unicode="&#xfa;" horiz-adv-x="1139" />
<glyph unicode="&#xfb;" horiz-adv-x="1139" />
<glyph unicode="&#xfc;" horiz-adv-x="1139" />
<glyph unicode="&#xfd;" horiz-adv-x="1024" />
<glyph unicode="&#xfe;" horiz-adv-x="1139" />
<glyph unicode="&#xff;" horiz-adv-x="1024" />
<glyph unicode="&#x152;" horiz-adv-x="2048" />
<glyph unicode="&#x153;" horiz-adv-x="1933" />
<glyph unicode="&#x178;" horiz-adv-x="1366" />
<glyph unicode="&#x2c6;" horiz-adv-x="682" />
<glyph unicode="&#x2dc;" horiz-adv-x="682" />
<glyph unicode="&#x2000;" horiz-adv-x="729" />
<glyph unicode="&#x2001;" horiz-adv-x="1458" />
<glyph unicode="&#x2002;" horiz-adv-x="729" />
<glyph unicode="&#x2003;" horiz-adv-x="1458" />
<glyph unicode="&#x2004;" horiz-adv-x="486" />
<glyph unicode="&#x2005;" horiz-adv-x="364" />
<glyph unicode="&#x2006;" horiz-adv-x="243" />
<glyph unicode="&#x2007;" horiz-adv-x="243" />
<glyph unicode="&#x2008;" horiz-adv-x="182" />
<glyph unicode="&#x2009;" horiz-adv-x="291" />
<glyph unicode="&#x200a;" horiz-adv-x="81" />
<glyph unicode="&#x2010;" d="M50 669v28q21 68 68 68h432q68 -21 68 -68v-28q-21 -68 -68 -68h-432q-68 21 -68 68z" />
<glyph unicode="&#x2011;" d="M50 669v28q21 68 68 68h432q68 -21 68 -68v-28q-21 -68 -68 -68h-432q-68 21 -68 68z" />
<glyph unicode="&#x2012;" d="M50 669v28q21 68 68 68h432q68 -21 68 -68v-28q-21 -68 -68 -68h-432q-68 21 -68 68z" />
<glyph unicode="&#x2013;" horiz-adv-x="1139" />
<glyph unicode="&#x2014;" horiz-adv-x="2048" />
<glyph unicode="&#x2018;" horiz-adv-x="455" />
<glyph unicode="&#x2019;" horiz-adv-x="455" />
<glyph unicode="&#x201a;" horiz-adv-x="455" />
<glyph unicode="&#x201c;" horiz-adv-x="682" />
<glyph unicode="&#x201d;" horiz-adv-x="682" />
<glyph unicode="&#x201e;" horiz-adv-x="682" />
<glyph unicode="&#x2022;" horiz-adv-x="717" />
<glyph unicode="&#x2026;" horiz-adv-x="2048" />
<glyph unicode="&#x202f;" horiz-adv-x="291" />
<glyph unicode="&#x2039;" horiz-adv-x="682" />
<glyph unicode="&#x203a;" horiz-adv-x="682" />
<glyph unicode="&#x205f;" horiz-adv-x="364" />
<glyph unicode="&#x20ac;" horiz-adv-x="1139" />
<glyph unicode="&#x2122;" horiz-adv-x="2048" />
<glyph unicode="&#xe000;" horiz-adv-x="835" d="M0 0v835h835v-835h-835z" />
</font>
</defs>
</svg>
