<?xml version="1.0" standalone="no"?>
<!DOCTYPE svg PUBLIC "-//W3C//DTD SVG 1.1//EN" "http://www.w3.org/Graphics/SVG/1.1/DTD/svg11.dtd" >
<svg xmlns="http://www.w3.org/2000/svg">
<metadata></metadata>
<defs>
<font id="shark_soft_bitesharksoftbites" horiz-adv-x="491" >
<font-face units-per-em="2048" ascent="1638" descent="-410" />
<missing-glyph horiz-adv-x="821" />
<glyph unicode="&#xd;" horiz-adv-x="2048" />
<glyph unicode=" "  horiz-adv-x="821" />
<glyph unicode="&#x09;" horiz-adv-x="821" />
<glyph unicode="&#xa0;" horiz-adv-x="821" />
<glyph unicode="!" horiz-adv-x="509" d="M18 152q0 -145 150 -146q90 0 151.5 52.5t61.5 144.5q0 59 -46 91t-99 32q-45 0 -84 -9.5t-69 -31t-47.5 -54t-17.5 -79.5zM18 569q0 -76 33 -106.5t109 -30.5q70 0 130 30t105 79t71 114.5t26 139.5v692q0 35 -20.5 57.5t-49.5 35.5t-60.5 18.5t-54.5 5.5 q-14 0 -45 -6.5t-63.5 -15.5t-58 -22.5t-31.5 -25.5q-47 -236 -69 -480.5t-22 -484.5z" />
<glyph unicode="&#x22;" horiz-adv-x="622" d="M25 1149q0 -63 10 -125.5t38.5 -109t84.5 -46.5q47 0 74.5 25t42 63.5t18.5 82.5t4 85q0 35 -4 84t-17.5 93.5t-41 75t-76.5 30.5q-78 0 -105.5 -43t-27.5 -119v-96zM324 1141q0 -63 10 -126t38.5 -109t84.5 -46q47 0 74.5 24.5t42 63.5t18.5 83t4 85q0 35 -4 84 t-17.5 93t-41 75t-76.5 31q-78 0 -105.5 -43t-27.5 -119v-96z" />
<glyph unicode="#" horiz-adv-x="1466" d="M10 487q0 -16 9.5 -40.5t23.5 -48t31.5 -41t34.5 -17.5h231v-291q0 -16 20.5 -25.5t47 -15.5t51 -8t30.5 -2q49 0 77 20.5t44.5 51t24.5 68.5t16 74t22.5 63.5t43.5 39.5q31 -12 45 -40.5t21.5 -63.5t12.5 -73t15 -68.5t31.5 -51t62.5 -20.5q49 0 77 19.5t42 50 t20.5 66.5t12.5 69t15 57.5t32 30.5q31 10 84 17t104 22.5t89 45.5t38 83q0 63 -27.5 96t-68.5 49.5t-88 22.5t-88 15t-68.5 26.5t-27.5 58.5q0 4 1 12.5t3 12.5q53 16 120.5 24t128 27.5t101.5 59.5t41 120q0 39 -24.5 61.5t-58.5 37t-73 20.5t-65 12v12q0 57 12 110.5 t12 111.5q0 29 -13 73.5t-37.5 84.5t-61.5 62.5t-82 8.5q-45 -16 -69.5 -53t-40 -85t-26 -99.5t-25.5 -93.5t-43 -69.5t-75 -27.5q0 47 6 80t12.5 60.5t12.5 53t6 60.5t-8 70.5t-24.5 64.5t-44 47.5t-66.5 18.5q-96 0 -153.5 -51.5t-90.5 -126t-47 -159.5t-27 -153 q-49 -6 -108.5 -12t-111.5 -24.5t-87 -54.5t-35 -101q0 -10 5 -37t15.5 -53.5t24 -47t31.5 -20.5h242l24 -59q-33 -25 -90 -40.5t-113.5 -35t-97.5 -52t-41 -90.5zM682 780q14 0 32.5 -1t36 -5t29 -15t11.5 -30q0 -53 -52 -53q-43 0 -50 32.5t-7 71.5z" />
<glyph unicode="$" horiz-adv-x="956" d="M25 459q0 -6 1 -17.5t1 -15.5q18 -25 50 -47.5t65.5 -43t62.5 -41.5t45 -46q-6 -33 -8 -79t7 -88t34.5 -71.5t74.5 -29.5q66 0 101 11t52 30.5t21.5 44t7.5 52t11 56.5t31 53q2 4 21.5 13.5t43 20.5t43 19.5t25.5 12.5q35 23 63.5 56.5t48 73.5t30.5 83t11 84 q0 92 -44 148.5t-109.5 88t-143 45t-147.5 19.5q-20 4 -22.5 21.5t-2.5 33.5q0 37 26 63.5t61.5 45t75.5 27t71 8.5q47 0 90 -11.5t90 -11.5q57 0 91 35t34 90q0 61 -25.5 89t-63.5 42t-81 22.5t-78 30.5q-31 18 -35 61.5t-9 87.5t-26.5 77.5t-87.5 33.5q-31 0 -53 -14 t-39.5 -36.5t-28 -50.5t-12.5 -54q-4 -29 -11 -74t-9 -74q-53 -39 -108.5 -83t-100.5 -96t-73.5 -112.5t-28.5 -132.5q0 -98 28.5 -154.5t80.5 -83t126 -29.5t166 5q35 6 42 -14.5t7 -42.5q0 -27 -8 -44.5t-41 -31.5h-18t-25.5 -1t-28.5 -1h-18q-61 0 -116.5 12.5 t-115.5 12.5q-23 0 -44 -2.5t-38.5 -10.5t-28.5 -23.5t-11 -41.5z" />
<glyph unicode="%" horiz-adv-x="1169" d="M25 1112q0 -51 13 -98t39.5 -82t67.5 -56.5t99 -21.5q68 0 126 33t101 85t66.5 116.5t23.5 125.5q0 119 -71.5 178.5t-186.5 59.5q-68 0 -120 -29.5t-88 -78t-53 -110t-17 -122.5zM189.5 141.5q-1.5 -32.5 9 -57.5t29 -42t38.5 -26q31 -10 66 23t73.5 97.5t81.5 155.5 t88 195q20 47 60.5 137.5t86.5 198t91 220t76 204.5t43 150.5t-8 58.5q-29 8 -55.5 14.5t-51 0t-47 -27t-41.5 -61.5l-520 -1167q-18 -41 -19.5 -73.5zM250 1143v39q0 20 5 35.5t18.5 23.5t39.5 8q41 0 52.5 -19.5t11.5 -55.5q0 -16 -6 -37t-16.5 -38.5t-26 -28.5t-35.5 -11 q-39 0 -41 25.5t-2 58.5zM602 295q0 -51 13.5 -98t40 -82t67.5 -56.5t98 -21.5q68 0 126.5 32.5t101.5 85t66.5 117t23.5 125.5q0 119 -72 178.5t-186 59.5q-68 0 -120 -30t-88 -78t-53.5 -109.5t-17.5 -122.5zM827 326v39q0 20 5.5 35.5t18.5 23.5t40 8q41 0 52 -19.5 t11 -56.5q0 -16 -6 -36.5t-16 -38t-25.5 -28.5t-36.5 -11q-39 0 -41 25.5t-2 58.5z" />
<glyph unicode="&#x26;" horiz-adv-x="827" d="M27 813q0 -74 13 -164t47 -174t92.5 -150.5t146.5 -95.5q6 0 7 -30.5t1 -69.5q0 -37 2 -67.5t8 -30.5q-4 0 20.5 -10.5t58.5 -15.5t67.5 4t48.5 48q0 2 -1 33t-2 67t-2.5 65.5t1.5 29.5q57 4 106 12t86 27.5t57.5 57.5t20.5 104q0 27 -13.5 50t-35 39.5t-47 27 t-47.5 10.5q-18 0 -55.5 -9.5t-76 -19.5t-71.5 -20.5t-45 -12.5l-3 -1t-5 -1q-20 0 -36 9.5t-16 31.5q0 55 31 78.5t76 32t98 10.5t98 17.5t76 51t31 109.5q0 29 -22.5 49.5t-52.5 32.5t-60.5 18.5t-48.5 6.5q-68 0 -129.5 -18.5t-128.5 -18.5q0 10 -5.5 38.5t-1.5 39.5 q0 8 8.5 19t10.5 11h328q16 0 30.5 12.5t25.5 31t18 38t7 33.5q0 45 -19 75.5t-51 49t-70 27t-75 8.5l13 288l-17 3q-16 4 -36.5 8t-37.5 7l-16 3q-31 2 -52.5 -2t-49.5 -23q-6 -4 -4 -47t5 -93t4 -91t-7 -41q-147 -66 -225 -203t-78 -305z" />
<glyph unicode="'" horiz-adv-x="317" d="M23 1151q0 -63 10 -125.5t38.5 -109t84.5 -46.5q47 0 74.5 25t42 63.5t18.5 82.5t4 85q0 35 -4 84.5t-17.5 93.5t-41 74.5t-76.5 30.5q-78 0 -105.5 -43t-27.5 -119v-96z" />
<glyph unicode="(" horiz-adv-x="704" d="M18 614q0 -96 30 -205.5t90.5 -202.5t151.5 -155.5t216 -62.5q66 0 104.5 27.5t38.5 82.5q0 27 -27.5 62t-68.5 77t-88 92t-88 108.5t-68.5 125t-27.5 142.5q0 33 8 83t19 103t25.5 102t26.5 82q20 53 73.5 98.5t110 90.5t99.5 95t43 111q0 27 -15.5 41.5t-37 22.5 t-46 10t-42.5 2q-92 0 -168 -39t-137.5 -106.5t-106.5 -158.5t-72.5 -194.5t-39 -215.5t-3.5 -218z" />
<glyph unicode=")" horiz-adv-x="708" d="M25 1485q0 27 14 41t35.5 22t46 10.5t43.5 2.5q135 0 238.5 -84t170 -218.5t96 -298t17.5 -323.5q0 -94 -28.5 -203.5t-89 -203t-151.5 -155t-214 -61.5q-63 0 -102.5 28t-39.5 83q0 27 27 60.5t68 75.5t88 91t88 107.5t67.5 125t26.5 140.5q0 33 -7 83t-19.5 102.5 t-26 101.5t-25.5 82q-20 53 -73.5 98t-108.5 89t-98 93t-43 111z" />
<glyph unicode="*" horiz-adv-x="692" d="M18 1116q0 -27 14.5 -45t35 -30.5t45 -19.5t47.5 -11q2 -2 2 -9q0 -29 -17.5 -51t-17.5 -55q0 -43 16.5 -65.5t61.5 -22.5q37 0 59.5 12t37.5 30.5t31.5 40t41.5 42.5q29 -20 62.5 -41t68.5 -21q10 0 25.5 3.5t28.5 10.5t22.5 17t9.5 25v6q-4 12 -14.5 28.5t-20.5 33 t-19.5 30.5t-9.5 25l1 3t1 5q18 6 43 17t46.5 26.5t37 35t15.5 46.5q0 31 -22.5 47t-53.5 23.5t-62.5 6t-48.5 -3.5q-2 20 -6 50t-13 57t-27.5 46t-47.5 19q-47 0 -74.5 -20.5t-44 -52t-23.5 -70.5t-11 -74q-25 2 -62 2t-72.5 -9t-60.5 -29.5t-25 -57.5z" />
<glyph unicode="+" horiz-adv-x="761" d="M18 637q0 -25 5.5 -46.5t17.5 -33.5q23 -20 48.5 -28.5t51 -9.5t52.5 -1q28 0 57 -2q-4 -27 -6 -58.5t1 -64.5t13 -62.5t33 -49.5q20 -23 52 -29t54 16q10 10 23.5 46t26 78t19.5 81t3 53q57 -8 122.5 -5t113.5 50q10 10 19 33t12 47.5t-1 48t-16 35.5q-23 20 -50.5 29.5 t-58 11.5t-62.5 1t-59 3q10 43 16.5 79t3.5 67.5t-19.5 61.5t-49.5 63q-8 8 -21 9t-27.5 -2t-27 -8.5t-18.5 -9.5q-20 -23 -33.5 -57.5t-22.5 -72.5t-15.5 -74.5t-10.5 -63.5q-25 6 -55 6q-31 0 -61.5 -6t-59.5 -19.5t-47 -33.5q-12 -12 -17.5 -34.5t-5.5 -47.5z" />
<glyph unicode="," horiz-adv-x="399" d="M16 180q0 -57 21.5 -99t81.5 -63q0 -2 1 -4l1 -4q0 -27 -5 -44t-11.5 -33.5t-11.5 -36t-5 -48.5q57 0 110.5 15.5t94.5 45.5t65.5 73t24.5 98q0 43 -10.5 86t-34 78t-60 56.5t-88.5 21.5q-25 0 -55.5 -11.5t-56 -31t-44 -45t-18.5 -54.5z" />
<glyph unicode="-" horiz-adv-x="751" d="M23 645q0 -72 56 -98.5t154 -26.5q29 0 76 -1t101.5 2t111 9.5t101.5 19.5t73.5 36.5t28.5 58.5q0 45 -33 71.5t-83 40t-108.5 16.5t-109.5 3q-47 0 -109.5 -3t-121 -16.5t-98 -40t-39.5 -71.5z" />
<glyph unicode="." horiz-adv-x="391" d="M12 150q0 -145 150 -146q90 0 151.5 52.5t61.5 144.5q0 59 -46 91t-100 32q-45 0 -84 -9.5t-68.5 -31t-47 -54t-17.5 -79.5z" />
<glyph unicode="/" horiz-adv-x="778" d="M17.5 135q-1.5 -33 9 -57.5t29 -42t38.5 -25.5q31 -10 66 23t73.5 97.5t81.5 155.5t88 195q20 47 60.5 137.5t86.5 198t91 220t76 204.5t43 150.5t-8 58.5q-29 8 -55.5 14t-51 0t-47.5 -26.5t-41 -61.5l-520 -1167q-18 -41 -19.5 -74z" />
<glyph unicode="0" horiz-adv-x="1153" d="M16 651q0 -131 20.5 -247.5t71 -203.5t134.5 -137.5t209 -50.5q143 0 267 78t215 203t142 282.5t51 319.5q0 143 -41 251.5t-112.5 181.5t-172 109t-216.5 36q-141 0 -247 -73t-177.5 -190.5t-107.5 -264.5t-36 -294zM414 723q0 59 8 120.5t29.5 111t61.5 81t103 31.5 q37 0 63 -22.5t42 -56.5t24.5 -74t8.5 -76q0 -57 -11.5 -120t-36 -115t-65.5 -86t-98 -34q-20 0 -39 1t-35 8.5t-29.5 23.5t-19.5 45q0 8 -1 31.5t-2 49.5t-2 48.5t-1 32.5z" />
<glyph unicode="1" horiz-adv-x="688" d="M29 1012q-4 -55 26.5 -76t71.5 -21q27 0 60.5 16.5t67.5 40t63.5 49.5t52.5 44l-15 -887q0 -31 12.5 -61.5t33 -57t47 -43t55.5 -16.5q37 0 61.5 29.5t40 72.5t24.5 89.5t17 80.5v187q0 39 4 128t4 197q0 109 -8 224.5t-30.5 212t-65.5 158t-111 61.5q-31 0 -72.5 -24.5 t-86.5 -62.5t-89.5 -86t-80 -95.5t-58 -90.5t-24.5 -69z" />
<glyph unicode="2" horiz-adv-x="978" d="M14 1102q0 -78 34 -117t112 -39q31 0 65.5 13.5t69.5 29t69.5 28.5t63.5 13q51 0 68.5 -24.5t17.5 -75.5q0 -63 -34 -130t-85 -135.5t-111.5 -137t-111.5 -137t-85 -134.5t-34 -127v-16q35 -47 82 -67.5t100.5 -27t109.5 -4.5t112 2q29 0 77 1t103 6.5t111.5 17.5 t102.5 34.5t75.5 56.5t29.5 83q0 35 -14 59.5t-37.5 40t-52.5 22.5t-59 7q-35 0 -78 -7t-87 -16.5t-87 -16.5t-80 -7q-4 0 -13.5 1t-13.5 1q59 66 132 144.5t136.5 165.5t106.5 178.5t43 181.5q0 104 -38 179t-104.5 124t-154.5 71.5t-188 22.5q-59 0 -122 -13.5t-114 -44 t-84 -80.5t-33 -126z" />
<glyph unicode="3" horiz-adv-x="925" d="M10 229q0 -74 36 -116.5t90 -64t120 -28t127 -6.5q92 0 186.5 20.5t169 66.5t122.5 120t48 178q0 98 -58 155.5t-155 90.5v39q51 41 87 74t59.5 70.5t34 86t10.5 119.5q0 100 -42 164t-110.5 99.5t-153.5 48t-171 12.5q-59 0 -130 -5t-130.5 -25.5t-99.5 -60.5t-40 -110 q0 -57 30 -105t95 -48q35 0 70 10t69.5 21.5t70.5 21.5t73 10q51 0 80.5 -37t29.5 -86q0 -10 -1 -33.5t-6 -46t-13 -40t-21 -17.5h-227q-14 0 -28.5 -15.5t-24.5 -37t-17.5 -44t-7.5 -36.5q0 -10 3 -33t10.5 -47.5t18.5 -43t26 -18.5h211q8 0 24.5 -14t32.5 -32.5t28.5 -37 t12.5 -26.5q0 -59 -49 -92t-105 -33q-29 0 -60.5 12.5t-64 27.5t-64.5 28.5t-59 13.5q-29 0 -53 -14.5t-42.5 -37t-30 -48t-11.5 -50.5z" />
<glyph unicode="4" horiz-adv-x="882" d="M18 766l8 -14q9 -15 13 -23q37 -68 78 -104.5t90 -54t107.5 -20.5t127.5 -3q0 -66 -7 -118t-7 -112q0 -59 11.5 -108t27.5 -119q39 -47 61.5 -60.5t65.5 -13.5q51 0 87 26t59.5 64.5t33.5 85t14 87.5q2 35 7.5 90t13.5 117.5t16.5 128t15.5 121t12 94t7 49.5q0 2 1 15 t1 30q0 16 1 34.5t1 28.5q0 41 -4 89t-16.5 94.5t-35 87t-60.5 71.5h-82q-16 0 -43 -1t-53.5 -8t-45 -22.5t-18.5 -46.5v-297q0 -25 -11.5 -45t-30 -36.5t-40 -25.5t-41.5 -9q-33 0 -49.5 10t-16.5 45q0 59 10.5 112.5t10.5 116.5v21q0 16 -1 33.5t-1 33.5v25 q-10 43 -33.5 69.5t-55.5 40t-69 18.5t-74 5q-16 0 -40 -1l-25 -1l-21 -57v-543z" />
<glyph unicode="5" horiz-adv-x="995" d="M14 238q0 -16 3 -42t9.5 -52.5t17 -49.5t26.5 -31q14 -4 51 -12t78 -16t77.5 -16.5t51.5 -10.5h18q100 0 208 26.5t197 82t146 140.5t57 202q0 121 -44 198.5t-109.5 125.5t-142 72t-142 36t-110 19.5t-44.5 21.5q0 8 3.5 28.5t8.5 42t13 37t21 15.5h12q12 0 55 -6.5 t92 -12.5t92 -11t56 -7h8h8q12 2 44 4t68 5t66.5 6t42.5 3q12 10 16.5 27.5t5.5 36t0 35t-1 26.5q0 92 -43 133t-109.5 54.5t-144.5 8.5t-148 -5q-43 0 -99 2t-113.5 -4.5t-107.5 -26.5t-81 -66q-6 -10 -16.5 -32.5t-19.5 -49t-15 -50t-6 -33.5v-441l73 -73q41 6 74 10 t63.5 6t61.5 3t68 1q23 0 51 -3t55 -13.5t46.5 -28.5t23.5 -49q6 -53 -19.5 -89t-66.5 -57.5t-90.5 -30t-90.5 -8.5q-14 0 -37.5 -1t-47 2.5t-44 10.5t-26.5 25q-35 -4 -61.5 -9t-47 -17.5t-31 -34t-10.5 -57.5z" />
<glyph unicode="6" horiz-adv-x="952" d="M16 565q0 -92 20.5 -192.5t67 -183.5t121 -136t185.5 -53q106 0 201.5 42t167 114.5t112.5 167t41 198.5q0 94 -58.5 156.5t-143.5 98.5t-181 48.5t-172 8.5q12 27 16 52t12.5 46.5t27 41t54.5 36.5q31 14 96.5 15t130 5t114 21.5t49.5 64.5q0 68 -32 113t-79 70.5 t-105.5 36t-109.5 10.5h-27q-16 0 -35.5 -1.5t-37.5 -1.5h-23q-117 -37 -195.5 -123.5t-127 -197.5t-69 -232t-20.5 -225zM354 418q0 61 33 105t80 44q51 0 88 -34.5t37 -86.5q0 -31 -13.5 -60.5t-35 -53t-49 -38.5t-56.5 -15q-27 0 -43 13t-25.5 33.5t-12.5 45t-3 47.5z " />
<glyph unicode="7" horiz-adv-x="983" d="M18 1253q0 -37 20.5 -67.5t51.5 -53t69 -35t72 -12.5l396 29v-39q-35 -55 -69 -122.5t-68.5 -139.5t-72.5 -144.5t-81 -138.5q-27 -41 -60.5 -97t-64.5 -115.5t-51.5 -118t-20.5 -103.5q0 -59 30 -77.5t85 -18.5q63 0 110.5 35t87.5 85t75.5 106.5t76.5 99.5 q12 23 36 67.5t52.5 101t60 118t61.5 116.5t53.5 99t37.5 67q14 20 24.5 55t17.5 74t11.5 76t4.5 61q0 78 -39 129t-97.5 82t-129 44.5t-132.5 13.5h-61q-18 0 -74.5 -3.5t-119 -6.5t-119 -6t-74.5 -5q-29 -16 -47.5 -30.5t-29.5 -31t-16.5 -39t-5.5 -55.5z" />
<glyph unicode="8" horiz-adv-x="1038" d="M14 961q0 -8 1 -21.5t1 -15.5q16 -86 35 -123t42.5 -57.5t54 -40t71.5 -74.5q-31 -33 -63.5 -65t-59 -67.5t-44 -74.5t-17.5 -86q0 -80 35.5 -142.5t93 -106.5t131.5 -66.5t149 -22.5q211 0 352.5 65.5t207.5 237.5q14 8 15 45t-3 76t-10.5 69.5t-6.5 28.5q0 61 -23.5 94 t-57 56.5t-73.5 47t-73 68.5q72 66 120 140.5t48 171.5q0 84 -43 147.5t-109.5 105.5t-148.5 63.5t-158 21.5q-109 0 -194.5 -36t-146 -99.5t-93.5 -150.5t-33 -189zM381 1012q0 25 10 48t28.5 41.5t41 30t47.5 11.5q41 0 51 -18.5t10 -53.5q0 -25 -11 -50.5t-29.5 -48 t-43 -36.5t-51.5 -14q-16 0 -26.5 10t-16.5 23.5t-8 29t-2 27.5zM426 391q0 31 18.5 45.5t45 18.5t56 2t52.5 -2q2 -59 -27.5 -103.5t-101.5 -46.5l-31 35q-4 14 -8 18t-4 33z" />
<glyph unicode="9" horiz-adv-x="974" d="M18 195q0 -57 34 -93t83 -57.5t104.5 -30t100.5 -8.5q172 0 290 74t189.5 191.5t103 266t31.5 298.5q0 59 -7 127.5t-23.5 136t-45 130t-71.5 111t-102.5 77t-137.5 28.5q-92 0 -188 -30t-176 -86t-131.5 -137t-51.5 -183q0 -123 52.5 -206t135.5 -133t187.5 -68.5 t208.5 -12.5l19 -19q0 -2 1 -11t2 -19.5t2 -20.5t1 -14q0 -115 -60.5 -167t-179.5 -58q-41 -4 -70.5 5t-57.5 21t-55.5 23.5t-64.5 11.5q-29 0 -51 -13.5t-37.5 -34t-25 -46.5t-9.5 -53zM354 967q0 25 6.5 53.5t20.5 53t38.5 42t61.5 17.5q59 0 98 -29t39 -80 q0 -23 -15 -53.5t-38.5 -57t-53.5 -42t-60.5 -9.5t-48 9t-25.5 7.5t-9 9.5t-1 11q-10 14 -11.5 22.5t-1.5 45.5z" />
<glyph unicode=":" horiz-adv-x="399" d="M16 836q0 -145 150 -146q90 0 151.5 52.5t61.5 144.5q0 59 -46 91t-100 32q-45 0 -83.5 -9.5t-68.5 -31t-47.5 -54t-17.5 -79.5zM20 160q0 -145 150 -146q90 0 151.5 52.5t61.5 144.5q0 59 -46 91t-99 32q-45 0 -84 -9.5t-69 -31t-47.5 -54t-17.5 -79.5z" />
<glyph unicode=";" horiz-adv-x="409" d="M20 154q0 -57 21.5 -99.5t81.5 -62.5q0 -2 1 -4l1 -4q0 -27 -5 -44.5t-11.5 -34t-11.5 -36t-5 -47.5q57 0 110.5 15.5t94.5 45t65.5 72.5t24.5 98q0 43 -10 86t-34 78t-60.5 56.5t-87.5 21.5q-25 0 -55.5 -11.5t-56.5 -31t-44.5 -45t-18.5 -53.5zM20 840q0 -145 150 -146 q90 0 151.5 52.5t61.5 144.5q0 59 -46 91t-99 32q-45 0 -84 -9.5t-69 -31t-47.5 -54t-17.5 -79.5z" />
<glyph unicode="&#x3c;" horiz-adv-x="1075" d="M18 651q0 -6 2.5 -19.5t5.5 -27.5t6 -27.5t3 -19.5q80 -84 177 -159.5t205.5 -134t226.5 -93.5t239 -35q37 0 68.5 1t54 12.5t36 38t13.5 77.5q0 33 -15.5 62.5t-38 54.5t-49 42t-49.5 28q-10 4 -51 17t-97.5 31.5t-121 40t-120.5 40t-97 32t-51 17.5v24 q39 23 105.5 42.5t143 41t155.5 47t143.5 62.5t105.5 86t41 117q0 25 -7.5 52t-20.5 48.5t-31.5 36t-41.5 14.5q-43 0 -100 -18.5t-114.5 -46t-109.5 -57t-87 -52.5q-27 -18 -97.5 -50t-150.5 -67t-149.5 -67.5t-96.5 -50.5q-23 -25 -29 -69t-6 -71z" />
<glyph unicode="=" horiz-adv-x="800" d="M20 406q0 -72 56.5 -98.5t154.5 -26.5h80t111.5 2t124 9t115 21.5t84 38t32.5 58.5q0 45 -42 70.5t-101.5 37.5t-127 15.5t-118.5 3.5q-47 0 -109.5 -3.5t-121 -16.5t-98.5 -39.5t-40 -71.5zM20 817q0 -72 56.5 -98.5t154.5 -26.5h80t111.5 2t124 9.5t115 21.5t84 37.5 t32.5 58.5q0 45 -42 71t-101.5 38t-127 15t-118.5 3q-47 0 -109.5 -3t-121 -16.5t-98.5 -40t-40 -71.5z" />
<glyph unicode="&#x3e;" horiz-adv-x="1069" d="M20 991q0 25 7.5 51.5t20.5 48t31.5 36t41.5 14.5q43 0 98 -18.5t112.5 -45t110 -56.5t86.5 -52q16 -12 55.5 -30.5t87.5 -40t102 -45.5t102.5 -46.5t86.5 -41t54 -30.5q23 -25 29 -68.5t6 -68.5q0 -6 -3.5 -19.5t-6.5 -27.5t-5 -27.5t-2 -19.5q-80 -84 -176 -159 t-203.5 -133t-224.5 -92t-235 -34q-37 0 -68 1t-53.5 12.5t-35.5 38t-13 75.5q0 33 15 62.5t37.5 54t48.5 42t48 27.5q10 4 51 17.5t96.5 32t120 39t119.5 39t96 31.5t52 17v25q-39 23 -104.5 41t-141.5 39.5t-155 47.5t-143.5 61.5t-104.5 85t-40 116.5z" />
<glyph unicode="?" horiz-adv-x="937" d="M14 1331q0 -78 38 -124t120 -46q29 0 68 14.5t78.5 32t76.5 31.5t66 14q68 0 105.5 -37.5t37.5 -93.5q0 -43 -24.5 -75.5t-60.5 -63.5t-78 -62.5t-77.5 -72.5t-60 -95t-24.5 -130q0 -43 -4.5 -88.5t2 -82t31 -60t81.5 -23.5q59 0 96 19.5t59.5 51t35 72.5t21.5 84 t21.5 84t34.5 76q37 53 81 93t83 80t65.5 88t26.5 120q0 57 -12 133t-45 143.5t-87 114.5t-138 47q-176 0 -284.5 -14.5t-172 -35t-91.5 -43t-40 -36.5q-25 -29 -27 -54.5t-2 -60.5zM199 111q0 -37 17 -65t45 -44t60.5 -24.5t61.5 -8.5q78 0 125 33t47 117t-27.5 123 t-115.5 39q-35 0 -73 -10.5t-68.5 -31t-51 -52t-20.5 -76.5z" />
<glyph unicode="@" horiz-adv-x="1552" d="M20 705q0 -135 41 -262.5t118 -225.5t188.5 -157.5t255.5 -59.5q176 0 339.5 61.5t290.5 173t203 267t76 342.5q0 141 -52.5 271t-144.5 229.5t-216 159t-267 59.5q-178 0 -330.5 -69t-263.5 -185.5t-174.5 -272t-63.5 -331.5zM326 678q0 102 26.5 214t81.5 204 t141.5 152.5t206.5 60.5q100 0 190.5 -40t158 -109.5t107.5 -161t40 -193.5q0 -35 -9 -81t-29.5 -88t-53.5 -70.5t-78 -28.5q-14 0 -40 23.5t-57.5 61t-66.5 83t-68.5 87.5t-62.5 77.5t-49 52.5q-2 0 -7 1t-7 1q-29 0 -52.5 -29t-42 -73t-32 -97t-22.5 -100t-14 -82t-5 -45 q0 -23 6 -43.5t35 -20.5h8t4 2q4 2 18.5 17.5t31.5 34t32.5 33t19.5 18.5q2 0 11.5 1t13.5 1q14 0 51 -18.5t76 -44t69.5 -52.5t34.5 -41q10 -41 -20.5 -66.5t-74.5 -40t-88 -20.5t-58 -6q-96 0 -175 31.5t-134.5 88t-86 134.5t-30.5 172zM711 717q0 53 53 53 q29 0 53.5 -18.5t24.5 -46.5q0 -29 -21.5 -35t-44.5 -6q-31 0 -48 9t-17 44z" />
<glyph unicode="A" horiz-adv-x="1079" d="M12 193q0 -16 1 -36t1 -38v-23q2 -4 10.5 -13t12.5 -13q12 -8 33.5 -19.5l43 -23t39 -20.5t19.5 -9q24 -5 46 -5q31 0 56 10q43 17 73 53t47.5 86.5t27.5 103.5t15 103t7 85q20 16 36 21.5t36 5.5q49 -2 81 -40t54.5 -95.5t42 -124t44 -122.5t59 -94t90.5 -38 q74 0 110.5 40t64.5 109v27q0 20 0.5 43.5t0.5 44.5v29q0 47 -9.5 125.5t-26.5 174t-43 203t-57.5 212t-71.5 198.5t-85 167t-95 116t-106 43q-90 0 -165.5 -72t-138 -186.5t-109.5 -257t-79 -282.5t-48.5 -264t-16.5 -200v-24zM420 838v16q0 29 3 60.5t14.5 59t33 46 t55.5 18.5q27 0 46.5 -7t31.5 -44q2 -10 4 -42t2 -42q0 -33 -5 -61.5t-17.5 -51t-35 -36t-56.5 -13.5q-6 0 -18 -1h-7l-15 1q-12 2 -22 8.5t-12 18.5v18t-1 25.5t-1 26.5z" />
<glyph unicode="B" horiz-adv-x="1142" d="M16 1083q0 -35 1 -69.5t2 -61t1 -30.5q2 -31 9.5 -93.5t17.5 -140.5t21.5 -165t21.5 -164.5t19.5 -140t13.5 -91.5q18 -55 63 -77q44 -24 98 -30q32 -4 65 -3q23 -1 45 1q56 4 100 5q80 0 152.5 2t139 18t126 53t108.5 109q33 47 53.5 79.5t31.5 62.5t15 60.5t4 73.5 q0 74 -22.5 140.5t-62.5 121t-97 94.5t-127 58q61 59 108.5 138t47.5 169q0 94 -49.5 163t-124 113t-162.5 64.5t-166 20.5q-53 0 -123 -9.5t-136.5 -33t-118.5 -63.5t-71 -101q0 -12 -1 -43t-2 -66t-1 -65v-43v-56zM348 1139q0 66 41 103.5t107 37.5q31 0 48 -13.5 t26.5 -35t12.5 -48t3 -50.5q0 -18 -2 -39t-10.5 -36.5t-23.5 -25.5t-40 -10q-41 0 -81 15t-75 38q-2 6 -4 30.5t-2 33.5zM403 461q0 29 12.5 56.5t33 50t48 35.5t56.5 13q78 0 120 -40.5t42 -118.5q0 -33 -6.5 -58.5t-46.5 -40.5q-6 0 -18.5 -1t-27 -2t-28.5 -1h-17 q-31 0 -60.5 2t-53 12.5t-39 32t-15.5 60.5z" />
<glyph unicode="C" horiz-adv-x="1091" d="M20 692q0 -139 37 -264t111 -221t184.5 -152.5t257.5 -56.5q76 0 158 23.5t149.5 68.5t111.5 111.5t44 152.5q0 72 -33.5 116t-121.5 44q-4 0 -14.5 -1t-12.5 -1q-10 -2 -52 -13.5t-89.5 -24.5t-88 -24.5t-51.5 -13.5q-2 -2 -6 -2h-8q-55 0 -92 30t-59.5 74t-33 94 t-10.5 91q0 104 27 165.5t71 94.5t99 43t113.5 14t114 6.5t99.5 18.5t70.5 53t26.5 109t-46 130t-112.5 98t-142.5 61.5t-137 21.5q-86 0 -162 -43t-138.5 -113.5t-111.5 -161t-83 -183.5t-51.5 -184t-17.5 -161z" />
<glyph unicode="D" horiz-adv-x="1087" d="M20 842q0 -53 1.5 -105.5t2.5 -93.5t1 -47t6 -56.5t15 -116t18.5 -132t15.5 -105.5q2 -25 4 -52.5t8 -51t21.5 -40.5t46.5 -19h18q18 0 40 -1.5t44 -1.5h35q131 0 267 50.5t248 139.5t182.5 212t70.5 266q0 150 -44 287t-129 241.5t-209 167t-284 62.5q-41 0 -105.5 -7 t-124.5 -27.5t-103 -58.5q-41 -36 -41 -95v-5q0 -18 -1 -65t-2.5 -99.5t-1.5 -99.5v-63v-84zM429 753q1 46 1 89v43v67q0 37 1 68t1 43q35 -31 72 -61.5t67.5 -65.5t50 -76t19.5 -90q0 -35 -10 -84t-30.5 -95t-50.5 -79t-67 -33q-2 0 -8 1t-10 1q-18 39 -25.5 85t-9.5 94 q-1 32 -1 62v31z" />
<glyph unicode="E" horiz-adv-x="1013" d="M24 657v-29q0 -59 3 -118q4 -74 16 -146.5t41 -134t76 -108.5t121 -70h28q23 0 47.5 -1t46.5 -1h31q68 0 164 8.5t184 38t150.5 87t62.5 157.5q0 33 -17 62.5t-44 51t-58.5 34t-60.5 12.5q-23 0 -68 -11.5t-94 -24.5t-90 -26.5t-55 -15.5l-4 -1t-6 -1q-27 0 -46.5 11 t-19.5 40q0 70 38 98.5t95.5 38.5t123 13.5t122.5 22t95 63.5t38 137q0 37 -27.5 61.5t-65.5 41t-77 23.5t-61 7q-41 0 -81 -7t-79 -16.5t-79 -16.5t-83 -7q0 6 -2 19.5t-4 28.5t-3 29.5t1 20.5q2 10 11 24.5t14 14.5h407q20 0 39.5 15.5t34 38t23 47t8.5 40.5q0 82 -41 123 t-101 55q-57 14 -121 14h-9q-68 -1 -126 -1h-33t-49 -1t-51 -1h-33q-90 -41 -153.5 -101.5t-103.5 -137.5t-57 -170t-17 -197q0 -61 -1 -134z" />
<glyph unicode="F" horiz-adv-x="1040" d="M20 242q0 -16 8.5 -64.5t25 -99.5t40 -90t56.5 -39h178q4 0 22.5 19.5t28.5 31.5q6 10 17.5 26.5t21.5 33t17 28.5t7 14v437l39 24q49 1 98 1h49h9q67 0 123 16q58 16 95.5 58t37.5 132q0 78 -52.5 119t-124 59.5t-145 20.5t-114.5 4q-2 4 -2 12v14q0 47 42 63 q41 15 105 17q32 1 66 1q36 0 72 -1h20q62 1 116 11q64 12 106 49t42 118q0 63 -34 106.5t-89 72t-123.5 44t-138.5 22.5t-132.5 8t-105.5 1q-80 0 -141 -27.5t-104 -76.5t-70 -114.5t-39 -139.5q0 -23 1 -67t1 -99v-117v-116t-1 -99.5t-1 -64.5q0 -12 -4 -61.5t-9 -105.5 t-9.5 -105.5t-4.5 -61.5v-14z" />
<glyph unicode="G" horiz-adv-x="1040" d="M18 641q0 -135 41 -253t120 -204t190.5 -135t253.5 -49q100 0 174.5 50t125 126t75 166t24.5 172q0 156 -78 218.5t-231 62.5h-86q-41 0 -74 -11.5t-53.5 -39t-20.5 -80.5q0 -45 24.5 -59.5t54.5 -22t54.5 -16.5t24.5 -42q0 -25 -12.5 -38t-31 -20t-38.5 -8t-35 -1 q-49 0 -77.5 20.5t-43 52t-18.5 72.5t-4 82q0 104 40 166.5t100.5 101.5t131 62.5t131 47t100.5 56.5t40 92q0 61 -23 104.5t-59.5 70t-87 39t-105.5 12.5q-172 0 -292 -66.5t-194.5 -177.5t-107.5 -254t-33 -297z" />
<glyph unicode="H" horiz-adv-x="1218" d="M24 1019q1 -54 1 -91q0 -31 1 -98.5t3 -155.5t4 -184.5t4 -184.5t4 -156.5t4 -97.5q-4 -31 23.5 -50t61.5 -30.5t63.5 -16.5t31.5 -5q15 -1 29 -1q62 0 94 28q39 36 54.5 92.5t18.5 125t16.5 129t46 100.5t108.5 40h78q4 0 14 -7t20.5 -14.5t18.5 -14.5t8 -9v-332 q0 -29 21.5 -46t51.5 -26.5t61.5 -12.5t49.5 -3q74 0 124.5 29.5t82 79t48 113t22.5 130t6 129.5v117q0 84 4 177q2 53 2 106q0 39 -1 79q-3 92 -18.5 174t-55 145.5t-109.5 100.5t-180 37q-37 0 -62.5 -36t-36.5 -68q0 -16 1 -55t1 -85q0 -45 -1 -84.5t-1 -56.5 q-2 -33 -9 -69.5t-21.5 -68.5t-38 -52.5t-58.5 -20.5q-33 0 -61.5 20.5t-42.5 63.5q4 49 6 111q0 15 1 30q0 46 -5 94q-6 62 -21.5 121.5t-46 105.5t-81 73.5t-123.5 27.5q-61 0 -100.5 -29.5t-63 -76.5t-34.5 -107.5t-15 -120.5q-3 -48 -3 -91v-22z" />
<glyph unicode="I" horiz-adv-x="528" d="M18 1233l2 -1104q0 -41 17.5 -69.5t45.5 -48t62.5 -29t67.5 -9.5q113 0 172 53.5t87 134.5t32 174t4 173v131t-5 193.5t-20.5 218t-45 204t-78.5 150.5t-123 59q-43 0 -82 -20.5t-70 -53t-48.5 -73.5t-17.5 -84z" />
<glyph unicode="J" horiz-adv-x="1013" d="M18 346q0 -170 100.5 -260t262.5 -90q123 0 233.5 36t195.5 104.5t134 166.5t49 223q0 23 2 105q1 41 1 88.5t-1 102.5q-2 108 -10 227.5t-29.5 221t-60.5 167t-98 65.5q-33 0 -67 -12t-64.5 -32.5t-54 -49.5t-31.5 -59q-2 -23 -6.5 -96.5t-7.5 -156.5t-6 -157t-3 -96 q0 -25 5 -88q2 -32 2 -64.5t-2 -65.5q-5 -67 -31.5 -118t-90.5 -51q-37 0 -54 24.5t-32.5 55t-39 55t-72.5 24.5q-57 0 -99.5 -22.5t-70 -59t-41 -86t-13.5 -102.5z" />
<glyph unicode="K" horiz-adv-x="937" d="M20 78q0 -72 44.5 -114t109.5 -42q66 0 98 33t44 82q12 45 11 100v9v38q0 38 1 74q66 -25 119 -77t105 -103t108.5 -90t127.5 -39q68 0 99 30.5t31 98.5q0 59 -26 113.5t-67 105.5t-90 98t-96 93.5t-86 92.5t-57 93q57 55 121.5 115.5t120 125t92 133t36.5 142.5 q0 82 -45 119t-123 37q-57 0 -99 -19.5t-77 -51.5t-68.5 -74t-74.5 -87h-51q-2 61 -2 121q0 61 -13.5 108.5t-47 76t-103.5 28.5q-18 0 -43 -2t-46.5 -9t-37 -23.5t-15.5 -43.5v-1292z" />
<glyph unicode="L" horiz-adv-x="962" d="M16 1241q0 -43 1 -94t1 -94v-56q0 -123 6.5 -238.5t12.5 -230t9 -231.5q1 -50 1 -102q0 -69 -2 -140q98 -51 199.5 -64.5t208.5 -13.5q63 0 148 9.5t162 36t129 77t52 131.5q0 92 -40 136.5t-100 60.5q-50 13 -106 13h-22q-68 -3 -128 -5q-15 0 -28 -1q-40 0 -70 5 q-40 6 -40 43l-4 811q0 35 -7.5 72t-23 66.5t-40 49t-61.5 19.5q-68 0 -106.5 -10t-64 -33.5t-44 -63.5t-43.5 -98v-55z" />
<glyph unicode="M" horiz-adv-x="1167" d="M20 717q0 -37 4.5 -127t8.5 -192.5t7 -192.5t5 -127q12 -41 22.5 -71t27 -49t42 -28.5t68.5 -9.5q27 0 59.5 11.5t61 32t47 50t18.5 64.5l8 653q4 -8 16.5 -26.5t27 -39t27.5 -39t19.5 -24.5t26 -16.5t25.5 -7.5q18 2 47.5 9t60.5 19t57.5 30.5t38.5 43.5q9 -32 11 -96 q1 -39 1 -82v-61v-53q0 -52 1 -108q2 -82 15 -150.5t40 -112.5t78 -44q82 0 132 49.5t77.5 120t37 150.5t9.5 139v55q-2 25 -4 75t-3 110.5t-3 125t-4.5 119t-3.5 94.5t-3 48q-6 61 -18 120.5t-40 106.5t-74 77t-117 30q-61 0 -98.5 -33t-66 -79t-55 -94t-67.5 -77 q-16 45 -46 106.5t-73 117t-97.5 94t-117.5 38.5q-27 0 -63.5 -6t-72.5 -21.5t-61.5 -40t-31.5 -59.5v-51t-1 -77t-1 -76v-52q0 -25 -1 -83t-1 -119t-1.5 -110.5t-1.5 -53.5z" />
<glyph unicode="N" horiz-adv-x="1269" d="M18 133q0 -14 1 -30.5t1 -30.5v-21q33 -25 57.5 -41t49.5 -24.5t50.5 -11.5t58.5 -3q59 0 96 38t57.5 99.5t29.5 139.5t11 154q1 51 1 99v47v27q0 52 3 91q33 -29 70 -88.5t75.5 -133t80.5 -152.5t87.5 -143.5t92.5 -106.5t96 -42q82 0 137 36t91 96.5t53.5 137 t25.5 158.5t8 162v147q0 16 -1 48t-1 34q-4 12 -9 54t-12 98.5t-14.5 119t-15.5 119t-15 97.5t-12 53q-8 12 -27.5 34.5t-45.5 43.5q-26 22 -54 38q-23 12 -43 12q-5 0 -10 -1q-53 -8 -86 -55.5t-52 -116t-27.5 -151.5t-10.5 -161.5t-2 -144.5v-102l-27 -25 q-18 45 -46.5 117t-68.5 151.5t-89.5 159.5t-104.5 144.5t-117.5 104.5t-128.5 40q-31 0 -62.5 -13.5t-57 -35t-45 -49t-27.5 -58.5q2 -78 2 -159q0 -61 -1 -123q-3 -146 -7 -292.5t-9.5 -289.5t-5.5 -274v-21z" />
<glyph unicode="O" horiz-adv-x="1142" d="M16 639q0 -125 20.5 -235.5t71 -193.5t133.5 -131t208 -48q143 0 267 73.5t214 192.5t141 269.5t51 303.5q0 137 -41 239.5t-112.5 171.5t-171 103.5t-215.5 34.5q-139 0 -246 -69.5t-177.5 -181t-106.5 -251t-36 -278.5zM451 657v25q0 49 6 98t24.5 89t52 64.5 t87.5 24.5q31 0 53 -17t35.5 -45t20.5 -59.5t7 -62.5q0 -47 -9 -97t-30.5 -91t-55.5 -69t-83 -28q-35 0 -63.5 8.5t-40.5 55.5q0 6 -1 24.5t-2 40t-1 39.5z" />
<glyph unicode="P" horiz-adv-x="1038" d="M19 432q1 -96 6.5 -190.5t17.5 -173.5q29 -41 70 -46.5t84 -5.5q133 0 183 64.5t50 200.5q0 31 -3 76.5t-7 95t-7 95.5t-3 75q90 0 177 15t163.5 50t139 93.5t105.5 144.5q4 0 9.5 18.5t10.5 42t8 43t3 21.5q2 14 2 28q0 45 -20 84q-26 51 -75.5 91t-113 70t-129 49.5 t-127 29.5t-106.5 10q-59 0 -137 -12t-147 -45q-69 -34 -114 -88q-37 -45 -37 -111q0 -13 1 -27v-67q0 -47 -1.5 -99.5t-1.5 -101.5v-65q0 -81 -1 -175v-94.5v-95.5zM379 987q0 33 14.5 52.5t39 27.5t55 10t61.5 2q29 0 34 -21.5t5 -41.5q0 -119 -109 -119q-45 0 -72.5 21.5 t-27.5 68.5z" />
<glyph unicode="Q" horiz-adv-x="1083" d="M18 745l2 5q-1 -16 -1 -32q0 -63 13 -127q15 -81 44.5 -157t74 -142.5t101.5 -115.5q23 -18 44 -25.5t43.5 -9.5t46.5 -6t50 -16q55 -27 82 -75t50.5 -96t59.5 -84t109 -36q6 0 19.5 1t28 2t27.5 2t17 1q39 29 49 79q9 42 9 87v18q-2 54 -7 104q-3 22 -3 40q0 24 4 41 q12 57 31.5 95t40 69.5t41 61.5t37 70t26.5 95t10 137q0 39 -6 103.5t-18.5 138.5t-33 150.5t-50 139t-68.5 104.5t-90 48q-94 11 -174 11q-63 0 -117 -7q-121 -16 -202 -54t-130 -92t-76.5 -108.5t-40 -104.5t-20.5 -81q-6 0 -10 -39t-6 -83t-4.5 -80t-2.5 -32zM432 653 q0 33 2 90.5t13.5 112.5t35 96t64.5 41q47 0 82 -40t56.5 -97t31.5 -118.5t10 -106.5q0 -35 -6 -70t-21.5 -63.5t-40 -47t-63.5 -18.5q-47 0 -79 17.5t-50 48t-26.5 70.5t-8.5 85z" />
<glyph unicode="R" horiz-adv-x="1122" d="M27 158q0 -55 25.5 -91t65.5 -56.5t89 -29t94 -8.5q43 0 70.5 32t43 82t22.5 112.5t10.5 122t4.5 109.5t5 77q37 -8 70.5 -46t65.5 -91.5t63.5 -113.5t65.5 -110.5t70.5 -84t77.5 -33.5q59 0 116.5 17t100.5 60q13 10 15 29q1 9 1 17q0 10 -2 18q-3 16 -7 28.5t-7 10.5 q-2 4 -9 15.5t-15 23.5t-15.5 22.5t-11.5 14.5q-8 8 -31.5 40.5t-55 78t-66.5 95.5t-67 94t-56.5 75.5t-32.5 40.5q61 35 110.5 66.5t84.5 73.5q34 41 52 99q17 52 17 127v17q-2 96 -49 164.5t-122 112.5t-165 64.5t-178 20.5q-47 0 -110.5 -6t-125 -25.5t-109.5 -55.5 t-66 -93q-2 -115 -8.5 -261.5t-13.5 -298t-12 -296.5t-5 -260zM404 1021q4 38 24.5 68.5t69.5 30.5q55 0 86.5 -28.5t31.5 -61.5q0 -63 -51 -86.5t-157 -23.5l-4 32q-3 16 -2 35q0 16 2 34z" />
<glyph unicode="S" horiz-adv-x="870" d="M27 965q0 -96 24.5 -165t65.5 -121t94 -93t112.5 -80t118 -81t111.5 -95q-74 -6 -144 -6h-35q-23 1 -45 1q-60 -1 -112 -5q-70 -6 -115 -23.5t-51 -65.5l10 -75q16 -47 55.5 -78t86.5 -48.5t99 -24.5t95 -7q92 0 172 23.5t138.5 71.5t91 119t32.5 165q0 59 -34.5 112.5 t-87 102.5t-112.5 92t-112.5 82t-87.5 72.5t-35 64.5q-2 4 -6 23.5t-1 44t28 26.5q31 45 78 63.5t100 20.5q13 1 27 1q40 0 82 -5q56 -6 102 -10q45 27 61.5 44t16.5 54q0 55 -20.5 102.5t-54.5 83t-81 56t-98 21.5q-109 0 -211 -28t-182 -85.5t-128 -144.5t-48 -205z" />
<glyph unicode="T" horiz-adv-x="1142" d="M16 1204q0 -53 28 -82.5t71 -44t91 -18.5t91 -9.5t70.5 -15.5t27.5 -35v-895q0 -29 11.5 -54t29 -44.5t39 -32t43.5 -12.5q57 0 88 12.5t48.5 38t29.5 63.5t33 89v49v84v98v101q0 47 1 83.5t1 51.5q0 20 3 81.5t7 126t8 117t6 54.5l25 24q18 1 42 1t54 -1h22q48 0 95 6 q57 8 99 31t42 74q0 78 -35.5 129t-93 83t-129.5 47q-71 16 -144 22q-63 6 -122 5h-18q-66 -1 -113 -1h-59q-41 0 -88.5 -1.5t-90.5 -1.5h-57q-39 -10 -68.5 -32.5t-49 -53t-29 -65.5t-9.5 -72z" />
<glyph unicode="U" horiz-adv-x="989" d="M16 1284l4 -1079q0 -53 32 -90t80 -59.5t104.5 -35t105.5 -17.5t81 -6t34 -1q117 0 200.5 54t141 142.5t91.5 201t52.5 231t23.5 232.5t5 202q0 47 -5 113.5t-25.5 128t-62.5 105.5t-114 44q-63 0 -95 -45t-44.5 -118t-13.5 -166t-1 -191q0 -96 -6 -188.5t-32 -163.5 q-26 -72 -76 -114q-46 -38 -123 -38h-15q0 57 4 144t6.5 179.5t5.5 178.5t3 145q0 45 -2 79t-7.5 67.5t-15.5 72.5t-28 94q-12 45 -45 49.5t-66 4.5q-35 0 -69.5 -9.5t-62.5 -28t-46.5 -48t-18.5 -70.5z" />
<glyph unicode="V" horiz-adv-x="1208" d="M20 1272q0 -59 20.5 -136t51.5 -156t63.5 -150.5t57.5 -120.5q12 -25 32.5 -77t44 -120t50.5 -142.5t51.5 -141t46 -119.5t33.5 -76q27 -31 75 -40t79 -9q6 0 20 3t30.5 8t31 8t20.5 3q92 109 175 243t147.5 283.5t102.5 310.5t38 326q0 51 -1 94.5t-14.5 75t-43 49 t-84.5 17.5q-37 0 -69 -20.5t-58.5 -52.5t-46 -67.5t-29.5 -66.5q-6 -14 -20.5 -70.5t-35 -134.5t-44 -166t-43 -165.5t-35 -134t-19.5 -70.5h-24q-25 53 -46.5 144t-45 197.5t-52 215t-68.5 196.5t-94.5 144.5t-128.5 56.5q-29 0 -58.5 -10t-54 -28.5t-40 -44t-15.5 -56.5z " />
<glyph unicode="W" horiz-adv-x="1431" d="M16 1188q0 -37 9.5 -109.5t28 -165t43 -198t55 -210t67.5 -199.5t77 -169t83 -118t88 -44t84 42t69.5 93.5t53 93.5t37.5 42q4 0 7 -1l3 -1q23 -27 41 -72t37.5 -89t46 -76t67.5 -32q2 0 7 1l4 1q76 37 128 107t92 154t72.5 171t69.5 158q10 29 23.5 78t27 107.5 t27.5 121t24.5 122t16.5 109.5t6 81v153q-12 53 -46 92t-81 39q-59 0 -103 -58t-77 -149.5t-58.5 -203t-48 -218t-45 -195.5t-47.5 -136q-16 25 -38.5 55.5t-47 58t-49.5 47t-45 19.5q-25 0 -53.5 -22.5t-56 -53t-53 -61.5t-44.5 -49q-14 27 -30.5 106.5t-37 183t-46 217 t-57.5 209t-70.5 157t-88.5 61.5q-53 0 -85.5 -18.5t-52 -52.5t-27 -79t-7.5 -100z" />
<glyph unicode="X" horiz-adv-x="1351" d="M8 154q0 -72 49 -112t121 -40q68 0 128.5 49t115.5 117t106.5 135.5t100.5 104.5q37 -45 93 -113t122.5 -131.5t139.5 -108.5t140 -45q33 0 60.5 4t47 15.5t30 33t10.5 56.5q0 18 -19.5 60t-51.5 93.5t-70.5 107.5t-76.5 105.5t-70 85t-50 47.5q33 25 76 70t87 101.5 t87 121t75.5 128t53 123t20.5 106.5q0 68 -39 124t-114 56q-43 0 -88 -31t-88 -79t-85 -106t-81 -113.5t-74 -101.5t-66 -71q-53 82 -110.5 166t-125 151.5t-149.5 110.5t-184 43q-23 0 -40 -14t-29.5 -33.5t-18.5 -42t-6 -39.5q0 -45 20.5 -100t52 -112.5t71.5 -117 t80 -112.5t75 -100.5t59 -79.5q-49 -25 -114.5 -86.5t-126 -136t-102.5 -152.5t-42 -137z" />
<glyph unicode="Y" horiz-adv-x="1142" d="M20 1214q0 -86 48.5 -161.5t119 -142t148.5 -124t137 -108.5v-51l-346 -500q0 -2 -1 -6t-1 -6q0 -37 20.5 -59.5t49 -37t62.5 -19.5t62 -5q39 0 95.5 47t121 125t133 180.5t134 213t124 220t103.5 204.5t70.5 168t25.5 105q0 29 -10 60t-28.5 56.5t-45 42t-59.5 16.5 q-84 0 -137 -57.5t-88 -137.5t-61.5 -166t-57.5 -145h-25q-8 12 -33.5 47t-60.5 81t-73.5 96t-73.5 96t-60.5 80t-33.5 48q-18 27 -47 31t-62 4q-43 0 -72.5 -16.5t-46 -43t-24 -62.5t-7.5 -73z" />
<glyph unicode="Z" horiz-adv-x="1269" d="M16 233q0 -70 19.5 -114.5t55.5 -70t87 -36t115 -10.5h18q14 0 27.5 1t23.5 1h13q27 2 83 5t126.5 8.5t148.5 11.5t148.5 11t127 9t83.5 6q25 6 51 17.5t48.5 33t38 53t15.5 74.5q0 20 -11 48t-29.5 52.5t-41 40t-47.5 13.5l-620 -57q47 43 117.5 99t148.5 122.5 t154.5 139.5t139 150t100.5 152.5t38 149.5q0 78 -29.5 129t-80 82.5t-115 47t-133 22t-135 7.5t-121.5 5q-4 0 -28 1t-54.5 2t-61.5 1h-49h-39q-27 0 -57.5 -1t-58 -2t-37.5 -1q-39 -14 -60.5 -34t-33 -43.5t-13.5 -52t-2 -59.5q0 -55 43 -87t109.5 -48t146.5 -21.5 t154.5 -8.5t133 -7t83.5 -18q-27 -61 -91.5 -131t-146.5 -143.5t-171 -148.5t-161.5 -145.5t-121 -136.5t-48.5 -119z" />
<glyph unicode="[" horiz-adv-x="587" d="M20 948q0 -92 1.5 -198.5t4.5 -217t8 -220t15 -203.5q16 -25 46 -45.5t66 -34t72.5 -21.5t65.5 -8q86 0 138 9t82 33t40 63.5t10 99.5q0 43 -32.5 59.5t-78.5 18.5t-96.5 -3.5t-82.5 -5.5l28 955q31 2 74 -3t82 -1t66.5 25.5t27.5 74.5q0 104 -50 145t-151 41 q-59 0 -105 -3t-81 -20.5t-60.5 -54t-43.5 -104.5q-6 -23 -14.5 -73t-14.5 -108t-11.5 -113.5t-5.5 -86.5z" />
<glyph unicode="\" horiz-adv-x="831" d="M19 1327q1 -31 20 -72l563 -1149q41 -78 95.5 -91t95.5 8q27 16 24.5 64t-27 120t-66.5 162t-93 192q-23 47 -67 135t-97 192.5t-111.5 211t-108.5 190.5t-87 131t-49 31q-25 -16 -46.5 -32.5t-34 -39t-11.5 -53.5z" />
<glyph unicode="]" horiz-adv-x="577" d="M10 215q0 43 33 59.5t79 18.5t96 -3t83 -5l-29 950q-31 2 -73.5 -3t-81.5 -1t-66.5 25.5t-27.5 74.5q0 104 50 145.5t150 41.5q59 0 104.5 -3.5t80 -20.5t60.5 -54t44 -105q6 -23 14.5 -73t14.5 -108t11 -112.5t5 -85.5q0 -92 -1 -198.5t-4 -217t-9.5 -219t-14.5 -202.5 q-16 -25 -45.5 -45.5t-64.5 -33.5t-72 -21.5t-65 -8.5q-86 0 -138.5 9.5t-82 33t-40 63.5t-10.5 99z" />
<glyph unicode="^" horiz-adv-x="786" d="M25 737q0 -8 10 -27.5t14 -23.5q8 0 32.5 -1t33.5 -1q45 0 78.5 12.5t64.5 33t59.5 49t65.5 61.5q33 8 72 -15.5t75.5 -56.5t66.5 -61.5t46 -26.5l68 6q20 2 31.5 24.5t15.5 51.5t5 54.5t1 31.5q0 59 -31 110.5t-79 88t-106.5 58t-113.5 21.5q-68 0 -139.5 -33.5 t-132 -89t-99 -125t-38.5 -141.5z" />
<glyph unicode="_" horiz-adv-x="1048" d="M18 45q0 -39 81 -52t223 -13h108q68 0 146.5 1t158.5 4t144.5 10t105.5 19.5t41 30.5q0 25 -47 38t-117.5 19.5t-155.5 8.5t-159 2q-66 0 -157 -2t-174 -8.5t-140.5 -19.5t-57.5 -38z" />
<glyph unicode="`" horiz-adv-x="604" d="M23 1243q0 18 7 41t21.5 41t31.5 31.5t40 13.5q84 0 165 -48t144.5 -121t102 -158t38.5 -160q-92 0 -162.5 18.5t-130 54t-114.5 89t-117 122.5q-18 18 -22 36t-4 40z" />
<glyph unicode="a" horiz-adv-x="593" d="M18 139q0 -49 19.5 -74.5t75.5 -25.5q68 0 94 36t36.5 79t16.5 78.5t37 35.5q2 0 5 -1t5 -1q4 -12 18.5 -41.5t31 -62.5t31.5 -61.5t22 -39.5q23 -35 37 -49t42 -14q37 0 54.5 15.5t24.5 40t7 52.5v56q0 31 -7 87t-21.5 122.5t-36 135t-50 125t-64.5 92.5t-79 36 q-4 0 -15 -1t-15 -1q-70 -51 -120 -123t-83 -154t-49.5 -170t-16.5 -172zM213 401q0 18 2 41t9 43.5t22.5 35t40.5 14.5q31 0 37 -17.5t6 -46.5t-7.5 -43t-21.5 -20.5t-37 -6.5h-51z" />
<glyph unicode="b" horiz-adv-x="552" d="M13 320q-1 -22 -1 -43q0 -61 10 -115q14 -72 60.5 -118t150.5 -46q55 0 109.5 7t96.5 30.5t69 65.5t27 112q0 72 -37 123t-88 94q33 37 38 63.5t5 67.5q0 45 -19.5 79t-51.5 55.5t-73 32.5t-84 11q-55 0 -112.5 -18.5t-92.5 -65.5v-32q0 -23 -1 -49.5t-1 -51.5v-30 q0 -84 -5 -172zM162 532q0 41 34.5 57.5t69.5 16.5v-121q-12 0 -29.5 1t-34 5.5t-28.5 13.5t-12 27zM203 217q0 29 16.5 50.5t46.5 21.5q31 0 47.5 -21.5t16.5 -50.5q0 -37 -14.5 -46t-49.5 -9t-49 9t-14 46z" />
<glyph unicode="c" horiz-adv-x="532" d="M20 317q0 -150 70 -234.5t217 -84.5q39 0 76 9t66.5 28.5t47 51.5t17.5 77q0 41 -11 52t-50 11q-41 0 -75 -12t-75 -12q-53 0 -76.5 39t-23.5 86q0 68 21.5 99.5t54 44.5t69.5 14t70 6.5t54.5 22.5t21.5 63q0 37 -21.5 63.5t-53.5 43.5t-69 25.5t-67 8.5q-66 0 -115 -44 t-82 -106.5t-49.5 -132.5t-16.5 -119z" />
<glyph unicode="d" d="M14 292q-1 -23 -1 -45q1 -43 5 -85q8 -66 32 -115t81 -49q63 0 125.5 25.5t110 68.5t77 101.5t29.5 123.5q0 63 -18.5 122t-55.5 103t-90 69.5t-123 25.5q-43 0 -87 -9.5t-79 -33.5v-41t-1 -61.5t-1 -61.5v-41q0 -31 -4 -97zM203 285v63q0 10 1 41t1 41q35 -23 59.5 -44 t24.5 -56q0 -31 -20.5 -58.5t-43.5 -46.5q-23 23 -22 60z" />
<glyph unicode="e" d="M18 324q0 -55 3.5 -113.5t21.5 -106t57 -77t109 -29.5q31 0 76 6t87 21.5t71.5 41t29.5 66.5q0 45 -25.5 59.5t-64.5 15.5q-49 0 -84 -9t-88 -9q0 37 16.5 53.5t41 22.5t53 7t53 8.5t41 25t16.5 58.5q0 49 -19.5 57t-74.5 8h-10l-103 -20q-4 0 -17 1t-18 1q0 2 -3 13 t-3 24q0 12 4.5 22t16.5 10h205q10 0 15 10.5t6 23.5t1 24v14q0 37 -18.5 54.5t-45 23.5t-59.5 6h-59q-68 0 -113 -25.5t-71.5 -68.5t-37 -100.5t-10.5 -118.5z" />
<glyph unicode="f" d="M20 61q0 -39 29 -51t57 -12q12 0 28 1t29 7t22.5 19.5t9.5 35.5v236h174q2 0 9 12.5t11 18.5t11.5 29.5t9.5 31.5v10v11l-21 41q-4 8 -12 19l-8 11h-160l-3 11q-3 12 -1 20t10 19.5t10 11.5h205q14 0 22.5 9t13.5 21.5t6 25.5t1 24q0 49 -31.5 76.5t-77 40t-95.5 15.5 t-85 3q-20 0 -47.5 -10.5t-53.5 -26.5t-44.5 -39t-18.5 -47v-574z" />
<glyph unicode="g" horiz-adv-x="512" d="M20 287q0 -61 16.5 -113.5t49.5 -91.5t81 -61.5t109 -22.5q104 0 161 69.5t57 168.5q0 72 -37 103.5t-109 31.5q-20 0 -39.5 -1t-35 -6.5t-24.5 -18.5t-9 -38q0 -12 2 -26.5t9 -24.5t20.5 -15t35.5 5q6 -33 -14.5 -39t-36.5 -6q-43 0 -58.5 34.5t-15.5 71.5q0 70 42 106 t93.5 58.5t93.5 43t42 58.5q0 57 -43 80t-93 23q-86 0 -142 -32t-91 -85t-49.5 -123.5t-14.5 -148.5z" />
<glyph unicode="h" horiz-adv-x="593" d="M20 41q0 -12 13.5 -21.5t31 -13.5t34 -6t24.5 -2q51 0 63.5 36t17.5 79t18.5 78.5t64.5 35.5q27 0 39 -15t15 -38.5t5 -50.5t9 -50.5t24.5 -39t56.5 -15.5q55 0 84 27t41 68t13 89t1 93q-1 49 3 109q1 16 1 31q-1 42 -7 80q-10 52 -38 87t-94 35h-14q-12 0 -27.5 -1 t-28 -6t-12.5 -16v-204q0 -10 -8 -14.5t-18 -6.5t-21 -2h-14q-14 0 -30.5 2t-20.5 21q3 28 3 63v18q-1 46 -13.5 88t-41 70.5t-81.5 28.5q-16 0 -33 -13.5t-30 -34t-21.5 -42t-8.5 -35.5v-512z" />
<glyph unicode="i" horiz-adv-x="266" d="M20 82q0 -47 27 -65.5t68 -18.5q43 0 68.5 19.5t39 49t18.5 65.5t5 69q0 16 1 58q0 21 0.5 45t-0.5 50q-1 54 -6 111t-19.5 104t-38 78t-60.5 31q-20 0 -38.5 -12.5t-33 -32t-23 -41t-8.5 -39.5v-471z" />
<glyph unicode="j" d="M18 154q0 -90 41 -123t123 -33q39 0 84 6t85 22.5t72 45t48 71.5v37q0 29 1 60.5t1 58.5v39q0 20 4 72q2 24 2 48q0 29 -3 60q-5 55 -26.5 97t-70.5 42q-14 0 -31.5 -3t-33 -10t-27 -19.5t-11.5 -30.5v-348q0 -4 -19 -19.5t-32 -21.5l-4 -1t-6 -1q-18 0 -26.5 13 t-16.5 29.5t-18.5 30t-30.5 13.5q-55 0 -80 -43t-25 -92z" />
<glyph unicode="k" horiz-adv-x="471" d="M20 61q0 -47 27 -56t55 -9q29 0 44.5 14.5t22.5 36t9 47t6 49.5q25 -12 49.5 -36.5l49 -49t51 -42t55.5 -17.5q27 0 45.5 18.5t18.5 44.5q0 35 -22.5 72t-52.5 71t-61.5 60.5t-50.5 42.5q29 16 58.5 40t53 52.5t38 62.5t14.5 70q0 20 -3 31.5t-17 30.5q-6 2 -25.5 4 t-26.5 2q-59 0 -96 -24.5t-78 -83.5q0 25 -2 53t-11 53t-28.5 42t-50.5 17q-18 0 -45 -7t-27 -36v-553z" />
<glyph unicode="l" horiz-adv-x="471" d="M20 41q0 -10 28 -17.5t62.5 -13.5t66.5 -9t42 -3q31 0 71 8t75.5 26.5t61.5 46t26 64.5q0 8 -1 24.5t-5.5 31t-12.5 26t-24 11.5h-195v419q0 18 -12.5 26.5t-28.5 12.5t-35 4h-24q-14 0 -30.5 -2t-31 -8t-24 -19.5t-9.5 -33.5v-594z" />
<glyph unicode="m" horiz-adv-x="573" d="M20 61l21 -61q2 -2 18.5 -5t24.5 -3q51 0 76.5 29.5t35.5 72.5q10 39 10 82v8q-1 47 -1 82q-6 -35 12.5 -39t36.5 -4q27 0 52.5 9.5t41.5 33.5q-2 -26 -6 -66q-2 -18 -2 -36q0 -23 3 -45q5 -41 24.5 -71t62.5 -30q39 0 63.5 25t37.5 59.5t17.5 73.5t4.5 68q0 30 1 96v14 q0 58 -8 118q-9 66 -36 116.5t-82 50.5q-53 0 -79.5 -23.5t-61.5 -83.5q-2 0 -5 -1t-6 -1q-2 0 -6 1l-4 1q-8 8 -16 29t-18.5 41.5t-21.5 36.5t-26 16h-164v-594z" />
<glyph unicode="n" horiz-adv-x="634" d="M18 76q0 -47 36 -62.5t77 -15.5q37 0 58.5 25.5t34 62.5t18.5 77t12 70l135 -192l13 -1q14 -1 22 -1q61 0 99 31.5t58.5 80t26.5 104.5t6 105q0 29 -6 72t-21.5 84t-41 70.5t-64.5 29.5q-37 0 -57.5 -29.5t-29.5 -70.5t-9 -84q0 -41 2 -67q-39 27 -62.5 71.5t-47 89.5 t-55.5 78t-89 33q-43 0 -59.5 -11.5t-32.5 -52.5q1 -29 1 -56q0 -41 -2 -78q-3 -62 -7 -120.5t-9.5 -117.5t-5.5 -125z" />
<glyph unicode="o" horiz-adv-x="573" d="M18 256q0 -51 13.5 -98t40 -82t67.5 -56.5t99 -21.5q68 0 126 32.5t101 85t66.5 117t23.5 125.5q0 119 -71.5 178.5t-186.5 59.5q-68 0 -120 -29.5t-88 -78t-53.5 -110t-17.5 -122.5zM244 287v39q0 20 5 35.5t18.5 23.5t39.5 8q41 0 52.5 -19.5t11.5 -56.5 q0 -16 -6.5 -36.5t-16.5 -38t-25.5 -28.5t-35.5 -11q-39 0 -41 25.5t-2 58.5z" />
<glyph unicode="p" horiz-adv-x="495" d="M18 334q0 -82 1.5 -149.5t21.5 -147.5q18 -16 33.5 -19.5t38.5 -3.5q45 0 66.5 22.5t28.5 57.5q4 22 4 46q0 14 -1 28q-4 39 -6 74q35 0 79 12t83 34.5t67.5 54.5t34.5 73q8 0 10 9t2 19q0 12 -1 23.5t-1 17.5q-20 33 -41.5 59.5t-49.5 46t-66.5 30t-96.5 10.5 q-35 0 -69.5 -7.5t-64.5 -23.5t-49 -44t-22 -69v-30q0 -23 -1 -47.5t-1 -47.5v-28zM197 467h94q0 -12 -1 -26.5t-6 -27t-13.5 -21.5t-22.5 -9q-37 0 -44 25.5t-7 58.5z" />
<glyph unicode="q" horiz-adv-x="518" d="M10 408q8 -86 34 -133.5t62.5 -81t80.5 -66.5t89 -88q4 -4 11.5 -12.5t9.5 -8.5q16 -2 44 -4t47.5 -3t21.5 -1v172q20 6 37.5 30t29.5 52.5t18.5 56t6.5 44.5q0 23 -6.5 63.5t-20.5 81.5t-37.5 71.5t-58.5 30.5h-225q-18 0 -39 -13t-37.5 -31.5t-29.5 -40t-17 -38.5z M213 367v28q0 18 3 34.5t12.5 29t27.5 12.5q20 0 36.5 -13.5t26 -31.5t14.5 -39.5t5 -40.5q0 -27 -14.5 -54.5t-47.5 -27.5q-23 0 -36 10.5t-19 25.5t-7 33t-1 34z" />
<glyph unicode="r" horiz-adv-x="538" d="M18 123q0 -10 1 -41t1 -41q10 -35 38 -40t57 -5q67 0 101 51q30 46 30 103v14q27 -6 45 -23.5t35.5 -36t37 -32t50.5 -13.5q10 0 31.5 1t25.5 1t20.5 10.5t20.5 10.5q8 0 11 10q2 6 2 13q0 5 -1 9q-2 12 -5 21.5t-7 7.5q-2 -2 -8 6.5t-13.5 19.5t-12.5 22.5t-7 13.5 l-82 82q20 25 51 64.5t31 78.5q0 51 -21.5 84t-55.5 51.5t-76 24.5t-82 6q-18 0 -47 1h-10q-24 0 -46 -4q-27 -5 -47 -18.5t-25 -42.5q-2 -10 -5 -45.5t-6 -76.5t-6 -78t-3 -45q0 -4 -4 -15.5t-7 -26t-6.5 -26.5t-3.5 -14q0 -4 -1 -35t-1 -47zM219 365q0 14 3.5 36.5 t23.5 28.5q4 -2 11 -9t9 -11l1 -4q1 -5 1 -7q0 -20 -16 -27t-33 -7z" />
<glyph unicode="s" horiz-adv-x="444" d="M14 92q14 0 35 -10t42.5 -21.5t44 -21.5t44.5 -10q92 0 147.5 38.5t55.5 137.5q0 43 -18.5 65.5t-44 37t-53 28.5t-48.5 43q6 25 23.5 34t40 10t48 -2t46 -2t34 11t13.5 39q0 35 -16.5 66.5t-45.5 48.5q-10 0 -40.5 1t-40.5 1q-104 0 -176 -54.5t-72 -164.5 q0 -45 24.5 -63.5t55 -31t55.5 -29t25 -59.5q-6 0 -19.5 2t-29 4.5t-29 4.5t-19.5 0q-4 0 -15 -7.5t-25.5 -15.5t-27 -13t-14.5 -5v-62z" />
<glyph unicode="t" horiz-adv-x="552" d="M18 461q0 -31 22.5 -45.5t50.5 -22.5t50.5 -16t22.5 -29v-348h164q2 0 9 8t11 12q10 12 25.5 36t15.5 26v33v59v57v35q4 53 16.5 79t29 34t33.5 7t32.5 0t25 11.5t9.5 42.5q0 53 -36 81t-87.5 40t-105.5 13t-91 1h-22t-34 -1t-34 -1h-23q-84 -29 -84 -112z" />
<glyph unicode="u" horiz-adv-x="471" d="M20 102q0 -23 17.5 -41t42 -32.5t50.5 -21.5t44 -7q39 0 88 22.5t90 57.5t70 79t29 87v307q0 14 -10.5 29.5t-25 28t-29.5 19.5t-28 7q-2 0 -6 -1l-4 -1q-8 -4 -31.5 -19.5t-29.5 -21.5q-2 -20 -3 -79.5t-7.5 -123t-22.5 -113t-49 -49.5q-16 53 -17.5 110.5t-1.5 113.5 q0 23 -2 54.5t-11 60t-25.5 49t-45.5 20.5q-6 0 -20 -3t-27.5 -8t-24 -13.5t-10.5 -18.5v-492z" />
<glyph unicode="v" horiz-adv-x="634" d="M18 575q0 -68 29 -146.5t71 -157t88 -149.5t81 -122q6 -2 29.5 -4t31.5 -2q55 0 96 28.5t72 75.5t49.5 105.5t30.5 119t16 116t4 96.5q0 47 -19 74.5t-69 27.5q-51 0 -75.5 -32t-39 -75t-26.5 -89t-39 -72q-14 37 -36.5 83t-53.5 87t-69.5 69.5t-86.5 28.5 q-31 0 -57.5 -13.5t-26.5 -48.5z" />
<glyph unicode="w" horiz-adv-x="798" d="M16 526q0 -20 10.5 -67t29 -106.5t42 -122t52 -113.5t58.5 -85t58 -34q25 0 41.5 13.5t30.5 29.5t28.5 29.5t32.5 13.5q2 0 7 -1l4 -1q25 -18 50 -50t62 -32q53 0 100.5 53t83 125t56 145.5t20.5 116.5v23q0 16 -1 33.5t-2 34t-1 22.5q-18 18 -39.5 20t-46.5 2 q-55 0 -78.5 -34.5t-38 -79.5t-30 -90t-53.5 -64q-4 -2 -20.5 9.5t-20.5 11.5q-2 0 -13.5 1t-17.5 1q-4 0 -16.5 -1t-14.5 -1t-11 -4.5t-19.5 -7.5t-19.5 -6t-11 -3q-20 0 -38 51.5t-41.5 114t-55 113.5t-80.5 51t-73 -34t-24 -77z" />
<glyph unicode="x" horiz-adv-x="696" d="M18 113q0 -47 30 -61.5t71 -14.5q8 0 25.5 1t19.5 3l164 123q8 -8 30.5 -35t52 -56.5t62.5 -52t57 -22.5q35 0 50.5 13.5t15.5 47.5q0 33 -11.5 62t-28.5 55.5t-34.5 53t-29.5 57.5q27 18 59.5 42.5t61 55.5t47 65.5t18.5 71.5q0 41 -20.5 67.5t-63.5 26.5 q-41 0 -68.5 -22.5t-51 -50t-48.5 -50t-57 -22.5q-18 0 -35 28.5t-46.5 63.5t-80.5 63.5t-139 28.5q0 -41 21.5 -97t48 -108.5t48 -93.5t19.5 -49q0 -4 -9.5 -10t-20.5 -12t-20.5 -11.5t-11.5 -7.5q-8 -6 -25.5 -23.5l-37 -37l-36.5 -36.5t-24 -26q0 -4 -1 -15t-1 -15z" />
<glyph unicode="y" horiz-adv-x="552" d="M18 573q0 -47 11.5 -77.5t32 -56t51 -51.5t71.5 -60v-11q0 -37 -16 -66.5t-35.5 -57t-36 -57t-16.5 -66.5q0 -35 19.5 -53.5t54.5 -18.5q4 0 15 1t15 1q59 53 122 120.5t113 144.5t83 160t33 169q0 49 -17.5 56t-66.5 7q-45 0 -68 -17t-38 -43t-31.5 -54.5t-47.5 -50.5 q-16 27 -31.5 56.5t-36 54t-45 39.5t-59.5 15q-29 0 -43 -2t-22.5 -11t-9.5 -25.5t-1 -45.5z" />
<glyph unicode="z" horiz-adv-x="593" d="M14 82q0 -8 2 -32t4 -30q10 -4 41 -11t41 -9h9h12q23 0 78 3t117.5 6t116.5 6t77 5q39 18 51 38t12 55q0 8 -1 20t-6 23.5t-13 19.5t-23 8h-204q39 33 80 76t73.5 91t53 100.5t20.5 107.5q0 59 -36 86t-87 34q-32 4 -67 4q-21 0 -41 -1q-56 -4 -99 -4h-28t-44 -1t-44 -1 h-27q-35 -10 -39 -32.5t-4 -49.5q0 -10 1 -25.5t5 -30t12.5 -25.5t24.5 -11h266q-18 -68 -73.5 -116t-113 -93t-102.5 -93t-45 -118z" />
<glyph unicode="{" horiz-adv-x="739" d="M18 778q0 -37 13.5 -55t35 -30.5t50 -22t57.5 -27.5q8 -55 14.5 -123.5t16.5 -139.5t28.5 -137.5t49 -118.5t78 -84t116.5 -32q43 0 84 5t74 22.5t52.5 52.5t17.5 94q-2 66 -24 91.5t-52.5 33.5t-66.5 11.5t-65.5 22.5t-50 67.5t-20.5 148.5q0 25 -2 77t-3 118.5t1 141.5 t10 141.5t23.5 119.5t40.5 80q27 27 65 27q41 0 78 4t62.5 30.5t25.5 106.5q0 51 -16.5 82t-43 47t-61.5 20t-71 4q-115 0 -171.5 -59t-83 -146t-39 -188.5t-36.5 -183.5q-12 -39 -43 -55.5t-62.5 -29.5t-56.5 -36.5t-25 -79.5z" />
<glyph unicode="|" horiz-adv-x="251" d="M18 1434l2 -1268q0 -86 41 -125t84 -39q31 0 47.5 43t24.5 117t10 172t2 211q0 51 -1 148.5t-3 213t-7 236.5t-13 217t-20.5 155.5t-28.5 51.5q-29 0 -53.5 -4t-43 -18.5t-30 -40t-11.5 -70.5z" />
<glyph unicode="}" horiz-adv-x="743" d="M14 1409q0 51 16.5 82t43 47t61.5 20.5t72 4.5q76 0 126 -28t81.5 -74t48 -105.5t28 -124t21.5 -129t27 -119.5q12 -39 42.5 -55.5t62.5 -29.5t56.5 -36.5t24.5 -79.5q0 -37 -13.5 -55t-35 -30.5t-50 -22t-57.5 -27.5q-8 -55 -14 -124.5t-16.5 -140.5t-28.5 -137.5 t-50 -118.5t-79 -84t-117 -32q-43 0 -84 5t-73.5 22.5t-52 52.5t-17.5 94q2 66 23.5 91.5t52 34.5t66.5 11.5t65.5 23t50 68.5t20.5 148q0 25 2 77t3.5 118.5t-1 141.5t-10.5 142.5t-23.5 120.5t-39.5 80q-29 27 -68 27t-75.5 4t-62.5 29.5t-26 107.5z" />
<glyph unicode="~" horiz-adv-x="856" d="M31 684q0 -16 1 -34.5t2 -35t1 -22.5q16 -37 37.5 -46t52.5 -9q29 0 53.5 17t45 42t38 52.5t29.5 45.5q2 0 6 1t6 1q33 0 49.5 -17t32.5 -37.5t44 -38t85 -17.5q61 0 117.5 15t100.5 47t70.5 82t26.5 118q0 18 -3 40.5t-11 42t-23.5 33t-39.5 13.5q-37 0 -65 -17.5 t-52.5 -37t-51 -37t-63.5 -17.5q-43 0 -71.5 21.5t-58.5 46.5t-68.5 46.5t-100.5 21.5q-51 0 -87 -32t-59.5 -78t-33.5 -97.5t-10 -89.5v-23z" />
<glyph horiz-adv-x="1179" d="M14 328q0 -2 1 -6l1 -5q35 -45 60.5 -63t52.5 -25.5t57.5 -9.5t75.5 -14q27 -6 44.5 -25.5t33.5 -45t36.5 -52.5t54.5 -50.5t87 -37.5t133 -14q63 0 145.5 7t158 31.5t132 74.5t70.5 136q2 18 -10 35t-32.5 29t-43 19t-37.5 7q-23 0 -43 -7t-39.5 -16t-40 -16.5 t-41.5 -7.5h-14t-12 2q-12 0 -44 3.5t-68 6.5t-67.5 6t-43.5 5q23 4 70.5 17.5t97 35t86 53t36.5 72.5q0 8 -3 22.5t-9 30t-14 26.5t-19 11h-313q31 45 90 56.5t118.5 20.5t104.5 35.5t45 102.5q0 37 -22.5 58.5t-57 31t-76.5 11.5t-82 -1.5t-71 -6.5t-45 -3 q0 111 72.5 171.5t181.5 60.5q53 0 106.5 -11.5t108.5 -11.5q20 0 44 2t43.5 9.5t31.5 22.5t12 44q0 74 -44 116t-107.5 64.5t-132 28.5t-119.5 6q-117 0 -207 -49t-152.5 -129t-95.5 -180.5t-37 -200.5q-33 -14 -67.5 -31.5t-64.5 -42t-49.5 -55.5t-19.5 -74q0 -31 27 -48 t61.5 -26.5t67.5 -11.5t45 -4v-45q-25 -2 -66.5 -9t-81.5 -22.5t-70 -43t-30 -70.5z" />
<glyph unicode="&#xa1;" horiz-adv-x="526" d="M27 -74q0 -35 20.5 -57.5t49 -35.5t60 -18t54.5 -5q14 0 45 6t63.5 15t58 22.5t32.5 25.5q47 236 68.5 480.5t21.5 484.5q0 76 -33 106.5t-109 30.5q-70 0 -130 -29.5t-105 -79t-70.5 -115t-25.5 -139.5v-692zM137 1210q0 -59 46 -91t100 -32q45 0 84 9.5t68.5 31 t47 54.5t17.5 80q0 145 -150 145q-90 0 -151.5 -52t-61.5 -145z" />
<glyph unicode="&#xa5;" horiz-adv-x="1114" d="M0 670q0 -33 20.5 -55.5t50 -37t64.5 -20.5t64 -6q47 0 91 10t91 10q23 0 30 -14t7 -35v-10q-25 -2 -78 -4t-107.5 -13.5t-94.5 -37t-40 -74.5t40 -67.5t81 -22.5q10 0 39 -1t59 -1q33 0 62 1t39 1q2 -43 3 -91t13 -90t40 -70t83 -28q47 0 78 22.5t49 57.5t24.5 77 t6.5 83q12 2 42.5 7t66.5 11.5t67 11.5t43 9q31 8 64.5 41t33.5 69v9q-4 10 -14 28.5t-22.5 37t-25 31.5t-18.5 13h-237l20 29q29 2 88.5 6t120 18.5t105.5 42t45 80.5q0 51 -37 74t-86 28t-99.5 1t-76.5 -4v32q33 33 70.5 86.5t70.5 115t54.5 124t21.5 113.5q0 57 -33 105 t-96 48q-41 0 -73 -29.5t-58.5 -73.5t-49 -95.5t-41 -95.5t-35 -73.5t-30.5 -29.5q-8 0 -23.5 28.5t-37 70.5t-48 91.5t-59.5 91.5t-71 70.5t-81 28.5q-45 0 -71.5 -36t-26.5 -73q0 -66 32 -125t68.5 -116.5t68.5 -115.5t32 -122v-8q-12 0 -43 -3t-67 -6t-66.5 -6t-42.5 -3 q-27 -4 -54.5 -12.5t-51 -23t-39 -35t-15.5 -50.5z" />
<glyph unicode="&#xa9;" horiz-adv-x="1144" d="M18 625q0 -125 20.5 -235.5t71 -193.5t133.5 -131.5t208 -48.5q143 0 267 74t214 192.5t141 269t51 304.5q0 137 -41 239.5t-112.5 171t-171 103.5t-215.5 35q-139 0 -246 -69.5t-177.5 -181.5t-106.5 -251t-36 -278zM143 633q0 111 19.5 224.5t75 205.5t156 149.5 t261.5 57.5q92 0 159 -41t110 -103.5t63.5 -138.5t20.5 -145q0 -121 -27 -238t-90.5 -209t-165.5 -148.5t-252 -56.5q-51 0 -100 2.5t-91 16.5t-75 45t-53 86q0 14 -2 56t-4.5 89t-3.5 89t-1 59zM293 670q0 -150 69.5 -235t217.5 -85q39 0 75.5 9.5t66.5 29t47 51t17 76.5 q0 41 -11 52.5t-50 11.5q-41 0 -75 -12.5t-75 -12.5q-53 0 -76.5 39t-23.5 86q0 68 21.5 99.5t54.5 45t69.5 14.5t69.5 6t54.5 22.5t21.5 62.5q0 37 -21.5 63.5t-53.5 44t-68.5 25.5t-67.5 8q-66 0 -115 -44t-81.5 -106.5t-49 -132t-16.5 -118.5z" />
<glyph unicode="&#xaa;" horiz-adv-x="595" d="M20 924q0 -49 19.5 -75t75.5 -26q68 0 94.5 36t36.5 79t16 79t37 36q2 0 5 -1t5 -1q4 -12 18.5 -42t31 -63t32 -61.5t21.5 -38.5q23 -35 37 -49.5t43 -14.5q37 0 54 15.5t24.5 40t7.5 53.5v55q0 31 -7.5 87.5t-21.5 123t-35.5 135t-50.5 125t-65 92t-79 35.5q-4 0 -15 -1 t-15 -1q-70 -51 -120 -122.5t-83 -153.5t-49.5 -170t-16.5 -172zM215 1186q0 18 2 40.5t9 43t22.5 35t40.5 14.5q31 0 37 -17.5t6 -46.5t-7.5 -43t-21.5 -20t-37 -6h-51z" />
<glyph unicode="&#xad;" horiz-adv-x="751" d="M25 616q0 -72 56 -98t155 -26q29 0 75.5 -1.5t101 2t111 9.5t101.5 19.5t73.5 37t28.5 57.5q0 45 -32.5 72t-83 40t-109 16.5t-109.5 3.5q-47 0 -109.5 -3.5t-121 -16.5t-98 -40t-39.5 -72z" />
<glyph unicode="&#xae;" horiz-adv-x="1153" d="M20 618q0 -125 20.5 -235.5t71 -193.5t133.5 -131t208 -48q143 0 267 74t214 192.5t141 269t51 304.5q0 137 -41 239.5t-112.5 171t-171 103.5t-215.5 35q-139 0 -246 -69.5t-177.5 -181.5t-106.5 -251.5t-36 -278.5zM145 627q0 111 19.5 224.5t75 205.5t156 149.5 t261.5 57.5q92 0 159 -41t110 -103.5t63.5 -138.5t20.5 -145q0 -121 -27 -238t-90.5 -209t-165.5 -148.5t-252 -56.5q-51 0 -100 2t-91 16.5t-75 45.5t-53 86q0 14 -2 56t-4.5 89t-3.5 89t-1 59zM328 528q0 -10 1 -41t1 -41q10 -35 37.5 -40t56.5 -5q68 0 101.5 51.5 t29.5 116.5q27 -6 45 -23.5t35.5 -35.5t37 -31.5t50.5 -13.5q10 0 31.5 1t25.5 1t20.5 10t20.5 10q8 0 11.5 10.5t1 22.5t-5.5 21.5t-7 7.5q-2 -2 -8 6t-13 19.5t-12.5 22.5t-7.5 13l-82 82q20 25 51 65t31 79q0 51 -21.5 83.5t-55 51t-75.5 24.5t-83 6q-18 0 -47 1.5 t-55.5 -4t-47 -18.5t-24.5 -42q-2 -10 -5.5 -46t-6.5 -77t-6 -78t-3 -45q0 -4 -4 -15t-7 -25.5t-6 -27t-3 -14.5q0 -4 -1 -34.5t-1 -47.5zM528 770q0 14 3.5 37t23.5 29q4 -2 11 -9.5t9 -11.5l1 -4q2 -4 2 -6q0 -20 -16.5 -27.5t-33.5 -7.5z" />
<glyph unicode="&#xb0;" horiz-adv-x="583" d="M27 1094q0 -51 13 -98.5t39.5 -82t67.5 -56t99 -21.5q68 0 126 32.5t101 85t66.5 117t23.5 125.5q0 119 -71.5 178.5t-186.5 59.5q-68 0 -120 -30t-88 -78t-53 -109.5t-17 -122.5zM252 1124v39q0 20 5 35.5t18.5 24t39.5 8.5q41 0 52.5 -19.5t11.5 -56.5q0 -16 -6 -36.5 t-16.5 -38t-26 -29t-35.5 -11.5q-39 0 -41 25.5t-2 58.5z" />
<glyph unicode="&#xb1;" horiz-adv-x="757" d="M14 883q0 -25 5.5 -46.5t17.5 -33.5q23 -20 48.5 -28.5t51 -9.5t51.5 -1q29 0 58 -2q-4 -27 -6 -58.5t1 -64.5t13 -62.5t33 -50.5q20 -23 52 -28.5t54 16.5q10 10 23.5 46t26 78t19.5 81t3 53q57 -8 122.5 -5t112.5 50q10 10 19.5 32.5t12.5 47.5t-1 48.5t-16 35.5 q-23 20 -50.5 29.5t-58.5 11.5t-62.5 1t-58.5 3q10 43 16.5 79t3.5 67.5t-19.5 61.5t-49.5 62q-8 8 -21.5 9.5t-27.5 -2t-26.5 -8.5t-18.5 -9q-20 -23 -33.5 -57.5t-23 -72.5t-15.5 -75t-10 -63q-25 6 -55 6q-31 0 -61.5 -6t-59.5 -19.5t-47 -33.5q-12 -12 -17.5 -35 t-5.5 -47zM23 311q0 -72 56 -98.5t154 -26.5q29 0 76 -1t101.5 2t111 9.5t101.5 19.5t73.5 36.5t28.5 58.5q0 45 -33 72t-83 40t-108.5 16t-109.5 3q-47 0 -109.5 -3t-121 -16t-98 -40t-39.5 -72z" />
<glyph unicode="&#xb2;" horiz-adv-x="448" d="M14 1305q0 -70 64 -70q27 0 59.5 19.5t57.5 19.5q23 0 29.5 -11.5t6.5 -33.5q0 -41 -30.5 -86t-68.5 -90t-68.5 -89t-30.5 -85v-9q14 -20 34.5 -29.5t43 -12.5t47 -2t49.5 1q18 0 55 1t73 10.5t63.5 27t27.5 52.5q0 29 -21.5 42t-50.5 13t-70.5 -10.5t-72.5 -10.5h-12 q27 29 58.5 64t59 72.5t46 78.5t18.5 80q0 90 -62.5 131t-150.5 41q-27 0 -53.5 -5t-49 -18.5t-37 -36t-14.5 -54.5z" />
<glyph unicode="&#xb3;" horiz-adv-x="434" d="M12 922q0 -33 15.5 -52.5t40 -29t54.5 -12.5t58 -3q41 0 84 9.5t77 30t55.5 53t21.5 79.5q0 45 -26.5 71t-69.5 40v18q23 18 39 33t26 32t15.5 38.5t5.5 54.5q0 45 -19.5 73.5t-50.5 44t-69 22t-76 6.5q-27 0 -59 -2.5t-58.5 -11.5t-45 -27.5t-18.5 -49.5q0 -27 13.5 -48 t42.5 -21q33 0 63.5 14t65.5 14q23 0 36 -16t13 -39q0 -4 -1 -14t-3 -20.5t-5.5 -18.5t-9.5 -8h-102q-14 0 -24.5 -23.5t-10.5 -36.5q0 -4 1 -15t4 -21.5t8.5 -18.5t11.5 -8h96q2 0 9 -6t15.5 -15.5t13.5 -17.5t5 -12q0 -27 -21.5 -41.5t-46.5 -14.5q-27 0 -57.5 18.5 t-54.5 18.5q-25 0 -43.5 -22t-18.5 -45z" />
<glyph unicode="&#xb4;" horiz-adv-x="616" d="M33 1057q94 0 164.5 18.5t130 54t115 89t118.5 124.5q18 18 22.5 36t4.5 40q0 18 -7.5 41t-21.5 42.5t-33 32.5t-39 13q-84 0 -165.5 -48t-146 -121.5t-103.5 -159.5t-39 -162z" />
<glyph unicode="&#xb6;" horiz-adv-x="1060" d="M18 1059q-8 61 20 112.5t76 92.5t112.5 71.5t130 50t128 29.5t107.5 10q59 0 138 -13t148.5 -45t114.5 -87t37 -139v-68q0 -47 1 -101t1 -102v-67q0 -82 1 -177.5t0 -191.5t-6 -190t-17 -176q-29 -41 -71 -46.5t-85 -5.5q-133 0 -184.5 65.5t-51.5 201.5q0 31 3.5 77 t7.5 96t7 96t3 77q-90 0 -178 15t-165 50t-140.5 94.5t-106.5 145.5q-4 0 -9 18.5t-10 42t-8.5 43t-3.5 21.5z" />
<glyph unicode="&#xba;" horiz-adv-x="573" d="M18 1090q0 -51 13.5 -98.5t40 -82.5t67.5 -56.5t99 -21.5q68 0 126 33t101 85t66.5 116.5t23.5 126.5q0 119 -71.5 178.5t-186.5 59.5q-68 0 -120 -30t-88 -78t-53.5 -109.5t-17.5 -122.5zM244 1120v39q0 20 5 35.5t18.5 24t39.5 8.5q41 0 52.5 -19.5t11.5 -56.5 q0 -16 -6.5 -36.5t-16.5 -38t-25.5 -29t-35.5 -11.5q-39 0 -41 25.5t-2 58.5z" />
<glyph unicode="&#xbf;" horiz-adv-x="948" d="M27 262q0 -57 12 -133t45 -143.5t87 -114.5t138 -47q174 0 283.5 14.5t173 35t91.5 43t40 36.5q25 29 27 54.5t2 60.5q0 78 -38 124t-120 46q-29 0 -67.5 -14.5t-78.5 -32t-78 -32t-65 -14.5q-68 0 -105.5 38t-37.5 93q0 43 24.5 76t60.5 63.5t78 62.5t77.5 73t60.5 95 t25 130q0 43 4 88t-2.5 82t-31 60.5t-81.5 23.5q-59 0 -96 -19.5t-59.5 -51t-35 -72.5t-21.5 -84t-21.5 -85t-34.5 -75q-37 -53 -81 -93t-83 -80t-65.5 -89t-26.5 -119zM385 1280q0 -43 6 -72.5t21.5 -50t43 -30t72.5 -9.5q35 0 73 10.5t68.5 31t51 52t20.5 76.5 q0 37 -17 64.5t-45 44t-60.5 25t-61.5 8.5q-78 0 -125 -33t-47 -117z" />
<glyph unicode="&#xc0;" horiz-adv-x="1083" d="M12 205q0 -16 1 -35.5t1 -38.5v-22q2 -4 10.5 -13.5t12.5 -13.5q12 -8 33.5 -19.5t43 -22.5t39 -20.5t19.5 -9.5q59 -12 102 5.5t73 53t47.5 86t27.5 103.5t15 103.5t7 84.5q20 16 36 21.5t36 5.5q49 -2 81 -40t54.5 -95t42 -124t44 -123t59 -94t90.5 -38q74 0 110.5 40 t63.5 110v26t1 44t1 44v29q0 47 -9.5 126t-26.5 174t-43 202.5t-57.5 212t-71.5 199t-85 167t-95 115.5t-106 43q-90 0 -165.5 -71.5t-138 -186.5t-109.5 -257t-79 -282.5t-48.5 -264.5t-16.5 -200v-24zM100 1731q12 -57 54.5 -104.5t98.5 -80.5t118.5 -45t111.5 2 q-14 63 -36.5 107.5t-55.5 78t-75 62.5t-93 59q-29 10 -55 5q-25 -6 -50.5 -30.5t-17.5 -53.5zM420 850v16q0 29 3 60.5t14.5 59.5t33 46.5t55.5 18.5q27 0 46.5 -7.5t31.5 -44.5q2 -10 4 -41.5t2 -42.5q0 -33 -5 -61.5t-17.5 -51t-35 -35.5t-56.5 -13q-6 0 -17.5 -1t-23 1 t-21.5 8t-12 18v19q0 12 -1 25.5t-1 25.5z" />
<glyph unicode="&#xc1;" horiz-adv-x="1091" d="M18 205q0 -16 1 -35.5t1 -38.5v-22q2 -4 10.5 -13.5t12.5 -13.5q12 -8 33.5 -19.5t43 -22.5t39 -20.5t19.5 -9.5q59 -12 102.5 5.5t73 53t47 86t27.5 103.5t15.5 103.5t7.5 84.5q20 16 35.5 21.5t35.5 5.5q49 -2 81 -40t54.5 -95t42 -124t44 -123t59.5 -94t90 -38 q74 0 110.5 40t63.5 110v26t1 44t1 44v29q0 47 -9 126t-26.5 174t-43 202.5t-57.5 212t-72 199t-85 167t-95 115.5t-106 43q-90 0 -165.5 -71.5t-138 -186.5t-109.5 -257t-79 -282.5t-48.5 -264.5t-16.5 -200v-24zM426 850v16q0 29 3 60.5t14.5 59.5t33 46.5t55.5 18.5 q27 0 46.5 -7.5t31.5 -44.5q2 -10 4 -41.5t2 -42.5q0 -33 -5 -61.5t-17 -51t-34.5 -35.5t-57.5 -13q-6 0 -17.5 -1t-22.5 1t-21.5 8t-12.5 18v19q0 12 -1 25.5t-1 25.5zM674 1489q66 0 114 13.5t87.5 38t75.5 59t77 79.5q10 14 13 25.5t3 26.5q0 27 -18 56.5t-47 29.5 q-57 0 -111.5 -32t-97.5 -81t-69.5 -106.5t-26.5 -108.5z" />
<glyph unicode="&#xc2;" horiz-adv-x="1095" d="M16 209q0 -16 1 -35.5t1 -38.5v-22q2 -4 10.5 -13.5t12.5 -13.5q12 -8 33.5 -19.5t43 -22.5t39 -20.5t19.5 -9.5q59 -12 102.5 5.5t73 53.5t47 86t27.5 103t15 103.5t8 85.5q20 16 35.5 21t35.5 5q49 -2 81 -40t54.5 -95t42 -123.5t44 -123t59.5 -94.5t90 -38 q74 0 110.5 40t63.5 110v26t1 44t1 44v29q0 47 -9 126t-26.5 174t-43 202.5t-57.5 212t-72 199t-85 167t-95 115.5t-106 43q-90 0 -165.5 -71.5t-138 -186.5t-109.5 -257t-79 -282.5t-48.5 -264.5t-16.5 -200v-24zM260 1516q0 -4 7 -18.5t12 -18.5h49q33 0 58.5 8t47 23.5 t43 36t47.5 44.5q25 4 54.5 -13t56.5 -41t48.5 -43t33.5 -19l49 4q14 0 22.5 17t12.5 38.5t4 40.5v24q0 43 -22.5 81t-57.5 66t-78 43t-84 15q-49 0 -103 -24.5t-98.5 -65.5t-73 -93t-28.5 -105zM424 854v16q0 29 3 61t14.5 59.5t33 46t55.5 18.5q27 0 46.5 -7.5t31.5 -43.5 q2 -10 4 -42t2 -42q0 -33 -5 -62t-17 -51.5t-34.5 -35.5t-57.5 -13q-6 0 -17.5 -1t-22.5 1t-21.5 8t-12.5 18v19q0 12 -1 25.5t-1 25.5z" />
<glyph unicode="&#xc3;" horiz-adv-x="1095" d="M16 209q0 -16 1 -35.5t1 -38.5v-22q2 -4 10.5 -13.5t12.5 -13.5q12 -8 33.5 -19.5t43 -22.5t39 -20.5t19.5 -9.5q59 -12 102.5 5.5t73 53.5t47 86t27.5 103t15 103.5t8 85.5q20 16 35.5 21t35.5 5q49 -2 81 -40t54.5 -95t42 -123.5t44 -123t59.5 -94.5t90 -38 q74 0 110.5 40t63.5 110v26t1 44t1 44v29q0 47 -9 126t-26.5 174t-43 202.5t-57.5 212t-72 199t-85 167t-95 115.5t-106 43q-90 0 -165.5 -71.5t-138 -186.5t-109.5 -257t-79 -282.5t-48.5 -264.5t-16.5 -200v-24zM315 1616q0 -8 1 -35t1 -35q10 -23 22.5 -28t31.5 -5 q16 0 31.5 10.5t27.5 26t22.5 30.5t18.5 28l6 2q20 0 29.5 -10.5t20 -22.5t25.5 -22.5t50 -10.5q37 0 71 9.5t59.5 27.5t42 48t16.5 71q0 23 -9.5 49.5t-38.5 26.5q-23 0 -38 -10.5t-30.5 -21.5t-31.5 -21.5t-37 -10.5q-25 0 -42 12.5t-34.5 27.5t-41 27.5t-60.5 12.5 q-31 0 -52.5 -19.5t-34.5 -47t-19.5 -57.5t-6.5 -52zM424 854v16q0 29 3 61t14.5 59.5t33 46t55.5 18.5q27 0 46.5 -7.5t31.5 -43.5q2 -10 4 -42t2 -42q0 -33 -5 -62t-17 -51.5t-34.5 -35.5t-57.5 -13q-6 0 -17.5 -1t-22.5 1t-21.5 8t-12.5 18v19q0 12 -1 25.5t-1 25.5z" />
<glyph unicode="&#xc4;" horiz-adv-x="1091" d="M16 211q0 -16 1 -35.5t1 -38.5v-22q2 -4 10.5 -13.5t12.5 -13.5q12 -8 33.5 -19.5t43 -22.5t39 -20.5t19.5 -9.5q59 -12 102.5 5.5t73 53.5t47 86t27.5 103t15 103.5t8 85.5q20 16 35.5 21t35.5 5q49 -2 81 -40t54.5 -95t42 -123.5t44 -123t59.5 -94.5t90 -38 q74 0 110.5 40t63.5 110v26t1 44t1 44v29q0 47 -9 126t-26.5 174t-43 202.5t-57.5 212t-72 199t-85 167t-95 115.5t-106 43q-90 0 -165.5 -71.5t-138 -186.5t-109.5 -257t-79 -282.5t-48.5 -264.5t-16.5 -199v-25zM268 1649q0 -100 103 -101q63 0 105 35t42 98 q0 41 -30.5 63.5t-69.5 22.5q-61 0 -105.5 -26t-44.5 -92zM424 856v16q0 29 3 61t14.5 59.5t33 46t55.5 18.5q27 0 46.5 -7.5t31.5 -43.5q2 -10 4 -42t2 -42q0 -33 -5 -62t-17 -51.5t-34.5 -35.5t-57.5 -13q-6 0 -17.5 -1t-22.5 1t-21.5 8t-12.5 18v19q0 12 -1 25.5t-1 25.5 zM602 1657q0 -100 103 -101q63 0 105 35t42 99q0 41 -30.5 63.5t-69.5 22.5q-61 0 -105.5 -26.5t-44.5 -92.5z" />
<glyph unicode="&#xc7;" horiz-adv-x="1083" d="M-2.5 -12.5q2.5 -28.5 20 -57t45 -51t57.5 -31t57.5 2t43.5 49.5q8 -12 22.5 12.5t32 58t35 61t29.5 21.5q43 -20 66.5 -30.5t46 -14.5t55.5 -4h96q76 0 158 23.5t149.5 68.5t111.5 111.5t44 152.5q0 72 -34 116t-122 44q-4 0 -14 -1t-12 -1q-10 -2 -52 -13t-89.5 -24.5 t-88.5 -25t-51 -13.5q-2 -2 -6 -2h-8q-55 0 -92 30t-59.5 74t-33 94t-10.5 91q0 104 27 165.5t71 94.5t99 43t113.5 14.5t113.5 6.5t99.5 18t71 53t26.5 109t-46 130t-112.5 98t-142.5 61.5t-137 21.5q-86 0 -162 -43t-138.5 -113.5t-111.5 -160.5t-83 -183.5t-51.5 -184.5 t-17.5 -161q0 -127 19.5 -236.5t79.5 -201.5q8 -10 -5.5 -38.5t-34 -62.5t-38 -67t-17.5 -53q-23 -23 -20.5 -51.5z" />
<glyph unicode="&#xc8;" horiz-adv-x="1013" d="M21.5 634q-1.5 -73 3 -146.5t16.5 -146.5t41 -134.5t76 -108.5t121 -69h28q23 0 47.5 -1t46.5 -1h31q68 0 164 8t184 37.5t150.5 87t62.5 157.5q0 33 -17.5 63t-44 51.5t-58 33.5t-60.5 12q-23 0 -68 -11t-94 -24.5t-90 -27t-55 -15.5l-4 -1t-6 -1q-27 0 -46.5 11.5 t-19.5 40.5q0 70 38 98t95.5 38.5t123 13.5t122.5 21.5t95 63.5t38 137q0 37 -27.5 61.5t-65.5 41t-77 23.5t-61 7q-41 0 -81 -7t-79 -16t-79 -16.5t-83 -7.5q0 6 -2 19.5t-4 29t-3 29.5t1 21q2 10 11 24t14 14h407q20 0 39.5 15.5t34 38t23 47t8.5 41.5q0 82 -41 123 t-101.5 55t-129 13t-126.5 -1h-33t-49 -1t-51 -1h-33q-90 -41 -153.5 -101.5t-103.5 -137t-57 -170t-17 -197.5q0 -61 -1.5 -134zM250 1667q12 -57 54 -104t98.5 -80t119 -45.5t111.5 2.5q-14 63 -37 107t-55.5 78t-74.5 62.5t-93 59.5q-29 10 -56 4q-25 -6 -50 -30.5 t-17 -53.5z" />
<glyph unicode="&#xc9;" horiz-adv-x="1009" d="M19 634q-1 -73 3.5 -146.5t16.5 -146.5t41 -134.5t76 -108.5t120 -69h29q23 0 47.5 -1t46.5 -1h31q68 0 164 8t184 37.5t150.5 87t62.5 157.5q0 33 -17.5 63t-44 51.5t-58 33.5t-60.5 12q-23 0 -68 -11t-94 -24.5t-90 -27t-55 -15.5l-4 -1t-6 -1q-27 0 -46.5 11.5 t-19.5 40.5q0 70 38 98t95 38.5t123 13.5t123 21.5t95 63.5t38 137q0 37 -27.5 61.5t-65.5 41t-77 23.5t-61 7q-41 0 -81 -7t-79 -16t-79 -16.5t-83 -7.5q0 6 -2 19.5t-4 29t-3 29.5t1 21q2 10 11 24t13 14h408q20 0 39.5 15.5t34 38t22.5 47t8 41.5q0 82 -40.5 123t-101 55 t-129.5 13t-126 -1h-33t-49 -1t-51 -1h-33q-90 -41 -153.5 -101.5t-103.5 -137t-57.5 -170t-17.5 -197.5q0 -61 -1 -134zM403 1432q66 0 114 13t88 37.5t76 59.5t77 80q10 14 13 25.5t3 25.5q0 27 -18 56.5t-47 29.5q-57 0 -111.5 -31.5t-97.5 -81t-70 -106.5t-27 -108z" />
<glyph unicode="&#xca;" horiz-adv-x="1007" d="M15 663q-1 -73 3.5 -147t16.5 -146.5t40.5 -134t76 -108.5t120.5 -70h29q23 0 47.5 -1t46.5 -1h31q68 0 164 8.5t184 38t150.5 87t62.5 157.5q0 33 -17.5 62.5t-44 51t-58 34t-60.5 12.5q-23 0 -68 -11.5t-94 -24.5t-90 -26.5t-55 -15.5l-4 -1t-7 -1q-27 0 -46 11.5 t-19 39.5q0 70 38 98.5t95 39t122.5 13.5t123 21.5t95.5 63.5t38 137q0 37 -27.5 61.5t-65.5 41t-77 23.5t-61 7q-41 0 -81 -7t-79 -16.5t-79 -16.5t-83 -7q0 6 -2 19.5t-4 28.5t-3 29.5t1 20.5q2 10 11 24.5t13 14.5h408q20 0 39.5 15.5t34 38t22.5 47t8 40.5q0 82 -41 123 t-101 55.5t-129 13.5t-126 -1h-33t-49 -1t-51 -1h-33q-90 -41 -153.5 -101.5t-103.5 -137.5t-57.5 -170t-17.5 -197q0 -61 -1 -134zM238 1481q0 -4 7 -18.5t11 -18.5h49q33 0 58.5 8t47 23.5t43 36t48.5 44.5q25 4 54.5 -13t56 -40.5t48 -43t33.5 -19.5l49 4q14 0 22.5 17.5 t12.5 39t4 39.5v25q0 43 -22.5 80.5t-57 65.5t-77.5 43t-84 15q-49 0 -103.5 -24.5t-98.5 -65.5t-72.5 -93t-28.5 -105z" />
<glyph unicode="&#xcb;" horiz-adv-x="1009" d="M19 685q-1 -73 3.5 -146.5t16.5 -146.5t41 -134t76 -108.5t120 -69.5h29q23 0 47.5 -1t46.5 -1h31q68 0 164 8t184 38t150.5 87t62.5 158q0 33 -17.5 62.5t-44 51t-58 33.5t-60.5 12q-23 0 -68 -11t-94 -24.5t-90 -26.5t-55 -15l-4 -1t-6 -1q-27 0 -46.5 11t-19.5 40 q0 70 38 98.5t95 38.5t123 13t123 21.5t95 63.5t38 137q0 37 -27.5 61.5t-65.5 41t-77 24t-61 7.5q-41 0 -81 -7.5t-79 -16.5t-79 -16.5t-83 -7.5q0 6 -2 19.5t-4 29t-3 30t1 20.5q2 10 11 24.5t13 14.5h408q20 0 39.5 15t34 37.5t22.5 47.5t8 41q0 82 -40.5 123t-101 55.5 t-129.5 13t-126 -1.5h-33t-49 -1t-51 -1h-33q-90 -41 -153.5 -101t-103.5 -137t-57.5 -170.5t-17.5 -197.5q0 -61 -1 -134zM215 1599q0 -100 102 -100q63 0 105.5 35t42.5 98q0 41 -31 63.5t-69 22.5q-61 0 -105.5 -26.5t-44.5 -92.5zM549 1608q0 -100 102 -101 q63 0 105.5 35t42.5 98q0 41 -31 63.5t-70 22.5q-61 0 -105 -26t-44 -92z" />
<glyph unicode="&#xcc;" horiz-adv-x="522" d="M-240 1739q12 -57 54.5 -104.5t98.5 -80t118.5 -45t111.5 1.5q-14 63 -36.5 107.5t-55.5 78.5t-75 62.5t-93 59.5q-29 10 -55 4q-25 -6 -50.5 -30.5t-17.5 -53.5zM14 1270l2 -1104q0 -41 17.5 -69.5t45 -48t62.5 -29t68 -9.5q113 0 172 53.5t87 134.5t32 174t4 173v131 t-5 193.5t-20.5 218t-45.5 203.5t-79 150.5t-123 59.5q-43 0 -81.5 -20.5t-69.5 -53t-48.5 -73.5t-17.5 -84z" />
<glyph unicode="&#xcd;" horiz-adv-x="530" d="M16 1270l2 -1104q0 -41 17.5 -69.5t45.5 -48t62.5 -29t67.5 -9.5q113 0 172 53.5t87 134.5t32 174t4 173v131t-5 193.5t-20.5 218t-45 203.5t-79 150.5t-123.5 59.5q-43 0 -81.5 -20.5t-69.5 -53t-48.5 -73.5t-17.5 -84zM322 1499q66 0 113.5 13.5t87.5 38t76 59.5t77 80 q10 14 13 25t3 26q0 27 -18 56.5t-47 29.5q-57 0 -111.5 -32t-97.5 -81t-69.5 -106.5t-26.5 -108.5z" />
<glyph unicode="&#xce;" horiz-adv-x="522" d="M-66 1524q0 -4 7.5 -18.5t11.5 -18.5h49q33 0 58.5 8t47 23.5t43 36t48.5 44.5q25 4 54.5 -13t56 -40.5t48 -43t33.5 -19.5l49 4q14 0 22.5 17.5t12.5 39t4 39.5v25q0 43 -22.5 80.5t-57 65.5t-77.5 43t-84 15q-49 0 -103.5 -24.5t-98.5 -65.5t-73 -93t-29 -105zM14 1270 l2 -1104q0 -41 17.5 -69.5t45 -48t62.5 -29t68 -9.5q113 0 172 53.5t87 134.5t32 174t4 173v131t-5 193.5t-20.5 218t-45.5 203.5t-79 150.5t-123 59.5q-43 0 -81.5 -20.5t-69.5 -53t-48.5 -73.5t-17.5 -84z" />
<glyph unicode="&#xcf;" horiz-adv-x="538" d="M-18 1628q0 -100 102 -100q63 0 105 34.5t42 98.5q0 41 -30.5 63.5t-69.5 22.5q-61 0 -105 -26.5t-44 -92.5zM20 1268l3 -1104q0 -41 17 -69.5t45 -48t62.5 -29t67.5 -9.5q113 0 172 53.5t87 134t32 174t4 173.5v131t-5 193.5t-20.5 218t-45 203.5t-78.5 150.5t-123 59.5 q-43 0 -82 -20.5t-70 -53t-48.5 -73.5t-17.5 -84zM315 1636q0 -100 103 -100q63 0 105 35t42 98q0 41 -30.5 63.5t-69.5 22.5q-61 0 -105.5 -26.5t-44.5 -92.5z" />
<glyph unicode="&#xd1;" horiz-adv-x="1277" d="M14 137q0 -14 1 -30.5t1 -30.5v-21q33 -25 57.5 -41t49 -24t50.5 -11.5t58 -3.5q59 0 96.5 38t58 99.5t29.5 139.5t11 154.5t1 146.5t3 117q33 -29 70 -88.5t75.5 -133t80.5 -152.5t87 -143.5t92.5 -106.5t96.5 -42q82 0 137 36t91 96.5t53.5 137t25.5 158.5t8 162v147 q0 16 -1 48t-1 34q-4 12 -9 54.5t-12 98.5t-14.5 118.5t-15.5 119t-15.5 97.5t-11.5 53q-8 12 -27.5 34.5t-45 44t-54 37t-53.5 11.5q-53 -8 -86 -55t-52.5 -116t-27.5 -152t-10 -161.5t-2 -144.5v-102l-27 -25q-18 45 -46.5 117t-68.5 151.5t-89.5 159.5t-104.5 144.5 t-117.5 104.5t-128.5 40q-31 0 -62.5 -13.5t-57 -35t-45 -49t-27.5 -58.5q4 -137 1 -282.5t-7 -292t-9.5 -289.5t-5.5 -274v-21zM391 1589q0 -8 1 -34.5t1 -34.5q10 -23 22.5 -28t30.5 -5q16 0 32 10t28 25.5t22.5 31t18.5 27.5l6 2q20 0 29.5 -10t19.5 -22.5t25.5 -22.5 t50.5 -10q37 0 70.5 9t59.5 27.5t42 48t16 70.5q0 23 -9 49.5t-38 26.5q-23 0 -38 -10t-30.5 -21.5t-32 -21.5t-36.5 -10q-25 0 -42 12t-34.5 27.5t-41 27.5t-60.5 12q-31 0 -52.5 -19.5t-35 -47t-19.5 -57t-6 -52.5z" />
<glyph unicode="&#xd2;" horiz-adv-x="1148" d="M16 618q0 -125 20.5 -235.5t71 -193.5t133.5 -131t208 -48q143 0 267 74t214 192.5t141 269t51 304.5q0 137 -41 239.5t-112.5 171t-171 103.5t-215.5 35q-139 0 -246 -69.5t-177.5 -181.5t-106.5 -251.5t-36 -278.5zM223 1669q12 -57 54 -104t98.5 -80t119 -45.5 t111.5 2.5q-14 63 -36.5 107t-55.5 78t-75 62.5t-93 59.5q-29 10 -55 4q-25 -6 -50.5 -30.5t-17.5 -53.5zM451 637v25q0 49 6 98t24.5 89t52 64.5t87.5 24.5q31 0 53 -17.5t35.5 -45t20.5 -59.5t7 -62q0 -47 -9 -97.5t-30.5 -91.5t-55.5 -68.5t-83 -27.5q-35 0 -63.5 8 t-40.5 55q0 6 -1 24.5t-2 40t-1 40.5z" />
<glyph unicode="&#xd3;" horiz-adv-x="1144" d="M20 623q0 -125 20.5 -236t71 -193.5t133.5 -131t208 -48.5q143 0 267 74t214 192.5t141 269t51 304.5q0 137 -41 239.5t-112.5 171t-171 103.5t-215.5 35q-139 0 -246 -69.5t-177.5 -181.5t-106.5 -251t-36 -278zM455 641v25q0 49 6 98t24.5 89t52 64.5t87.5 24.5 q31 0 53 -17.5t35.5 -45t20.5 -59.5t7 -62q0 -47 -9 -97.5t-30.5 -91.5t-55.5 -68.5t-83 -27.5q-35 0 -63.5 8.5t-40.5 55.5q0 6 -1 24.5t-2 40t-1 39.5zM641 1440q66 0 114 13t88 38t75.5 59.5t76.5 79.5q10 14 13.5 25.5t3.5 25.5q0 27 -18.5 56.5t-47.5 29.5 q-57 0 -111.5 -31.5t-97.5 -80.5t-69.5 -106.5t-26.5 -108.5z" />
<glyph unicode="&#xd4;" horiz-adv-x="1144" d="M20 612q0 -125 20.5 -235.5t71 -193.5t133.5 -131t208 -48q143 0 267 74t214 192.5t141 269t51 304.5q0 137 -41 239.5t-112.5 171t-171 103.5t-215.5 35q-139 0 -246 -70t-177.5 -181.5t-106.5 -251t-36 -278.5zM299 1475q0 -4 7 -18.5t11 -18.5h50q33 0 58.5 8t47 23.5 t43 36t47.5 44.5q25 4 54.5 -13t56 -40.5t48 -43t34.5 -19.5l49 4q14 0 22.5 17.5t12.5 39t4 39.5v25q0 43 -22.5 80.5t-57.5 65.5t-78 43t-84 15q-49 0 -103.5 -24.5t-98.5 -65.5t-72.5 -93t-28.5 -105zM455 631v24q0 49 6 98.5t24.5 89.5t52 64.5t87.5 24.5q31 0 53 -17.5 t35.5 -45t20.5 -59.5t7 -62q0 -47 -9 -97.5t-30.5 -91.5t-55.5 -68.5t-83 -27.5q-35 0 -63.5 8t-40.5 55q0 6 -1 24.5t-2 40t-1 40.5z" />
<glyph unicode="&#xd5;" horiz-adv-x="1144" d="M20 616q0 -125 20.5 -235.5t71 -193.5t133.5 -131t208 -48q143 0 267 74t214 192.5t141 269t51 304.5q0 137 -41 239.5t-112.5 171t-171 103.5t-215.5 35q-139 0 -246 -70t-177.5 -181.5t-106.5 -251t-36 -278.5zM369 1573q0 -8 1 -35t1 -35q10 -23 22.5 -28t30.5 -5 q16 0 31.5 10.5t28 26t22.5 30.5t18 28l6 2q20 0 29.5 -10.5t20 -22.5t26 -22.5t49.5 -10.5q37 0 71 9.5t59.5 27.5t42 48t16.5 71q0 23 -9.5 49.5t-37.5 26.5q-23 0 -38.5 -10.5t-30.5 -21.5t-31.5 -21.5t-37.5 -10.5q-25 0 -42 12.5t-34.5 27.5t-41 27.5t-60.5 12.5 q-31 0 -52 -19.5t-34.5 -47t-19.5 -57.5t-6 -52zM455 635v24q0 49 6 98.5t24.5 89.5t52 64.5t87.5 24.5q31 0 53 -17.5t35.5 -45t20.5 -59.5t7 -62q0 -47 -9 -97.5t-30.5 -91.5t-55.5 -68.5t-83 -27.5q-35 0 -63.5 8t-40.5 55q0 6 -1 24.5t-2 40t-1 40.5z" />
<glyph unicode="&#xd6;" horiz-adv-x="1142" d="M16 616q0 -125 20.5 -235.5t71 -193.5t133.5 -131t208 -48q143 0 267 74t214 192.5t141 269t51 304.5q0 137 -41 239.5t-112.5 171t-171 103.5t-215.5 35q-139 0 -246 -70t-177.5 -181.5t-106.5 -251t-36 -278.5zM293 1589q0 -100 102 -100q63 0 105.5 35t42.5 98 q0 41 -31 63.5t-70 22.5q-61 0 -105 -26.5t-44 -92.5zM451 635v24q0 49 6 98.5t24.5 89.5t52 64.5t87.5 24.5q31 0 53 -17.5t35.5 -45t20.5 -59.5t7 -62q0 -47 -9 -97.5t-30.5 -91.5t-55.5 -68.5t-83 -27.5q-35 0 -63.5 8t-40.5 55q0 6 -1 24.5t-2 40t-1 40.5zM627 1597 q0 -100 102 -100q63 0 105.5 35t42.5 98q0 41 -31 63.5t-70 22.5q-61 0 -105 -26.5t-44 -92.5z" />
<glyph unicode="&#xd9;" horiz-adv-x="1003" d="M25 1300l4 -1079q0 -53 31.5 -90t79.5 -59.5t104.5 -34.5t105.5 -17.5t81 -6.5t34 -1q117 0 201 54.5t141 142.5t91 200.5t52.5 231.5t23.5 232.5t5 201.5q0 47 -5 113.5t-25.5 128t-62.5 105.5t-114 44q-63 0 -95 -45t-44 -117.5t-13.5 -166t-1.5 -191.5q0 -96 -6 -188 t-31.5 -164t-75.5 -114t-138 -38q0 57 3 144.5t6 179.5t6 178t3 146q0 45 -2 78.5t-7 67.5t-15.5 73t-28.5 94q-12 45 -45 49t-66 4q-35 0 -69.5 -9t-62.5 -27.5t-46 -48.5t-18 -71zM172 1714q12 -57 54 -104t98.5 -80t119 -45t111.5 2q-14 63 -36.5 107t-55.5 78t-75 62.5 t-93 59.5q-29 10 -55 4q-25 -6 -50.5 -30.5t-17.5 -53.5z" />
<glyph unicode="&#xda;" horiz-adv-x="995" d="M18 1296l5 -1079q0 -53 31.5 -90t79.5 -59.5t104.5 -35t105.5 -17.5t81 -6t34 -1q117 0 200.5 54.5t141 142.5t91.5 200.5t52.5 231.5t23.5 232.5t5 201.5q0 47 -5 113.5t-25.5 128t-62.5 105.5t-114 44q-63 0 -95 -45t-44.5 -117.5t-13.5 -166t-1 -191.5q0 -96 -6 -188 t-31.5 -164t-75.5 -114t-139 -38q0 57 3.5 144.5t6.5 179.5t6 178t3 145q0 45 -2 79t-7 68t-15.5 72.5t-28.5 94.5q-12 45 -45 49t-66 4q-35 0 -69.5 -9t-62.5 -27.5t-46.5 -48.5t-18.5 -71zM436 1438q66 0 114 13t88 37.5t76 59.5t77 80q10 14 13 25.5t3 25.5 q0 27 -18.5 56.5t-47.5 29.5q-57 0 -111.5 -31.5t-97.5 -80.5t-69.5 -106.5t-26.5 -108.5z" />
<glyph unicode="&#xdb;" horiz-adv-x="999" d="M25 1296l4 -1079q0 -53 31.5 -90t79.5 -59.5t104.5 -35t105.5 -17.5t81 -6t34 -1q117 0 201 54.5t141 142.5t91 200.5t52.5 231.5t23.5 232.5t5 201.5q0 47 -5 113.5t-25.5 128t-62.5 105.5t-114 44q-63 0 -95 -45t-44 -117.5t-13.5 -166t-1.5 -191.5q0 -96 -6 -188 t-31.5 -164t-75.5 -114t-138 -38q0 57 3 144.5t6 179.5t6 178t3 145q0 45 -2 79t-7 68t-15.5 72.5t-28.5 94.5q-12 45 -45 49t-66 4q-35 0 -69.5 -9t-62.5 -27.5t-46 -48.5t-18 -71zM211 1528q0 -4 7 -18.5t11 -18.5h50q33 0 58 8t47 23.5t43.5 36t47.5 45.5 q25 4 54.5 -13.5t56 -41t48 -43t34.5 -19.5l49 4q14 0 22.5 17.5t12.5 39t4 39.5v25q0 43 -22.5 81t-57.5 65.5t-78 43t-84 15.5q-49 0 -103.5 -25t-98.5 -65.5t-72.5 -93t-28.5 -105.5z" />
<glyph unicode="&#xdc;" horiz-adv-x="1003" d="M25 1300l4 -1079q0 -53 31.5 -90t79.5 -59.5t104.5 -34.5t105.5 -17.5t81 -6.5t34 -1q117 0 201 54.5t141 142.5t91 200.5t52.5 231.5t23.5 232.5t5 201.5q0 47 -5 113.5t-25.5 128t-62.5 105.5t-114 44q-63 0 -95 -45t-44 -117.5t-13.5 -166t-1.5 -191.5q0 -96 -6 -188 t-31.5 -164t-75.5 -114t-138 -38q0 57 3 144.5t6 179.5t6 178t3 146q0 45 -2 78.5t-7 67.5t-15.5 73t-28.5 94q-12 45 -45 49t-66 4q-35 0 -69.5 -9t-62.5 -27.5t-46 -48.5t-18 -71zM213 1626q0 -100 102 -100q63 0 105.5 34.5t42.5 98.5q0 41 -31 63.5t-70 22.5 q-61 0 -105 -26.5t-44 -92.5zM547 1634q0 -100 102 -100q63 0 105.5 35t42.5 98q0 41 -31 63.5t-70 22.5q-61 0 -105 -26.5t-44 -92.5z" />
<glyph unicode="&#xdd;" horiz-adv-x="1138" d="M14 1225q0 -86 48.5 -162t119 -142.5t148.5 -124t137 -108.5v-51l-346 -500q0 -2 -1 -6t-1 -6q0 -37 20.5 -59.5t49 -37t62.5 -19.5t62 -5q39 0 95.5 47t121 125t133 180.5t134 213t124 220t103.5 205t70.5 168t25.5 105.5q0 29 -10 59.5t-28.5 56t-45 42t-59.5 16.5 q-84 0 -137.5 -57.5t-88 -137.5t-61 -166t-57.5 -145h-25q-8 12 -33.5 47t-60.5 81t-74 96t-73.5 96.5t-60 80t-34.5 47.5q-18 27 -46.5 31t-61.5 4q-43 0 -73 -16.5t-46 -43t-23.5 -62t-7.5 -72.5zM561 1440q66 0 114 13t88 38t75.5 59.5t76.5 79.5q10 14 13.5 25.5 t3.5 25.5q0 27 -18.5 56.5t-47.5 29.5q-57 0 -111.5 -31.5t-97.5 -80.5t-69.5 -106.5t-26.5 -108.5z" />
<glyph unicode="&#xdf;" horiz-adv-x="1069" d="M19.5 112.5q3.5 -30.5 9.5 -60t15 -52.5t15 -29q2 -6 10.5 -17t20.5 -23.5t29.5 -21.5t38.5 -9q72 -4 114.5 42t46.5 128q2 29 7.5 91t11.5 140t14 163t16.5 163t13.5 139t9 92q2 25 11.5 57.5t28 62.5t47 52.5t69.5 26.5q18 2 44.5 -1t51.5 -9.5t43.5 -17.5t18.5 -25 q0 -29 -35 -60t-76 -66.5t-76 -78.5t-35 -94q0 -10 1 -28t3 -20l242 -182l8 -59q-25 -10 -74 -25.5t-98 -37t-86 -51.5t-37 -66q0 -10 5.5 -25.5t12.5 -29t14 -24t13 -10.5h334q59 0 101.5 34t70 84t41 106.5t13.5 103.5q0 49 -20.5 86t-53.5 66.5t-74 56.5t-80 59 q39 33 79 69t73 76t53 84t20 97q0 88 -32.5 149.5t-87 100.5t-125 57.5t-148.5 18.5q-170 0 -277.5 -58.5t-171 -155t-93 -222t-43 -263t-20.5 -273.5t-26 -255q-4 -25 -0.5 -55.5z" />
<glyph unicode="&#xe0;" horiz-adv-x="587" d="M16 113q0 -49 19.5 -75t75.5 -26q68 0 94 36t36.5 79t16.5 79t37 36q2 0 5 -1t5 -1q4 -12 18.5 -42t31 -63t31.5 -61.5t22 -38.5q23 -35 37 -49.5t42 -14.5q37 0 54.5 15.5t24.5 40t7 53.5v55q0 31 -7 87.5t-21.5 123t-36 135t-50 125t-64.5 92t-79 35.5q-4 0 -15 -1 t-15 -1q-70 -51 -120 -122.5t-83 -153.5t-49.5 -170t-16.5 -172zM39 954q8 -47 44 -86t82 -65.5t96 -36.5t91 2q-12 51 -30.5 88t-45 64.5t-60.5 50t-77 49.5q-25 8 -45 2q-20 -4 -40.5 -24.5t-14.5 -43.5zM211 375q0 18 2 40.5t9 43t22.5 35t40.5 14.5q31 0 37 -17.5 t6 -46.5t-7.5 -43t-21.5 -20t-37 -6h-51z" />
<glyph unicode="&#xe1;" horiz-adv-x="591" d="M16 111q0 -49 19.5 -75t75.5 -26q68 0 94 36t36.5 79t16.5 79t37 36q2 0 5 -1t5 -1q4 -12 18.5 -42t31 -63t31.5 -61.5t22 -38.5q23 -35 37 -49.5t42 -14.5q37 0 54.5 15.5t24.5 40t7 53.5v55q0 31 -7 87t-21.5 123t-36 135.5t-50 124.5t-64.5 92t-79 36q-4 0 -15 -1 t-15 -1q-70 -51 -120 -122.5t-83 -153.5t-49.5 -170t-16.5 -172zM211 373q0 18 2 40.5t9 43t22.5 35t40.5 14.5q31 0 37 -17.5t6 -46.5t-7.5 -43t-21.5 -20t-37 -6h-51zM289 764q51 0 88 10t68.5 29.5t59 47.5t60.5 62q10 10 11.5 19.5t1.5 19.5q0 23 -14.5 45.5t-37.5 22.5 q-43 0 -86 -24.5t-76.5 -63.5t-54 -84t-20.5 -84z" />
<glyph unicode="&#xe2;" horiz-adv-x="595" d="M18 115q0 -49 19.5 -75t75.5 -26q68 0 94 36t36.5 79t16.5 79t37 36q2 0 5 -1t5 -1q4 -12 18.5 -42t31 -63t31.5 -61.5t22 -38.5q23 -35 37 -49.5t42 -14.5q37 0 54.5 15.5t24.5 40t7 53.5v55q0 31 -7 87.5t-21.5 123t-36 135t-50 125t-64.5 92t-79 35.5q-4 0 -15 -1 t-15 -1q-70 -51 -120 -122.5t-83 -153.5t-49.5 -170t-16.5 -172zM104 782q0 -4 5.5 -14t9.5 -14h37q49 0 78.5 24.5t68.5 61.5q18 2 41 -11.5t43.5 -31t36.5 -31.5t25 -14l36 2q12 0 17.5 13t8.5 28.5t3 29.5v21q0 33 -17.5 61.5t-43 49t-58.5 31.5t-63 11q-37 0 -77 -19 t-74 -50t-55.5 -70t-21.5 -78zM213 377q0 18 2 40.5t9 43t22.5 35t40.5 14.5q31 0 37 -17.5t6 -46.5t-7.5 -43t-21.5 -20t-37 -6h-51z" />
<glyph unicode="&#xe3;" horiz-adv-x="595" d="M16 115q0 -49 19.5 -75t75.5 -26q68 0 94 36t36.5 79t16.5 79t37 36q2 0 5 -1t5 -1q4 -12 18.5 -42t31 -63t31.5 -61.5t22 -38.5q23 -35 37 -49.5t42 -14.5q37 0 54.5 15.5t24.5 40t7 53.5v55q0 31 -7 87.5t-21.5 123t-36 135t-50 125t-64.5 92t-79 35.5q-4 0 -15 -1 t-15 -1q-70 -51 -120 -122.5t-83 -153.5t-49.5 -170t-16.5 -172zM109 862q0 -6 1 -28.5t1 -28.5q6 -16 16 -21.5t27 -5.5q29 0 48 29t34 49l6 2q16 0 23 -8t15.5 -19.5t21.5 -19.5t42 -8q59 0 106.5 30.5t47.5 98.5q0 16 -7.5 38.5t-31.5 22.5q-18 0 -31.5 -8t-26 -17.5 t-24.5 -17.5t-31 -8q-20 0 -34.5 10.5t-29 22.5t-33 22.5t-48.5 10.5q-25 0 -43.5 -15.5t-28.5 -39t-15 -48t-5 -43.5zM211 377q0 18 2 40.5t9 43t22.5 35t40.5 14.5q31 0 37 -17.5t6 -46.5t-7.5 -43t-21.5 -20t-37 -6h-51z" />
<glyph unicode="&#xe4;" horiz-adv-x="595" d="M20 119q0 -49 19.5 -75t75.5 -26q68 0 94.5 36t36.5 79t16 79t37 36q2 0 5 -1t5 -1q4 -12 18.5 -42t31 -62.5t32 -61.5t21.5 -39q23 -35 37 -49.5t43 -14.5q37 0 54 15.5t24.5 40t7.5 53.5v55q0 31 -7.5 87.5t-21.5 123t-35.5 135t-50.5 125t-65 92t-79 35.5q-4 0 -15 -1 t-15 -1q-70 -51 -120 -122.5t-83 -153.5t-49.5 -170t-16.5 -172zM68 879q0 -82 82 -82q53 0 87.5 28.5t34.5 79.5q0 35 -25.5 53.5t-56.5 18.5q-53 0 -87.5 -22.5t-34.5 -75.5zM215 381q0 18 2 40.5t9 43t22.5 35t40.5 14.5q31 0 37 -17.5t6 -45.5q0 -29 -7.5 -43.5 t-21.5 -20.5t-37 -6h-51zM342 887q0 -82 84 -82q51 0 86 27.5t35 80.5q0 35 -25.5 52.5t-56.5 17.5q-51 0 -87 -21.5t-36 -74.5z" />
<glyph unicode="&#xe7;" horiz-adv-x="522" d="M15 -19.5q8 -21.5 26 -36t39 -14.5q23 0 35 27q4 -6 11 5t15.5 26.5t16.5 29t14 11.5q20 -10 30.5 -16.5t19.5 -8.5t24 -2h45q35 0 72.5 10.5t68.5 32t51.5 51t20.5 70.5q0 33 -15.5 53.5t-58.5 20.5l-10 -2q-6 0 -24.5 -5.5t-40 -11.5t-41 -11t-23.5 -7h-4 q-27 0 -44.5 13t-27.5 32.5t-14 43t-4 44.5q0 63 20.5 93t52 40t68.5 11t68.5 5t52 19.5t20.5 58.5q0 33 -21.5 59.5t-52 45t-65.5 29t-61 10.5q-59 0 -107.5 -42t-82.5 -102.5t-51.5 -127.5t-17.5 -116q0 -55 9.5 -106t36.5 -92q4 -6 -2.5 -19.5t-15.5 -29t-17 -30.5 t-8 -24q-16 -16 -8 -37.5z" />
<glyph unicode="&#xe8;" d="M6 885q8 -47 44 -86t82 -65.5t96.5 -37t90.5 1.5q-12 51 -30.5 88t-45 65t-60 50.5t-77.5 48.5q-25 8 -45 2q-20 -4 -40.5 -24t-14.5 -43zM16 342q0 -55 3.5 -113.5t21.5 -105.5t57 -77t109 -30q31 0 76 6.5t87 21.5t71.5 41t29.5 67q0 45 -25.5 59t-64.5 14 q-49 0 -84 -8t-88 -8q0 37 16.5 53.5t41 22.5t53 7t53 8t41 24.5t16.5 58.5q0 49 -19.5 57.5t-74.5 8.5h-10l-103 -21q-4 0 -17 1t-18 1q0 2 -3 13.5t-3 23.5t4 22.5t17 10.5h205q10 0 15 10t6 23.5t1 23.5v14q0 37 -18.5 54.5t-45 23.5t-59.5 6h-59q-68 0 -113 -25.5 t-71.5 -68.5t-37 -100.5t-10.5 -118.5z" />
<glyph unicode="&#xe9;" horiz-adv-x="487" d="M14 338q0 -55 3 -113.5t21.5 -105.5t57.5 -77t109 -30q31 0 76 6.5t87 21.5t71.5 40.5t29.5 66.5q0 45 -25.5 59.5t-64.5 14.5q-49 0 -84 -8t-88 -8q0 37 16.5 53t41 22.5t53 7.5t53 8t41 24.5t16.5 58.5q0 49 -19.5 57t-74.5 8h-10l-103 -20q-4 0 -17.5 1t-17.5 1 q0 2 -3 13.5t-3 23.5t4 22.5t17 10.5h205q10 0 15 10t6 23.5t1 23.5v14q0 37 -18.5 54.5t-45 23.5t-59.5 6h-59q-68 0 -113 -25.5t-71.5 -68.5t-37 -100.5t-10.5 -118.5zM186 672q51 0 88 10t69 29.5t59.5 47t60.5 62.5q10 10 11 19.5t1 19.5q0 23 -14 45.5t-37 22.5 q-43 0 -86 -24.5t-77 -63.5t-54.5 -84t-20.5 -84z" />
<glyph unicode="&#xea;" d="M18 342q0 -55 3.5 -113.5t21.5 -105.5t57 -77t109 -30q31 0 76 6.5t87 21.5t71.5 41t29.5 67q0 45 -25.5 59t-64.5 14q-49 0 -84 -8t-88 -8q0 37 16.5 53.5t41 22.5t53 7t53 8t41 24.5t16.5 58.5q0 49 -19.5 57.5t-74.5 8.5h-10l-103 -21q-4 0 -17 1t-18 1q0 2 -3 13.5 t-3 23.5t4.5 22.5t16.5 10.5h205q10 0 15 10t6 23.5t1 23.5v14q0 37 -18.5 54.5t-45 23.5t-59.5 6h-59q-68 0 -113 -25.5t-71.5 -68.5t-37 -100.5t-10.5 -118.5zM35 731q0 -4 5 -14t9 -15h37q49 0 79 25t68 61q18 2 41 -11t43.5 -30.5t37 -32t24.5 -14.5l37 2q12 0 17 13.5 t8 29t3 29.5v21q0 33 -17 61.5t-43 49t-58.5 31.5t-63.5 11q-37 0 -77 -19.5t-73.5 -50t-55 -69.5t-21.5 -78z" />
<glyph unicode="&#xeb;" horiz-adv-x="495" d="M10 805q0 -82 82 -82q53 0 88 28.5t35 79.5q0 35 -25.5 53.5t-56.5 18.5q-53 0 -88 -22.5t-35 -75.5zM20 332q0 -55 3.5 -113.5t21.5 -105.5t57 -77t109 -30q31 0 76 6t87 21.5t71.5 41t29.5 66.5q0 45 -25.5 59.5t-64.5 14.5q-49 0 -84 -8t-88 -8q0 37 16.5 53t41 22.5 t53 7.5t53 8t41 24.5t16.5 58.5q0 49 -19.5 57t-74.5 8h-10l-103 -20q-4 0 -17 1t-17 1q0 2 -3.5 13t-3.5 24q0 12 4.5 22t16.5 10h205q10 0 15 10.5t6 24t1 23.5v14q0 37 -18.5 54.5t-45 23.5t-59.5 6h-59q-68 0 -113 -25.5t-71.5 -68.5t-37 -100.5t-10.5 -118.5zM285 813 q0 -82 84 -82q51 0 85.5 27.5t34.5 81.5q0 35 -25.5 52t-55.5 17q-51 0 -87 -21.5t-36 -74.5z" />
<glyph unicode="&#xec;" horiz-adv-x="266" d="M-121 920q8 -47 44 -86t82 -66t96.5 -37t91.5 2q-12 51 -31 88t-45.5 64.5t-60 50t-76.5 49.5q-25 8 -46 2q-20 -4 -40.5 -24t-14.5 -43zM18 88q0 -47 27 -65.5t68 -18.5q43 0 68.5 19.5t38.5 49t18.5 65.5t5.5 69q0 16 1 58t0 95.5t-6.5 110.5t-19.5 104.5t-37.5 78 t-60.5 30.5q-20 0 -39 -12.5t-33 -31.5t-22.5 -40.5t-8.5 -40.5v-471z" />
<glyph unicode="&#xed;" horiz-adv-x="270" d="M23 96q0 -47 26.5 -65.5t67.5 -18.5q43 0 68.5 19.5t39 49.5t18.5 65.5t5 68.5q0 16 1 58t0 95.5t-6 111t-19.5 104.5t-38 77.5t-60.5 30.5q-20 0 -38.5 -12t-33 -31.5t-22.5 -41t-8 -40.5v-471zM68 721q51 0 88 10t68.5 29.5t59 47.5t60.5 62q10 10 11 19.5t1 19.5 q0 23 -14 45.5t-37 22.5q-43 0 -86 -24.5t-76.5 -63.5t-54 -84t-20.5 -84z" />
<glyph unicode="&#xee;" horiz-adv-x="264" d="M-80 752q0 -4 5 -14.5t9 -14.5h37q49 0 79 24.5t69 61.5q18 2 40.5 -11.5t43 -30.5t37 -31.5t24.5 -14.5l37 2q12 0 17.5 13.5t8.5 28.5t3 30v20q0 33 -17.5 61.5t-43 49t-58.5 32t-64 11.5q-37 0 -76.5 -19.5t-73.5 -50.5t-55.5 -69.5t-21.5 -77.5zM18 94 q0 -47 27 -65.5t68 -18.5q43 0 68.5 19.5t38.5 49.5t18.5 65.5t5.5 68.5q0 16 1 58t0 95.5t-6.5 111t-19.5 104.5t-37.5 77.5t-60.5 30.5q-20 0 -39 -12t-33 -31.5t-22.5 -41t-8.5 -40.5v-471z" />
<glyph unicode="&#xef;" horiz-adv-x="266" d="M-117 768q0 -82 82 -82q53 0 88 28.5t35 80.5q0 35 -25.5 53t-56.5 18q-53 0 -88 -22.5t-35 -75.5zM18 92q0 -47 27 -65.5t68 -18.5q43 0 68.5 19.5t38.5 49t18.5 65.5t5.5 69q0 16 1 58t0 95.5t-6.5 110.5t-19.5 104.5t-37.5 78t-60.5 30.5q-20 0 -39 -12t-33 -31.5 t-22.5 -41t-8.5 -40.5v-471zM158 776q0 -82 84 -82q51 0 85.5 28t34.5 81q0 35 -25.5 52t-55.5 17q-51 0 -87 -21.5t-36 -74.5z" />
<glyph unicode="&#xf1;" horiz-adv-x="634" d="M18 86q0 -47 36 -62.5t77 -15.5q37 0 57.5 19.5t32.5 49t18.5 63.5t12.5 65l137 -154l13 -1q14 -1 22 -1q61 0 99 32t58.5 80t26.5 104.5t6 105.5q0 29 -6 71.5t-21.5 83.5t-41 71t-64.5 30q-37 0 -58.5 -33t-30.5 -77t-10 -89t1 -72q-39 27 -61.5 75t-46 96t-54.5 84 t-88 36q-43 0 -59.5 -11t-32.5 -52q2 -72 -1 -134.5t-7 -121t-9.5 -117.5t-5.5 -125zM129 803q0 -6 1 -29t1 -29q6 -16 16.5 -21t26.5 -5q29 0 48.5 28.5t33.5 49.5l6 2q16 0 23.5 -8.5t15.5 -19.5t21.5 -19.5t42.5 -8.5q59 0 106 31t47 98q0 16 -7 39t-32 23 q-18 0 -31.5 -8t-25.5 -17.5t-24.5 -17.5t-30.5 -8q-20 0 -35 10t-29 22.5t-32.5 22.5t-49.5 10q-25 0 -43 -15t-28.5 -39t-15.5 -48.5t-5 -42.5z" />
<glyph unicode="&#xf2;" horiz-adv-x="581" d="M20 266q0 -51 13.5 -98t40 -82t67.5 -56.5t99 -21.5q68 0 126 33t101 85t66.5 116.5t23.5 126.5q0 119 -71.5 178t-186.5 59q-68 0 -120 -29.5t-88 -77.5t-53.5 -110t-17.5 -123zM29 852q8 -47 44 -86t82 -65.5t96 -37t91 2.5q-12 51 -30.5 88t-45 64.5t-60.5 50 t-77 49.5q-25 8 -45 2q-20 -4 -40.5 -24.5t-14.5 -43.5zM246 297v39q0 20 5 35.5t18.5 23.5t39.5 8q41 0 52.5 -19t11.5 -56q0 -16 -6.5 -37t-16.5 -38t-25.5 -28.5t-35.5 -11.5q-39 0 -41 25.5t-2 58.5z" />
<glyph unicode="&#xf3;" horiz-adv-x="573" d="M18 272q0 -51 13.5 -98t40 -82t67.5 -56.5t99 -21.5q68 0 126 33t101 85t66.5 116.5t23.5 126.5q0 119 -71.5 178t-186.5 59q-68 0 -120 -29.5t-88 -77.5t-53.5 -110t-17.5 -123zM244 303v39q0 20 5 35.5t18.5 24t39.5 8.5q41 0 52.5 -19.5t11.5 -56.5q0 -16 -6.5 -37 t-16.5 -38t-25.5 -28.5t-35.5 -11.5q-39 0 -41 25.5t-2 58.5zM268 643q51 0 88 10.5t69 29.5t59.5 47t60.5 63q10 10 11 19t1 19q0 23 -14 45.5t-37 22.5q-43 0 -86 -24.5t-77 -63.5t-54.5 -84t-20.5 -84z" />
<glyph unicode="&#xf4;" horiz-adv-x="573" d="M18 274q0 -51 13.5 -98t40 -82t67.5 -56.5t99 -21.5q68 0 126 33t101 85t66.5 116.5t23.5 126.5q0 119 -71.5 178t-186.5 59q-68 0 -120 -29.5t-88 -77.5t-53.5 -110t-17.5 -123zM86 688q0 -4 5 -14t9 -15h37q49 0 79 25t69 61q18 2 40.5 -11t43 -30.5t37 -32t24.5 -14.5 l37 2q12 0 17 13.5t8.5 29t3.5 29.5v21q0 33 -17.5 61.5t-43 49t-58.5 31.5t-64 11q-37 0 -76.5 -19.5t-73.5 -50t-55.5 -69.5t-21.5 -78zM244 305v39q0 20 5 35.5t18.5 24t39.5 8.5q41 0 52.5 -19.5t11.5 -56.5q0 -16 -6.5 -36.5t-16.5 -38t-25.5 -29t-35.5 -11.5 q-39 0 -41 25.5t-2 58.5z" />
<glyph unicode="&#xf5;" horiz-adv-x="565" d="M14 274q0 -51 13.5 -98t40 -82t67.5 -56.5t98 -21.5q68 0 126.5 33t101.5 85t66.5 116.5t23.5 126.5q0 119 -71.5 178t-186.5 59q-68 0 -120 -29.5t-88 -77.5t-53.5 -110t-17.5 -123zM86 764q0 -6 1 -28.5t1 -28.5q6 -16 16.5 -21.5t26.5 -5.5q29 0 48.5 28.5t33.5 49.5 l6 2q16 0 23.5 -8.5t15.5 -19.5t21.5 -19t42.5 -8q59 0 106 30.5t47 98.5q0 16 -7 38.5t-32 22.5q-18 0 -31.5 -8t-25.5 -17.5t-24.5 -17.5t-30.5 -8q-20 0 -35 10t-29 22.5t-32.5 22.5t-49.5 10q-25 0 -43 -15t-28.5 -39t-15.5 -48.5t-5 -42.5zM240 305v39q0 20 5 35.5 t18 24t40 8.5q41 0 52.5 -19.5t11.5 -56.5q0 -16 -6.5 -36.5t-16.5 -38t-25.5 -29t-35.5 -11.5q-39 0 -41 25.5t-2 58.5z" />
<glyph unicode="&#xf6;" horiz-adv-x="577" d="M20 268q0 -51 13.5 -98t40 -82t67.5 -56.5t99 -21.5q68 0 126 33t101 85t66.5 116.5t23.5 126.5q0 119 -71.5 178t-186.5 59q-68 0 -120 -29.5t-88 -77.5t-53.5 -110t-17.5 -123zM47 768q0 -82 82 -82q53 0 88 28.5t35 80.5q0 35 -25.5 53t-56.5 18q-53 0 -88 -22.5 t-35 -75.5zM246 299v39q0 20 5 35.5t18.5 24t39.5 8.5q41 0 52.5 -19.5t11.5 -56.5q0 -16 -6.5 -37t-16.5 -38t-25.5 -28.5t-35.5 -11.5q-39 0 -41 25.5t-2 58.5zM322 776q0 -82 84 -82q51 0 85.5 28t34.5 81q0 35 -25.5 52t-56.5 17q-51 0 -86.5 -21.5t-35.5 -74.5z" />
<glyph unicode="&#xf9;" horiz-adv-x="473" d="M-45 866q8 -47 44 -86t82 -65.5t96 -36.5t91 2q-12 51 -30.5 88t-45 64.5t-60.5 50t-77 49.5q-25 8 -45 2q-20 -4 -40.5 -24.5t-14.5 -43.5zM18 111q0 -23 17.5 -41.5t42 -32.5t50.5 -21.5t44 -7.5q39 0 88 22.5t90 57.5t70 79t29 87v307q0 14 -10.5 29.5t-25 28 t-29.5 19.5t-28 7q-2 0 -6 -1l-4 -1q-8 -4 -31.5 -19.5t-29.5 -21.5q-2 -20 -3 -79.5t-7.5 -123t-22.5 -112.5t-49 -49q-16 53 -17.5 110.5t-1.5 112.5q0 23 -2 54.5t-11 60t-25.5 49t-45.5 20.5q-6 0 -20 -3t-27.5 -8t-24 -13.5t-10.5 -18.5v-491z" />
<glyph unicode="&#xfa;" horiz-adv-x="468" d="M18 115q0 -23 17.5 -41.5t42 -32.5t50.5 -21.5t44 -7.5q39 0 88 22.5t90 57.5t70 79t29 87v307q0 14 -10.5 29.5t-25 28t-29.5 19.5t-28 7q-2 0 -6 -1l-4 -1q-8 -4 -31.5 -19.5t-29.5 -21.5q-2 -20 -3 -79.5t-7.5 -123t-22.5 -112.5t-49 -49q-16 53 -17.5 110.5 t-1.5 112.5q0 23 -2 54.5t-11 60t-25.5 49t-45.5 20.5q-6 0 -20 -3t-27.5 -8t-24 -13.5t-10.5 -18.5v-491zM211 662q51 0 88 10t68.5 29.5t59.5 47t60 62.5q10 10 11.5 19.5t1.5 19.5q0 23 -14 45.5t-37 22.5q-43 0 -86.5 -25t-77 -63.5t-54 -84t-20.5 -83.5z" />
<glyph unicode="&#xfb;" horiz-adv-x="473" d="M18 119q0 -23 17.5 -41.5t42 -32.5t50.5 -21.5t44 -7.5q39 0 88 22.5t90 57.5t70 79t29 87v307q0 14 -10.5 29.5t-25 28t-29.5 19.5t-28 7q-2 0 -6 -1l-4 -1q-8 -4 -31.5 -19.5t-29.5 -21.5q-2 -20 -3 -79.5t-7.5 -123t-22.5 -112.5t-49 -49q-16 53 -17.5 110.5 t-1.5 112.5q0 23 -2 54.5t-11 60t-25.5 49t-45.5 20.5q-6 0 -20 -3t-27.5 -8t-24 -13t-10.5 -19v-491zM27 756q0 -4 5 -14.5t9 -14.5h37q49 0 78.5 24.5t68.5 61.5q18 2 41 -11.5t43.5 -30.5t36.5 -31.5t25 -14.5l37 2q12 0 17 13.5t8 28.5t3 30v20q0 33 -17.5 61.5t-43 49 t-58 32t-63.5 11.5q-37 0 -77 -19.5t-73.5 -50.5t-55 -69.5t-21.5 -77.5z" />
<glyph unicode="&#xfc;" horiz-adv-x="473" d="M-4 797q0 -82 82 -82q53 0 88 28.5t35 79.5q0 35 -25.5 53.5t-56.5 18.5q-53 0 -88 -22.5t-35 -75.5zM20 119q0 -23 17.5 -41.5t42 -32.5t50.5 -21.5t44 -7.5q39 0 88 22.5t90 57.5t70 79t29 87v307q0 14 -10.5 29.5t-25 28t-29.5 19.5t-28 7q-2 0 -6 -1l-4 -1 q-8 -4 -31.5 -19.5t-29.5 -21.5q-2 -20 -3 -79.5t-7.5 -123t-22.5 -112.5t-49 -49q-16 53 -17.5 110.5t-1.5 112.5q0 23 -2 54.5t-11 60t-25.5 49t-45.5 20.5q-6 0 -20 -3t-27.5 -8t-24 -13t-10.5 -19v-491zM270 805q0 -82 84 -82q51 0 86 27.5t35 80.5q0 35 -25.5 52.5 t-56.5 17.5q-51 0 -87 -21.5t-36 -74.5z" />
<glyph unicode="&#xfd;" horiz-adv-x="548" d="M12 588q0 -47 11.5 -78t32 -56.5t51 -51t71.5 -60.5v-10q0 -37 -16.5 -66.5t-36 -57.5t-35.5 -57.5t-16 -66.5q0 -35 19.5 -53.5t53.5 -18.5q4 0 15.5 1t15.5 1q59 53 121.5 121t113 144.5t83 159.5t32.5 169q0 49 -17 56.5t-67 7.5q-45 0 -67.5 -17.5t-37.5 -43 t-31.5 -54.5t-47.5 -51q-16 27 -31.5 56.5t-36 54t-45 40t-59.5 15.5q-29 0 -43 -2t-22.5 -11.5t-9.5 -26t-1 -44.5zM246 696q51 0 88 10.5t68.5 30t59 47t60.5 62.5q10 10 11.5 19t1.5 20q0 23 -14.5 45t-37.5 22q-43 0 -86 -24.5t-76.5 -63.5t-54 -84t-20.5 -84z" />
<glyph unicode="&#xff;" horiz-adv-x="552" d="M18 590q0 -47 11.5 -78t32 -56.5t51 -51t71.5 -60.5v-10q0 -37 -16 -66.5t-35.5 -57.5t-36 -57.5t-16.5 -66.5q0 -35 19.5 -53.5t54.5 -18.5q4 0 15 1t15 1q59 53 122 121t113 144.5t83 159.5t33 169q0 49 -17.5 56.5t-66.5 7.5q-45 0 -68 -17.5t-38 -43t-31.5 -54.5 t-47.5 -51q-16 27 -31.5 56.5t-36 54t-45 40t-59.5 15.5q-29 0 -43 -2t-22.5 -11.5t-9.5 -26t-1 -44.5zM39 825q0 -82 82 -82q53 0 88 29t35 80q0 35 -25.5 53.5t-56.5 18.5q-53 0 -88 -23t-35 -76zM313 834q0 -82 84 -82q51 0 86 27.5t35 80.5q0 35 -25.5 52.5t-56.5 17.5 q-51 0 -87 -21.5t-36 -74.5z" />
<glyph unicode="&#x178;" horiz-adv-x="1142" d="M18 1229q0 -86 48.5 -162t119 -142.5t148.5 -124t137 -108.5v-51l-346 -500q0 -2 -1 -6t-1 -6q0 -37 20.5 -59.5t49 -37t62.5 -19.5t62 -5q39 0 95.5 47t121 125t133 180.5t134 213t124 220t103.5 205t70.5 168t25.5 105.5q0 29 -10 59.5t-28.5 56t-45 42t-59.5 16.5 q-84 0 -137 -57.5t-88 -137.5t-61.5 -166t-57.5 -145h-25q-8 12 -33.5 47t-60.5 81t-73.5 96t-73.5 96.5t-60.5 80t-34.5 48.5q-18 27 -46.5 30.5t-61.5 3.5q-43 0 -72.5 -16t-46 -43t-24 -62.5t-7.5 -72.5zM293 1618q0 -100 102 -100q63 0 105.5 34.5t42.5 98.5 q0 41 -31 63.5t-70 22.5q-61 0 -105 -26.5t-44 -92.5zM627 1626q0 -100 102 -100q63 0 105.5 34.5t42.5 98.5q0 41 -31 63.5t-70 22.5q-61 0 -105 -26.5t-44 -92.5z" />
<glyph unicode="&#x2c6;" horiz-adv-x="808" d="M31 997q0 -8 10 -27.5t14 -23.5q8 0 33 -1t33 -1q45 0 78.5 12.5t64.5 33t59.5 49t65.5 61.5q33 8 72 -15.5t75.5 -56.5t66.5 -61.5t46 -26.5l68 6q20 2 31.5 24.5t15.5 51.5t5 54.5t1 31.5q0 59 -30.5 110.5t-79 88t-106.5 58t-114 21.5q-68 0 -139.5 -33.5t-131.5 -89 t-99 -125t-39 -141.5z" />
<glyph unicode="&#x2dc;" horiz-adv-x="851" d="M27 729q0 -16 1 -34.5t2 -35t1 -22.5q16 -37 37.5 -46t52.5 -9q29 0 53.5 17t45 42t37.5 52.5t30 45.5q2 0 6 1t6 1q33 0 49.5 -17t32.5 -37.5t44 -38t85 -17.5q61 0 117.5 15.5t100.5 47t70.5 81.5t26.5 118q0 18 -3 40.5t-11 42t-23.5 33t-39.5 13.5q-37 0 -65 -17.5 t-52.5 -37t-51 -37t-63.5 -17.5q-43 0 -71.5 21.5t-58.5 46.5t-68.5 46.5t-100.5 21.5q-51 0 -87 -32t-59.5 -78t-33.5 -97t-10 -90v-23z" />
<glyph unicode="&#x2000;" horiz-adv-x="913" />
<glyph unicode="&#x2001;" horiz-adv-x="1827" />
<glyph unicode="&#x2002;" horiz-adv-x="913" />
<glyph unicode="&#x2003;" horiz-adv-x="1827" />
<glyph unicode="&#x2004;" horiz-adv-x="609" />
<glyph unicode="&#x2005;" horiz-adv-x="456" />
<glyph unicode="&#x2006;" horiz-adv-x="304" />
<glyph unicode="&#x2007;" horiz-adv-x="304" />
<glyph unicode="&#x2008;" horiz-adv-x="228" />
<glyph unicode="&#x2009;" horiz-adv-x="365" />
<glyph unicode="&#x200a;" horiz-adv-x="101" />
<glyph unicode="&#x2010;" horiz-adv-x="751" d="M23 645q0 -72 56 -98.5t154 -26.5q29 0 76 -1t101.5 2t111 9.5t101.5 19.5t73.5 36.5t28.5 58.5q0 45 -33 71.5t-83 40t-108.5 16.5t-109.5 3q-47 0 -109.5 -3t-121 -16.5t-98 -40t-39.5 -71.5z" />
<glyph unicode="&#x2011;" horiz-adv-x="751" d="M23 645q0 -72 56 -98.5t154 -26.5q29 0 76 -1t101.5 2t111 9.5t101.5 19.5t73.5 36.5t28.5 58.5q0 45 -33 71.5t-83 40t-108.5 16.5t-109.5 3q-47 0 -109.5 -3t-121 -16.5t-98 -40t-39.5 -71.5z" />
<glyph unicode="&#x2012;" horiz-adv-x="751" d="M23 645q0 -72 56 -98.5t154 -26.5q29 0 76 -1t101.5 2t111 9.5t101.5 19.5t73.5 36.5t28.5 58.5q0 45 -33 71.5t-83 40t-108.5 16.5t-109.5 3q-47 0 -109.5 -3t-121 -16.5t-98 -40t-39.5 -71.5z" />
<glyph unicode="&#x2013;" horiz-adv-x="913" d="M31 709q0 -72 67.5 -96.5t186.5 -24.5q35 0 92 -1t122.5 1t132 8t121 19.5t89.5 36t35 57.5q0 43 -40 68.5t-99.5 38.5t-130 16.5t-132.5 3.5q-55 0 -132 -3.5t-146.5 -15.5t-117.5 -37.5t-48 -70.5z" />
<glyph unicode="&#x2014;" horiz-adv-x="1138" d="M31 721q0 -70 86 -93.5t237 -23.5q43 0 117 -1t158 1t170 8t155.5 19.5t113.5 35t44 54.5q0 43 -51 67.5t-128 37t-167 15.5t-168 3q-72 0 -169 -3t-186 -15.5t-150.5 -37t-61.5 -67.5z" />
<glyph unicode="&#x202f;" horiz-adv-x="365" />
<glyph unicode="&#x205f;" horiz-adv-x="456" />
<glyph unicode="&#xe000;" horiz-adv-x="655" d="M0 0v655h655v-655h-655z" />
</font>
</defs>
</svg>
